<svg xmlns="http://www.w3.org/2000/svg" xmlns:ev="http://www.w3.org/2001/xml-events" xmlns:xlink="http://www.w3.org/1999/xlink" width="200mm" height="200mm" baseProfile="full" version="1.1" viewBox="0 0 200 200"><rect width="200" height="200" x="0" y="0" fill="#1a1a1a"/><rect width="180" height="200" x="10" y="0" fill="#1a1a1a"/><text style="dominant-baseline:central;font-size:9px;font-family:Arial" x="100" y="100" fill="#e1ed5e" alignment-baseline="middle" text-anchor="middle">2024</text><line x1="100" x2="100" y1="15" y2="10" stroke="#e1ed5e" stroke-width=".3"/><path id="id85" fill="none" stroke="none" d="M 100.0 14.0 a86.0,86.0 0 0,1 42.35913384403234,11.155469271406648"/><text fill="#e1ed5e" text-anchor="middle" style="font-size:6.75px;font-family:Arial"><textPath startOffset="22.146" xlink:href="#id85">January</textPath></text><path fill="#c7ff1e" stroke="none" d="M 100.0 79.0 l 0.0 -29.639781175480437 a50.63978117548044,50.63978117548044 0 0,0 0.86929918236452,0.007461887973142174 l -0.5088062575156652 29.635413685701728"/><path fill="#ff6b09" stroke="none" d="M 101.80034050326958 79.07731436759882 l 1.3232969893579194 -15.378716890697467 a36.435544957217004,36.435544957217004 0 0,0 0.6227015711166749,0.05897048620513155 l -1.5870981238596074 15.353734648987151"/><path fill="#ff6b09" stroke="none" d="M 102.15924093988457 79.11130261209362 l 1.5870981238596074 -15.353734648987151 a36.435544957217004,36.435544957217004 0 0,0 0.6215975077990947,0.06965129727721665 l -1.8504315332594987 15.324227591202964"/><path fill="#c7ff1e" stroke="none" d="M 104.29559338865022 79.4440306129975 l 6.056250406694252 -28.98135058335843 a50.60737831392902,50.60737831392902 0 0,0 0.8488486018352189,0.18500260194455204 l -6.552861425148605 28.87311652328016"/><path fill="#ff6b09" stroke="none" d="M 106.72888874123014 80.10723608172694 l 4.945907841779479 -14.621697703990858 a36.435544957217004,36.435544957217004 0 0,0 0.5907663214441252,0.20549919309287484 l -5.196179935268622 14.534640078329392"/><path fill="#ff6b09" stroke="none" d="M 107.06938296918511 80.22567764915836 l 5.196179935268622 -14.534640078329392 a36.435544957217004,36.435544957217004 0 0,0 0.5871516037579089,0.21561020179704293 l -5.444920690680656 14.443299027523627"/><path fill="#ff6b09" stroke="none" d="M 108.4095320186766 80.7573450057729 l 6.1812242639732595 -14.143850774267081 a36.435544957217004,36.435544957217004 0 0,0 0.5709737859557712,0.2553893119646561 l -6.423111452784663 14.035657711392574"/><path fill="#ff6b09" stroke="none" d="M 109.3889696526874 81.21577127319529 l 6.901136341714397 -13.806895571392438 a36.435544957217004,36.435544957217004 0 0,0 0.5570696022758793,0.2844437082001287 l -7.1371331657038555 13.686393911519476"/><line x1="143.13" x2="145.667" y1="26.755" y2="22.447" stroke="#e1ed5e" stroke-width=".3"/><path id="id86" fill="none" stroke="none" d="M 143.63769802327073 25.89364864446614 a86.0,86.0 0 0,1 29.32050498858742,28.57503671076993"/><text fill="#e1ed5e" text-anchor="middle" style="font-size:6.75px;font-family:Arial"><textPath startOffset="20.669" xlink:href="#id86">February</textPath></text><path fill="#ff6b09" stroke="none" d="M 111.27062007382361 82.28071324371311 l 8.284198230724607 -13.024135587451728 a36.435544957217004,36.435544957217004 0 0,0 0.5248702783858994,0.3402145731469388 l -8.506554141367513 12.880007172600894"/><path fill="#ff6b09" stroke="none" d="M 113.03279911837588 83.53348406188908 l 9.579445557622334 -12.103316526259116 a36.435544957217004,36.435544957217004 0 0,0 0.4871071989726182,0.3923790789829336 l -9.785803526950213 11.937089153482773"/><path fill="red" stroke="none" d="M 113.31354834802062 83.75963576809568 l 5.604426790911752 -6.836489417862939 a29.840089774161875,29.840089774161875 0 0,0 0.3933572724000599,0.328152626872318 l -5.720958397473705 6.739274607078751"/><path fill="#ffee16" stroke="none" d="M 115.41159269507618 85.73525988315684 l 17.832827625429008 -16.505799021439078 a45.299200448870806,45.299200448870806 0 0,0 0.5233185799486053,0.575218791285471 l -18.11354390621949 16.197242654595932"/><path fill="#ff6b09" stroke="none" d="M 116.7966241395341 87.39550010848427 l 12.369515602827052 -9.28231511158053 a36.46500210408192,36.46500210408192 0 0,0 0.37141858599688893,0.5039006449096082 l -12.527036208407766 9.068608157402046"/><line x1="172.872" x2="177.158" y1="56.243" y2="53.669" stroke="#e1ed5e" stroke-width=".3"/><path id="id87" fill="none" stroke="none" d="M 173.72905801456457 55.72781907015455 a86.0,86.0 0 0,1 12.242430191666344,42.057860355516425"/><text fill="#e1ed5e" text-anchor="middle" style="font-size:6.75px;font-family:Arial"><textPath startOffset="22.146" xlink:href="#id87">March</textPath></text><path fill="#ff6b09" stroke="none" d="M 118.18653347947321 89.5 l 13.367574054206711 -7.717772478608504 a36.435544957217004,36.435544957217004 0 0,0 0.3080827196031141,0.5443526456226693 l -13.498090138831202 7.487163062886717"/><path fill="#ff6b09" stroke="none" d="M 118.36410011445183 89.81374322990088 l 13.498090138831202 -7.487163062886717 a36.435544957217004,36.435544957217004 0 0,0 0.2986927858897242,0.5495610835674895 l -13.624628274336267 7.254347145844624"/><path fill="#ff6b09" stroke="none" d="M 118.70294669586156 90.45014215332178 l 13.747151169352579 -7.019393339401585 a36.435544957217004,36.435544957217004 0 0,0 0.27965163325628073,0.5594905977150492 l -13.865622715820598 6.782370885522787"/><path fill="#c9ff1d" stroke="none" d="M 119.31412917781788 91.75594674310238 l 27.10588615851702 -11.569890985448248 a50.471875438350395,50.471875438350395 0 0,0 0.33329260481300277,0.7997809206386793 l -27.300504607866507 11.102877555368291"/><path fill="#ff6b09" stroke="none" d="M 119.4528033332814 92.08871423366111 l 14.298315256893607 -5.815000338843565 a36.435544957217004,36.435544957217004 0 0,0 0.23065664880684628,0.58140543106823 l -14.39603058066658 5.568693890561771"/><path fill="#ff6b09" stroke="none" d="M 119.83427380445688 93.10060997987247 l 14.57870595249742 -5.071230706335847 a36.435544957217004,36.435544957217004 0 0,0 0.20042079121495548,0.5925084567862386 l -14.663612165284741 4.820220575075446"/><path fill="#c8ff1d" stroke="none" d="M 120.16314734710363 94.1308016681162 l 28.4020655996093 -8.267427359907014 a50.580866881750595,50.580866881750595 0 0,0 0.23551778266059079,0.8357695242897126 l -28.539801874344473 7.7786499117142895"/><path fill="#ff6b09" stroke="none" d="M 120.26092885502905 94.47779374421319 l 14.892308486513153 -4.058964901153444 a36.435544957217004,36.435544957217004 0 0,0 0.15929363331831833,0.604863871708915 l -14.959791600636203 3.8027205250717304"/><path fill="#ff6c09" stroke="none" d="M 120.43855184770803 95.1765574152323 l 15.08307213785832 -3.5595639554583953 a36.49740496563333,36.49740496563333 0 0,0 0.13867126178994435,0.6110111660114272 l -15.141954261205932 3.300118455507942"/><path fill="#4dd2ff" stroke="none" d="M 120.77682067341334 96.94652285012252 l 62.330462020240034 -9.160431449632455 a84.0,84.0 0 0,0 0.19742193377914985,1.4284467671996575 l -62.478528470574396 8.089096374232712"/><path fill="#ff6d0a" stroke="none" d="M 120.96210409425399 98.7389718711861 l 15.587054818858244 -0.9376785118309079 a36.615233553093,36.615233553093 0 0,0 0.0323581207819893,0.6277388986291539 l -15.600854529096805 0.6699678198250234"/><path fill="#ff6b09" stroke="none" d="M 120.98066250479742 99.09900007780936 l 15.421331396428464 -0.6622583240677464 a36.435544957217004,36.435544957217004 0 0,0 0.021471489204093905,0.6251189807275075 l -15.430427572629405 0.39743307877611905"/><path fill="#ff940d" stroke="none" d="M 120.99303781780057 99.45929381324524 l 18.118973445494024 -0.46668048353233954 a39.124982465984004,39.124982465984004 0 0,0 0.011529887151987347,0.6715581234533399 l -18.124314764244676 0.15557544410993326"/><line x1="184.997" x2="189.997" y1="99.27" y2="99.227" stroke="#e1ed5e" stroke-width=".3"/><path id="id88" fill="none" stroke="none" d="M 185.99683186730306 99.26182062694052 a86.0,86.0 0 0,1 -10.086455211305974,41.156179273409016"/><text fill="#e1ed5e" text-anchor="middle" style="font-size:6.75px;font-family:Arial"><textPath startOffset="21.407" xlink:href="#id88">April</textPath></text><path fill="#ff6b09" stroke="none" d="M 120.99922638620191 100.18025310272382 l 15.434976330999863 0.13249070813197453 a36.435544957217004,36.435544957217004 0 0,0 -0.010737326771787216,0.6253954546750682 l -15.430427572629407 -0.3974330787761137"/><path fill="#ff6b09" stroke="none" d="M 120.9064616781168 101.97986365728391 l 15.366791863281255 1.4552511662459957 a36.435544957217004,36.435544957217004 0 0,0 -0.06431326096146338,0.6221724595149981 l -15.339546209838126 -1.7188281480439254"/><path fill="#ff6b09" stroke="none" d="M 120.65975698304385 103.76489593502545 l 15.185457510331009 2.767296212587089 a36.435544957217004,36.435544957217004 0 0,0 -0.11741563904642621,0.6143682386173283 l -15.135715579002424 -3.0275670162377315"/><path fill="#ff6b09" stroke="none" d="M 120.35273937422433 105.17358676015961 l 14.959791600636203 3.802720525071729 a36.435544957217004,36.435544957217004 0 0,0 -0.15929363331831833,0.6048638717089069 l -14.892308486513155 -4.058964901153439"/><path fill="#ff6b09" stroke="none" d="M 120.05942366710727 106.21446072829308 l 14.744196944261763 4.567789902687013 a36.435544957217004,36.435544957217004 0 0,0 -0.19022006319976645,0.5958616386970511 l -14.663612165284741 -4.820220575075447"/><path fill="#ff6b09" stroke="none" d="M 119.0197475246899 108.90220220490707 l 13.980007999631802 6.543349635813309 a36.435544957217004,36.435544957217004 0 0,0 -0.27000602585129035,0.564208747644373 l -13.8656227158206 -6.782370885522785"/><path fill="#ff6b09" stroke="none" d="M 118.70294669586154 109.54985784667822 l 13.747151169352577 7.019393339401586 a36.435544957217004,36.435544957217004 0 0,0 -0.2892148260413597,0.5546075633385333 l -13.624628274336269 -7.254347145844622"/><line x1="174.331" x2="178.703" y1="141.23" y2="143.655" stroke="#e1ed5e" stroke-width=".3"/><path id="id89" fill="none" stroke="none" d="M 175.20536237346943 141.71514677278685 a86.0,86.0 0 0,1 -30.301960400862466,31.631185727798858"/><text fill="#e1ed5e" text-anchor="middle" style="font-size:6.75px;font-family:Arial"><textPath startOffset="22.146" xlink:href="#id89">May</textPath></text><path fill="#ff6b09" stroke="none" d="M 117.62189284568427 111.42229804090321 l 12.952548535753348 8.39568547262349 a36.435544957217004,36.435544957217004 0 0,0 -0.3447072541716274,0.5219307174672682 l -12.806516842660994 -8.61679606842982"/><path fill="#ff6b09" stroke="none" d="M 116.79662413953412 112.60449989151573 l 12.376583897457243 9.287619291644289 a36.473839248141395,36.473839248141395 0 0,0 -0.3801060760834623,0.4975710551622187 l -12.215325844019475 -9.498711260047385"/><path fill="#ffa40f" stroke="none" d="M 116.1254893667686 113.45245675266167 l 14.750219688693797 12.305157874050613 a40.20900547061299,40.20900547061299 0 0,0 -0.4467133129650564,0.5262271594281879 l -14.536811812221625 -12.556551815928357"/><path fill="#ff6f0a" stroke="none" d="M 114.65682725009322 115.03919595460226 l 10.970519035839162 11.256718980748722 a36.71833356712021,36.71833356712021 0 0,0 -0.45518059527127014,0.43605271366824844 l -10.77566595470258 -11.443383824722552"/><path fill="#ff700a" stroke="none" d="M 112.7482090630111 116.68781488649013 l 9.56696850709909 12.523468879607545 a36.7595735727311,36.7595735727311 0 0,0 -0.5047387223148474,0.3787653470013127 l -9.350576795873478 -12.685853253872873"/><path fill="#ff700a" stroke="none" d="M 112.45986205192187 116.90419585922612 l 9.371550052238053 12.714307504161933 a36.794922148969,36.794922148969 0 0,0 -0.511657904252878,0.37040086474665374 l -9.151911137611206 -12.873309140281664"/><line x1="143.13" x2="145.667" y1="173.245" y2="177.553" stroke="#e1ed5e" stroke-width=".3"/><path id="id90" fill="none" stroke="none" d="M 143.63769802327073 174.10635135553383 a86.0,86.0 0 0,1 -40.68552437913181,11.842963189579606"/><text fill="#e1ed5e" text-anchor="middle" style="font-size:6.75px;font-family:Arial"><textPath startOffset="21.407" xlink:href="#id90">June</textPath></text><path fill="#ff8e0d" stroke="none" d="M 110.65571695917076 118.09573695890943 l 9.00855745727622 15.298500021229781 a38.75382241548604,38.75382241548604 0 0,0 -0.5761540598721555,0.332642701561886 l -8.744610929543667 -15.450889620067839"/><path fill="#ffee16" stroke="none" d="M 108.73861861582097 119.09545874513695 l 10.110271614993874 22.092768092283567 a45.296254734184316,45.296254734184316 0 0,0 -0.7098281111360674,0.31749708546208893 l -9.72953010100218 -22.263068928655507"/><path fill="#ff6d0a" stroke="none" d="M 108.07796709384702 119.3841803445677 l 6.0066353716486285 14.413738253128539 a36.615233553093,36.615233553093 0 0,0 -0.5822616141678805,0.2368007295159742 l -5.758319296290307 -14.514726239223807"/><path fill="#ff770a" stroke="none" d="M 107.74402155503746 119.51999308798841 l 5.981004724650903 15.076038987580889 a37.21910506382382,37.21910506382382 0 0,0 -0.5959093089345289,0.23051052228585459 l -5.721323153222845 -15.176489398004783"/><path fill="#ff6c0a" stroke="none" d="M 105.69591212413111 120.21278271476187 l 4.217004375250946 14.964660845632366 a36.54748211530369,36.54748211530369 0 0,0 -0.6053282870813911,0.1649849164193617 l -3.9594946872348595 -15.03484625619587"/><path fill="#ff6b09" stroke="none" d="M 105.3480935250658 120.30758222061773 l 3.9309875257883045 14.926599920891698 a36.435544957217004,36.435544957217004 0 0,0 -0.6062088831666518,0.1540959275395631 l -3.674173349396255 -14.991881080266532"/><path fill="#ff6d0a" stroke="none" d="M 103.58742460773223 120.69131181640829 l 2.6670431225951514 15.38279599199943 a36.61228783840651,36.61228783840651 0 0,0 -0.6201816404198857,0.10205065292429638 l -2.4025839791221935 -15.426312643419397"/><path fill="#ff6b09" stroke="none" d="M 101.80034050326958 120.92268563240118 l 1.323296989357919 15.378716890697467 a36.435544957217004,36.435544957217004 0 0,0 -0.6236221214230759,0.04827229626008998 l -1.059105873159607 -15.39916695395261"/><line x1="101.459" x2="101.545" y1="184.987" y2="189.987" stroke="#e1ed5e" stroke-width=".3"/><path id="id91" fill="none" stroke="none" d="M 101.47630435890484 185.9873277026323 a86.0,86.0 0 0,1 -42.54439059252881,-10.42667462771756"/><text fill="#e1ed5e" text-anchor="middle" style="font-size:6.75px;font-family:Arial"><textPath startOffset="22.146" xlink:href="#id91">July</textPath></text><path fill="#ff6b09" stroke="none" d="M 98.91894614982273 120.97215588758144 l -0.7946026335992257 15.415078812025078 a36.435544957217004,36.435544957217004 0 0,0 -0.6243588874279382,-0.037559880247774985 l 1.0591058731596104 -15.39916695395261"/><path fill="#ff6b09" stroke="none" d="M 97.12497278360702 120.80226474461374 l -2.1132196119931543 15.290204413210269 a36.435544957217004,36.435544957217004 0 0,0 -0.6188401976067535,-0.09094819811560155 l 2.3753849152075928 -15.251675141795786"/><path fill="#ff6f0a" stroke="none" d="M 95.00130118170881 120.39639698878247 l -3.7400840926869408 15.260819404988872 a36.71244213774723,36.71244213774723 0 0,0 -0.6108158550332593,-0.1552670017726353 l 4.001505240945579 -15.194367171380973"/><path fill="#ff950d" stroke="none" d="M 93.61358852112213 120.00534299687104 l -5.534471891781106 17.336654374339915 a39.1986253331463,39.1986253331463 0 0,0 -0.6392684710508454,-0.21014024391966604 l 5.831263100479695 -17.239093209018225"/><path fill="#ff6b09" stroke="none" d="M 92.59220618246901 119.65005319985036 l -5.4449206906806555 14.443299027523627 a36.435544957217004,36.435544957217004 0 0,0 -0.5833638497990672,-0.22565766918509977 l 5.692056802973251 -14.347701470200487"/><path fill="#ff6b09" stroke="none" d="M 90.6110303473126 118.78422872680471 l -6.9011363417144 13.806895571392438 a36.435544957217004,36.435544957217004 0 0,0 -0.5570696022758733,-0.2844437082001287 l 7.1371331657038555 -13.686393911519476"/><line x1="58.133" x2="55.671" y1="173.974" y2="178.326" stroke="#e1ed5e" stroke-width=".3"/><path id="id92" fill="none" stroke="none" d="M 57.64086615596767 174.84453072859336 a86.0,86.0 0 0,1 -31.369924170532244,-30.572349798747897"/><text fill="#e1ed5e" text-anchor="middle" style="font-size:6.75px;font-family:Arial"><textPath startOffset="22.146" xlink:href="#id92">August</textPath></text><path fill="#ff6c09" stroke="none" d="M 88.72937992617639 117.7192867562869 l -8.317398261801937 13.07633155068388 a36.49740496563333,36.49740496563333 0 0,0 -0.5257613994018265,-0.34079218702324937 l 8.540645293460775 -12.931625521956738"/><path fill="#ff6b09" stroke="none" d="M 87.2517909369889 116.68781488649013 l -9.370264481719486 12.265976996101596 a36.435544957217004,36.435544957217004 0 0,0 -0.49377113126761973,-0.3839594182216874 l 9.579445557622334 -12.103316526259116"/><path fill="#ff6b09" stroke="none" d="M 85.08716467003676 114.78537596483092 l -10.961320960724846 10.86763501973826 a36.435544957217004,36.435544957217004 0 0,0 -0.43655542945232684,-0.4479443290523436 l 11.146263191327982 -10.67786799861818"/><path fill="#ff6b09" stroke="none" d="M 84.83555147118756 114.52719865689866 l -11.173916134359901 10.70435889250788 a36.473839248141395,36.473839248141395 0 0,0 -0.42925221863903995,-0.4558509809184069 l 11.356024186735194 -10.510966451644983"/><path fill="#ff6b09" stroke="none" d="M 83.42222388311158 112.89097897827486 l -12.185095644900448 9.475204074366708 a36.435544957217004,36.435544957217004 0 0,0 -0.37970699847168843,-0.4970486497578448 l 12.345954620726436 -9.264634511367992"/><path fill="#ff6b09" stroke="none" d="M 83.20337586046588 112.60449989151573 l -12.345954620726436 9.264634511367992 a36.435544957217004,36.435544957217004 0 0,0 -0.37111854674815975,-0.5034935840444982 l 12.503175187058424 -9.051334618054614"/><path fill="#fff116" stroke="none" d="M 81.99639281039703 110.81064883170644 l -20.986109657118913 12.60155586919352 a45.47888904474681,45.47888904474681 0 0,0 -0.3961564019226372,-0.6727601785265459 l 21.19933976917132 -12.239444522373415"/><line x1="26.388" x2="22.058" y1="142.5" y2="145" stroke="#e1ed5e" stroke-width=".3"/><path id="id93" fill="none" stroke="none" d="M 25.521815274538298 143.00000000000003 a86.0,86.0 0 0,1 -11.493303480769221,-40.785679425670985"/><text fill="#e1ed5e" text-anchor="middle" style="font-size:6.75px;font-family:Arial"><textPath startOffset="21.407" xlink:href="#id93">September</textPath></text><path fill="#ff8f0d" stroke="none" d="M 81.81346652052679 110.50000000000001 l -15.393118672344134 8.88722120914575 a38.774442418291486,38.774442418291486 0 0,0 -0.3278593934946833,-0.5792961334247809 l 15.543411430860194 -8.621668305621847"/><path fill="#ffa50f" stroke="none" d="M 80.83023694016515 108.57439118712176 l -17.588640787540985 7.867175305788114 a40.26791976434282,40.26791976434282 0 0,0 -0.2768249169347801,-0.6334295842564369 l 17.721099586492734 -7.564083651755828"/><path fill="#ff6b09" stroke="none" d="M 79.83685265289637 105.86919833188381 l -14.820436540724234 4.314013081648359 a36.435544957217004,36.435544957217004 0 0,0 -0.16965345371434723,-0.602040256591927 l 14.892308486513157 -4.058964901153437"/><path fill="#ff6b09" stroke="none" d="M 79.64726062577567 105.17358676015961 l -14.959791600636203 3.802720525071726 a36.435544957217004,36.435544957217004 0 0,0 -0.14888686835740852,-0.6075092306666315 l 15.022865995509905 -3.545355469796995"/><path fill="#ffcf13" stroke="none" d="M 79.34024301695615 103.76489593502545 l -21.76099245135029 3.9655777214344416 a43.11937158086688,43.11937158086688 0 0,0 -0.12645306516323104,-0.7293476762671293 l 21.825860334005757 -3.59143701224672"/><path fill="#ff6b09" stroke="none" d="M 79.2786578344484 103.40968896794605 l -15.230724217630868 2.50620987404086 a36.435544957217004,36.435544957217004 0 0,0 -0.09625665082645098,-0.6180367481680313 l 15.271502360595587 -2.2443849439413786"/><path fill="#ff6b09" stroke="none" d="M 79.13060592940153 102.33845913500099 l -15.362965364356961 1.7214523131554431 a36.45911067470894,36.45911067470894 0 0,0 -0.06435485737893382,-0.6225748671207966 l 15.390252614217562 -1.4574729237517152"/><path fill="#ddff1b" stroke="none" d="M 79.03789590574601 101.26102812881392 l -27.939670795848148 1.6807812147552044 a48.990180951045026,48.990180951045026 0 0,0 -0.0432942805088708,-0.839897475712104 l 27.96440666581359 -1.2009119456663695"/><line x1="15.003" x2="10.003" y1="100.73" y2="100.773" stroke="#e1ed5e" stroke-width=".3"/><path id="id94" fill="none" stroke="none" d="M 14.003168132696942 100.73817937305945 a86.0,86.0 0 0,1 10.791469493833615,-42.45332614584628"/><text fill="#e1ed5e" text-anchor="middle" style="font-size:6.75px;font-family:Arial"><textPath startOffset="22.146" xlink:href="#id94">October</textPath></text><path fill="#ff6b09" stroke="none" d="M 79.03789590574601 98.7389718711861 l -15.407690483081913 -0.9268883987915407 a36.435544957217004,36.435544957217004 0 0,0 0.042917669287323115,-0.6240134923039914 l 15.389508852629525 1.1912453152498572"/><path fill="#ffa30f" stroke="none" d="M 79.0935383218832 98.0201363427161 l -19.061860135749644 -1.8051779733967435 a40.14714546219666,40.14714546219666 0 0,0 0.07086469671306003,-0.6855516574282764 l 19.02806304655492 2.1321341531079323"/><path fill="#ff6b09" stroke="none" d="M 79.2786578344484 96.59031103205396 l -15.230724217630868 -2.506209874040854 a36.435544957217004,36.435544957217004 0 0,0 0.10685188980762432,-0.6162933056256403 l 15.185457510331009 2.767296212587087"/><path fill="#ff6b09" stroke="none" d="M 79.73907114497095 94.47779374421319 l -14.892308486513153 -4.058964901153444 a36.435544957217004,36.435544957217004 0 0,0 0.16965345371433507,-0.6020402565918965 l 14.820436540724236 4.314013081648354"/><path fill="#c7ff1e" stroke="none" d="M 79.94057633289273 93.78553927170692 l -28.298165776419943 -8.766844093763988 a50.62505260204797,50.62505260204797 0 0,0 0.26429962051509304,-0.8279147968831172 l 28.143501440127597 9.251327924338495"/><path fill="#ff6b09" stroke="none" d="M 80.05021161711548 93.44210830539832 l -14.663612165284741 -4.820220575075443 a36.435544957217004,36.435544957217004 0 0,0 0.20042079121495143,-0.5925084567862386 l 14.578705952497423 5.071230706335843"/><path fill="#ff6b09" stroke="none" d="M 80.83023694016515 91.42560881287825 l -14.090273310918034 -6.302400030932521 a36.435544957217004,36.435544957217004 0 0,0 0.26028084643118626,-0.5687606226661145 l 13.980007999631802 6.543349635813307"/><path fill="#ff6b09" stroke="none" d="M 81.29705330413844 90.45014215332179 l -13.74715116935258 -7.019393339401578 a36.435544957217004,36.435544957217004 0 0,0 0.2892148260413758,-0.5546075633385616 l 13.624628274336265 7.254347145844626"/><line x1="26.388" x2="22.058" y1="57.5" y2="55" stroke="#e1ed5e" stroke-width=".3"/><path id="id95" fill="none" stroke="none" d="M 25.521815274538284 56.99999999999999 a86.0,86.0 0 0,1 29.574782752854787,-30.34633250058573"/><text fill="#e1ed5e" text-anchor="middle" style="font-size:6.75px;font-family:Arial"><textPath startOffset="21.407" xlink:href="#id95">November</textPath></text><path fill="#c7ff1e" stroke="none" d="M 81.99639281039701 89.18935116829357 l -25.420719591884367 -15.264411718327523 a50.651564034226396,50.651564034226396 0 0,0 0.4540117619847772,-0.7415940928936067 l 25.154939865444195 15.69854292734567"/><path fill="#ff6b09" stroke="none" d="M 82.78059297857968 87.97951657250589 l -12.673618830325765 -8.84717022640786 a36.45616496002244,36.45616496002244 0 0,0 0.36262582979282687,-0.5100786424804287 l 12.519877902002966 9.063426095597809"/><path fill="#4cd8ff" stroke="none" d="M 83.64595745247003 86.82634096563983 l -48.6423226508382 -39.18281191816145 a83.460934212372,83.460934212372 0 0,0 0.9083458087406227,-1.1080341917010241 l 47.96253002285895 40.01204839156097"/><path fill="#ff0c01" stroke="none" d="M 85.08716467003674 85.21462403516908 l -6.777610670371852 -6.719682722128234 a30.544115584233413,30.544115584233413 0 0,0 0.3723590658117898,-0.36917652881734964 l 6.661259684430084 6.835039261174257"/><path fill="#ffee16" stroke="none" d="M 86.68645165197937 83.75963576809568 l -15.388362798104923 -18.771300500896558 a45.27268901669238,45.27268901669238 0 0,0 0.605251074542044,-0.4875474221755158 l 15.063860953207634 19.032696216865475"/><path fill="#ff6b09" stroke="none" d="M 89.03521579738668 82.08984904055464 l -8.059400928839082 -13.16442572976486 a36.435544957217004,36.435544957217004 0 0,0 0.5362396877740351,-0.32199652509063875 l 7.832228484507612 13.300836255391422"/><line x1="56.87" x2="54.333" y1="26.755" y2="22.447" stroke="#e1ed5e" stroke-width=".3"/><path id="id96" fill="none" stroke="none" d="M 56.362301976729285 25.89364864446614 a86.0,86.0 0 0,1 42.16139366436587,-11.88097634709845"/><text fill="#e1ed5e" text-anchor="middle" style="font-size:6.75px;font-family:Arial"><textPath startOffset="22.146" xlink:href="#id96">December</textPath></text><path fill="#ff6b09" stroke="none" d="M 89.65649057296885 81.72400993836675 l -7.6216096255007235 -13.466653919730609 a36.473839248141395,36.473839248141395 0 0,0 0.5475518953922202,-0.3037178062991704 l 7.389313541952401 13.595504641462925"/><path fill="#ff6b09" stroke="none" d="M 90.93487009805054 81.0573650232925 l -6.66310572116919 -13.923328275767606 a36.435544957217004,36.435544957217004 0 0,0 0.5665055545129946,-0.2651532040544193 l 6.423111452784672 14.035657711392568"/><path fill="#c0ff1e" stroke="none" d="M 91.26138138417902 80.90454125486306 l -12.561840871781932 -27.44988935617386 a51.18768410716791,51.18768410716791 0 0,0 0.8021514656442577,-0.35879214762794404 l 12.088776003282055 27.66148525471165"/><path fill="#ff6b09" stroke="none" d="M 93.61358852112211 79.99465700312896 l -4.694178166547924 -14.704446248226148 a36.435544957217004,36.435544957217004 0 0,0 0.5974724382116678,-0.18509848862668607 l 4.44106509546464 14.782861324659477"/><path fill="#ff6c09" stroke="none" d="M 93.95794788825049 79.88797359093562 l -4.458015725600001 -14.83928445948642 a36.49445925094684,36.49445925094684 0 0,0 0.6015329368220027,-0.17509747107393356 l 4.202622776396374 14.913625624862874"/><path fill="#ff6b09" stroke="none" d="M 96.05791012581881 79.37332000966035 l -2.8975383561101733 -15.161145062334098 a36.435544957217004,36.435544957217004 0 0,0 0.6153534409744993,-0.11213789544718646 l 2.6368501815846357 15.208651131712646"/><path fill="#c8ff1d" stroke="none" d="M 96.41257539226777 79.30868818359171 l -5.047253305590437 -29.11121581127439 a50.545518305512694,50.545518305512694 0 0,0 0.8561989514815995,-0.1408872116443858 l 4.546776851055764 29.193569021414444"/><path fill="#f0ff19" stroke="none" d="M 98.5590905019552 79.04949213459386 l -1.8243300784615584 -26.525358955415307 a47.58802076027493,47.58802076027493 0 0,0 0.8154675257819783,-0.049056501366540495 l 1.3687182005470961 26.55276743460654"/><path fill="#c7ff1e" stroke="none" d="M 98.9189461498227 79.02784411241856 l -1.5236960424437431 -29.559296164738154 a50.59854116986955,50.59854116986955 0 0,0 0.8678233847888502,-0.03726807015704058 l 1.0160468970540726 29.581096803321024"/></svg>