<svg xmlns="http://www.w3.org/2000/svg" xmlns:ev="http://www.w3.org/2001/xml-events" xmlns:xlink="http://www.w3.org/1999/xlink" width="200mm" height="200mm" baseProfile="full" version="1.1" viewBox="0 0 200 200"><rect width="200" height="200" x="0" y="0" fill="#1a1a1a"/><rect width="180" height="200" x="10" y="0" fill="#1a1a1a"/><text style="dominant-baseline:central;font-size:9px;font-family:Arial" x="100" y="100" fill="#e1ed5e" alignment-baseline="middle" text-anchor="middle">2021</text><line x1="100" x2="100" y1="15" y2="10" stroke="#e1ed5e" stroke-width=".3"/><path id="id49" fill="none" stroke="none" d="M 100.0 14.0 a86.0,86.0 0 0,1 42.46469731375804,11.215312516191453"/><text fill="#e1ed5e" text-anchor="middle" style="font-size:6.75px;font-family:Arial"><textPath startOffset="22.206" xlink:href="#id49">January</textPath></text><path fill="#49efff" stroke="none" d="M 100.0 79.0 l 0.0 -60.02970297029702 a81.02970297029702,81.02970297029702 0 0,0 1.3947931364292183,0.012005424877155012 l -1.03331265715669 60.02080892202843"/><path fill="#ff9a0e" stroke="none" d="M 100.36148047927253 79.00311137660856 l 0.2663809472432635 -15.472954699840086 a36.475247524752476,36.475247524752476 0 0,0 0.6276753776247558,0.01621100318130461 l -0.5326829600628871 15.466076904516422"/><path fill="#ff9a0e" stroke="none" d="M 102.88285421437855 79.19881850522331 l 2.12442297834686 -15.328734878046182 a36.475247524752476,36.475247524752476 0 0,0 0.6211752362568751,0.09154508267373426 l -2.387967195032391 15.28989531121148"/><path fill="#ff9a0e" stroke="none" d="M 103.95276090670814 79.375362276772 l 2.9128549255939675 -15.198636851204801 a36.475247524752476,36.475247524752476 0 0,0 0.6156215688463509,0.12348789524354763 l -3.1740429039074436 15.146244999884045"/><path fill="#ff9a0e" stroke="none" d="M 105.36241919743992 79.69619591428918 l 3.951655448184161 -14.962209234307414 a36.475247524752476,36.475247524752476 0 0,0 0.6056664668080383,0.16555152456196806 l -4.20861980421591 14.891971168919152"/><path fill="#ff9a0e" stroke="none" d="M 107.4271985657038 80.35727306442388 l 5.473225534273948 -14.475050542341096 a36.475247524752476,36.475247524752476 0 0,0 0.5853701179355147,0.2271145114885552 l -5.72157881720913 14.378693326961995"/><path fill="#ff9a0e" stroke="none" d="M 107.76421540070413 80.48803036053334 l 5.72157881720913 -14.378693326961995 a36.475247524752476,36.475247524752476 0 0,0 0.5813739860614713,0.23715704634591883 l -5.968236672858989 14.278075394432497"/><path fill="#ff9a0e" stroke="none" d="M 108.76106565485865 80.91482961587045 l 6.456174266168824 -14.064177892689536 a36.475247524752476,36.475247524752476 0 0,0 0.5683569399209246,0.26685120412740654 l -6.697309417389346 13.950961705922127"/><path fill="#ff9a0e" stroke="none" d="M 109.73455568895987 81.39251694778311 l 7.173555182387682 -13.712162192652055 a36.475247524752476,36.475247524752476 0 0,0 0.5538244453511088,0.2958338385514087 l -7.408524674267102 13.586649627598893"/><line x1="143.237" x2="145.78" y1="26.818" y2="22.514" stroke="#e1ed5e" stroke-width=".3"/><path id="id50" fill="none" stroke="none" d="M 143.74570117128098 25.957352633546492 a86.0,86.0 0 0,1 28.547481713284135,27.462654790039103"/><text fill="#e1ed5e" text-anchor="middle" style="font-size:6.75px;font-family:Arial"><textPath startOffset="19.986" xlink:href="#id50">February</textPath></text><path fill="#ff9d0e" stroke="none" d="M 110.99172775467656 82.1063720568725 l 8.193268071732028 -13.337965949120495 a36.65346534653465,36.65346534653465 0 0,0 0.5347580848269126,0.3348654636598116 l -8.421645308931204 13.194956144137738"/><path fill="#81ff25" stroke="none" d="M 113.89432698308785 84.25364557470405 l 21.995093011982906 -24.92690222459861 a54.24356435643564,54.24356435643564 0 0,0 0.6948058478814753,0.623803550474559 l -22.420909847460372 24.544599665354756"/><path fill="#ff9a0e" stroke="none" d="M 115.92442197804982 86.31012108654704 l 11.7349700856633 -10.088298322360671 a36.475247524752476,36.475247524752476 0 0,0 0.4052041960930936,0.47963396019159427 l -11.906884895243513 9.88480541253997"/><path fill="#ff9a0e" stroke="none" d="M 116.82858285166822 87.43820079747576 l 12.401261196208116 -9.25699771501433 a36.475247524752476,36.475247524752476 0 0,0 0.3712440054218726,0.506376406183035 l -12.558767814143616 9.0421588651598"/><path fill="#ff9a0e" stroke="none" d="M 117.65298651832404 88.62581576622439 l 13.00877790105633 -8.381824590943555 a36.475247524752476,36.475247524752476 0 0,0 0.3355243448514377,0.5307189372092713 l -13.151129842153724 8.156658006020077"/><line x1="172.234" x2="176.484" y1="55.198" y2="52.563" stroke="#e1ed5e" stroke-width=".3"/><path id="id51" fill="none" stroke="none" d="M 173.08426987136738 54.67131705675599 a86.0,86.0 0 0,1 12.851231095245387,41.99856678651699"/><text fill="#e1ed5e" text-anchor="middle" style="font-size:6.75px;font-family:Arial"><textPath startOffset="22.206" xlink:href="#id51">March</textPath></text><path fill="#ff9a0e" stroke="none" d="M 118.21658344932153 89.55222093294921 l 13.424101806359998 -7.699141292692311 a36.475247524752476,36.475247524752476 0 0,0 0.307681494332238,0.5473310463933141 l -13.554640941984669 7.4669267363642025"/><path fill="#ff9a0e" stroke="none" d="M 119.196687751892 91.48605970444005 l 14.146356886472045 -6.2740634992740185 a36.475247524752476,36.475247524752476 0 0,0 0.24961104429022354,0.576136705017895 l -14.25225864060495 6.0296276496695205"/><path fill="#ff9a0e" stroke="none" d="M 119.85752413597 93.16781622104841 l 14.633338153946772 -5.0347492911368805 a36.475247524752476,36.475247524752476 0 0,0 0.19915955197774593,0.5954617109072113 l -14.717834999696287 4.782114477307355"/><path fill="#ff9a0e" stroke="none" d="M 120.45610955862082 95.25157060432595 l 15.07444565776726 -3.4991962024698475 a36.475247524752476,36.475247524752476 0 0,0 0.13670508169943119,0.612822076085777 l -15.13244512646873 3.2391959568341067"/><path fill="#a8ff21" stroke="none" d="M 120.83666639777658 97.38593545837742 l 29.634042521873194 -3.7177395991534667 a50.866336633663366,50.866336633663366 0 0,0 0.10151381963416406,0.8697084131806078 l -29.693646694510946 3.2070874476480062"/><path fill="#aaff21" stroke="none" d="M 120.87857604477298 97.74499172005257 l 29.557803059707613 -3.1924155408760706 a50.729702970297026,50.729702970297026 0 0,0 0.08629575254218054,0.8689864513577022 l -29.60837593793202 2.6831535588139332"/><line x1="184.98" x2="189.979" y1="98.171" y2="98.064" stroke="#e1ed5e" stroke-width=".3"/><path id="id52" fill="none" stroke="none" d="M 185.9800911702706 98.14961562048488 a86.0,86.0 0 0,1 -9.607161424134198,41.387399972396054"/><text fill="#e1ed5e" text-anchor="middle" style="font-size:6.75px;font-family:Arial"><textPath startOffset="21.466" xlink:href="#id52">April</textPath></text><path fill="#ff9a0e" stroke="none" d="M 120.99980553446 99.90962569577887 l 15.475104219877874 -0.06659832036663191 a36.475247524752476,36.475247524752476 0 0,0 -0.002702125782871711,0.627878869541549 l -15.473957796805498 -0.19979002737860185"/><path fill="#ff9a0e" stroke="none" d="M 120.99824983174949 100.27111621757518 l 15.473957796805498 0.19979002737860185 a36.475247524752476,36.475247524752476 0 0,0 -0.013509628037921988,0.6277393298581881 l -15.46822610608257 -0.46611917302690475"/><path fill="#aaff21" stroke="none" d="M 120.9904718944345 100.63252640178507 l 29.71621402990027 0.8954677164733761 a50.729702970297026,50.729702970297026 0 0,0 -0.03381464965124478,0.8726058554805923 l -29.696397247397822 -1.4068508189679747"/><path fill="#ff9a0e" stroke="none" d="M 120.9764740272857 100.99374915477107 l 15.457910846132748 0.7323101975045607 a36.475247524752476,36.475247524752476 0 0,0 -0.035109421655041044,0.6269023088261672 l -15.443015073590178 -0.9982842226661512"/><path fill="#ff9a0e" stroke="none" d="M 120.81339534386255 102.79330883721812 l 15.337735465562076 2.058435508048992 a36.475247524752476,36.475247524752476 0 0,0 -0.08887098352420587,0.6215634517794305 l -15.30003043102127 -2.3221444318088316"/><path fill="#aaff21" stroke="none" d="M 120.76222939487914 103.15116336523771 l 29.396027757106122 4.461548130980116 a50.73267326732673,50.73267326732673 0 0,0 -0.13847180134500617,0.8622640391570098 l -29.314874201399828 -4.966891399830331"/><path fill="#ffeb16" stroke="none" d="M 120.23288151984713 105.62410040840565 l 20.633532639052017 5.7354687333245815 a42.415841584158414,42.415841584158414 0 0,0 -0.2015911096557992,0.7017650989808443 l -20.53174889251012 -6.089791307810008"/><path fill="#ff9a0e" stroke="none" d="M 119.79798401119884 107.00284435728193 l 14.589462050685421 5.160511895535901 a36.475247524752476,36.475247524752476 0 0,0 -0.21446705443505173,0.5901212238705389 l -14.498470735245144 -5.410880916412571"/><path fill="#ff9a0e" stroke="none" d="M 119.54520255179757 107.68017299344265 l 14.403183210023386 5.659646576497341 a36.475247524752476,36.475247524752476 0 0,0 -0.2346528849956465,0.5823892168161598 l -14.303627710770346 -5.906735161156314"/><path fill="#ff9a0e" stroke="none" d="M 119.26925614724726 108.34839909993367 l 14.199833737929035 6.152073452709255 a36.475247524752476,36.475247524752476 0 0,0 -0.25456060530409746,0.573966962923592 l -14.091832047893664 -6.395588752125534"/><path fill="#ff9a0e" stroke="none" d="M 119.12269723197855 108.67885076344098 l 14.091832047893664 6.395588752125534 a36.475247524752476,36.475247524752476 0 0,0 -0.2644027871579733,0.5695000811620877 l -13.979654643895861 -6.637208900566453"/><line x1="174.801" x2="179.201" y1="140.371" y2="142.746" stroke="#e1ed5e" stroke-width=".3"/><path id="id53" fill="none" stroke="none" d="M 175.68104954172406 140.8457921977663 a86.0,86.0 0 0,1 -30.038265399797805,32.042727171017184"/><text fill="#e1ed5e" text-anchor="middle" style="font-size:6.75px;font-family:Arial"><textPath startOffset="22.206" xlink:href="#id53">May</textPath></text><path fill="#ff9a0e" stroke="none" d="M 117.35343817320211 111.8261652097733 l 12.788035768370998 8.714896851897999 a36.475247524752476,36.475247524752476 0 0,0 -0.3580464017042387,0.515792546017454 l -12.636128459504622 -8.933730660102473"/><path fill="#a9ff21" stroke="none" d="M 116.93607887273984 112.41649034213515 l 24.007550560480716 17.60085802105776 a50.768316831683165,50.768316831683165 0 0,0 -0.5227655487478764,0.700329881672813 l -23.701023745037748 -18.01150078223989"/><path fill="#ff9a0e" stroke="none" d="M 116.27256486870786 113.27417163493432 l 11.991522343135491 9.781956749364614 a36.475247524752476,36.475247524752476 0 0,0 -0.4010609789684989,0.4831037853808909 l -11.821365364273449 -9.986921791859276"/><path fill="#a7ff21" stroke="none" d="M 115.56566222782051 114.09645910891815 l 22.234458675920703 20.135804885567815 a50.997029702970295,50.997029702970295 0 0,0 -0.5948526479662587,0.6455950645425577 l -21.884559619958722 -20.51555120491171"/><path fill="#ff9b0e" stroke="none" d="M 113.75828350139079 115.86535959552629 l 10.164004911989265 11.720618552678047 a36.513861386138615,36.513861386138615 0 0,0 -0.4783916119431907,0.40769571018236417 l -9.960747823469028 -11.893838653083359"/><path fill="#ff9a0e" stroke="none" d="M 113.48314897796784 116.09983520530334 l 9.935955611769794 11.864234995704441 a36.475247524752476,36.475247524752476 0 0,0 -0.48482529299451105,0.39897820939658407 l -9.730260190230592 -12.033508323958204"/><path fill="#ff9b0e" stroke="none" d="M 111.7513745106137 117.40417183066458 l 8.674741664907062 12.847577480090301 a36.5019801980198,36.5019801980198 0 0,0 -0.5237604847502944,0.3471198895061935 l -8.452306481416803 -12.994995390687814"/><line x1="143.865" x2="146.446" y1="172.807" y2="177.09" stroke="#e1ed5e" stroke-width=".3"/><path id="id54" fill="none" stroke="none" d="M 144.38136562736335 173.6633856474863 a86.0,86.0 0 0,1 -40.68145358897372,12.25698825130547"/><text fill="#e1ed5e" text-anchor="middle" style="font-size:6.75px;font-family:Arial"><textPath startOffset="21.466" xlink:href="#id54">June</textPath></text><path fill="#ff9a0e" stroke="none" d="M 109.89434966115114 118.52300852407294 l 7.291310004893555 13.649911514910885 a36.475247524752476,36.475247524752476 0 0,0 -0.5563501721321972,0.291056115326574 l -7.055268930234862 -13.773397049182176"/><path fill="#ffd614" stroke="none" d="M 109.2508944713604 118.85261126421891 l 8.732739703233278 17.79665170825983 a40.823762376237624,40.823762376237624 0 0,0 -0.6335212858564075,0.30412871623621596 l -8.42510574937664 -17.944334700995604"/><path fill="#ff9a0e" stroke="none" d="M 106.91757812671514 119.82793768551818 l 5.097677799177634 14.611535408988649 a36.475247524752476,36.475247524752476 0 0,0 -0.5945991060156793,0.20172029998458968 l -4.845408960224727 -14.697118695871362"/><path fill="#ff930d" stroke="none" d="M 106.57524785965236 119.94407469862006 l 4.696605614037404 14.245767641871474 a36.0,36.0 0 0,0 -0.5901919798441022,0.18896083429764587 l -4.450692289102361 -14.324501322828826"/><path fill="#f1ff19" stroke="none" d="M 104.83641907484287 120.43548508189849 l 5.527336085534704 23.354840093598284 a45.0,45.0 0 0,0 -0.7553139655867241,0.17190699947639054 l -5.124501970555118 -23.44652382665236"/><path fill="#ff9a0e" stroke="none" d="M 104.48393922423573 120.51570834832081 l 3.3042890181425943 15.118364992185494 a36.475247524752476,36.475247524752476 0 0,0 -0.6145359057492558,0.12878197407044897 l -3.043561650963961 -15.173002946982484"/><path fill="#ff9a0e" stroke="none" d="M 102.70371172650421 120.8252237178851 l 1.9924099144394516 15.346451990124656 a36.475247524752476,36.475247524752476 0 0,0 -0.6233317178117468,0.07547679027619388 l -1.7279507735763244 -15.3784743091262"/><path fill="#ff9a0e" stroke="none" d="M 101.98527174616119 120.90594882070398 l 1.4629796036067615 15.405939654295295 a36.475247524752476,36.475247524752476 0 0,0 -0.6255603646582557,0.05397598048345308 l -1.1975749212069642 -15.428839887057412"/><line x1="102.195" x2="102.324" y1="184.972" y2="189.97" stroke="#e1ed5e" stroke-width=".3"/><path id="id55" fill="none" stroke="none" d="M 102.22038585953345 185.97133177190398 a86.0,86.0 0 0,1 -42.740103519485714,-10.115201625700543"/><text fill="#e1ed5e" text-anchor="middle" style="font-size:6.75px;font-family:Arial"><textPath startOffset="22.206" xlink:href="#id55">July</textPath></text><path fill="#ff9a0e" stroke="none" d="M 100.18074693466247 120.99922214144158 l 0.13319540729723203 15.474674307908149 a36.475247524752476,36.475247524752476 0 0,0 -0.6278846839193643,0.0 l 0.13319540729722137 -15.474674307908149"/><path fill="#ff9a0e" stroke="none" d="M 97.65516085044442 120.86867818915974 l -1.7279507735763209 15.378474309126203 a36.475247524752476,36.475247524752476 0 0,0 -0.6233317178117311,-0.07547679027619791 l 1.9924099144394414 -15.346451990124656"/><path fill="#ff9a0e" stroke="none" d="M 97.2962882734958 120.8252237178851 l -1.9924099144394414 15.346451990124656 a36.475247524752476,36.475247524752476 0 0,0 -0.621940155618913,-0.0861952384371728 l 2.2562786612451853 -15.309882186194878"/><path fill="#ff9a0e" stroke="none" d="M 94.81253420990036 120.34920634021253 l -3.819794470050739 14.984153918974036 a36.46336633663366,36.46336633663366 0 0,0 -0.6068711915199657,-0.16028019744685032 l 4.077156104382194 -14.916182372223604"/><path fill="#ff9a0e" stroke="none" d="M 94.46302465271185 120.25689768951611 l -4.080288763701735 14.927643134707067 a36.475247524752476,36.475247524752476 0 0,0 -0.6042191309300341,-0.17075836178259654 l 4.336639062736383 -14.855195979585949"/><path fill="#ff9a0e" stroke="none" d="M 93.76903079525671 120.05430185196036 l -4.591704322024406 14.778346909294694 a36.475247524752476,36.475247524752476 0 0,0 -0.5979832931093709,-0.1914553667636214 l 4.8454089602247175 -14.697118695871366"/><path fill="#ff9a0e" stroke="none" d="M 92.40401165467489 119.57807347666478 l -5.597609516144817 14.427406338532322 a36.475247524752476,36.475247524752476 0 0,0 -0.5833936614152734,-0.2321443777501418 l 5.8451242536019485 -14.328915116376113"/><path fill="#ff9a0e" stroke="none" d="M 90.42595943632237 118.69057910512821 l -7.05526893023486 13.773397049182178 a36.475247524752476,36.475247524752476 0 0,0 -0.5563501721321972,-0.291056115326574 l 7.291310004893552 -13.649911514910887"/><line x1="58.667" x2="56.235" y1="174.274" y2="178.643" stroke="#e1ed5e" stroke-width=".3"/><path id="id56" fill="none" stroke="none" d="M 58.180547188652646 175.14741091055294 a86.0,86.0 0 0,1 -31.652253787137756,-30.449443065178592"/><text fill="#e1ed5e" text-anchor="middle" style="font-size:6.75px;font-family:Arial"><textPath startOffset="22.206" xlink:href="#id56">August</textPath></text><path fill="#ff9a0e" stroke="none" d="M 87.95078237400918 117.19931262002967 l -8.879267868658015 12.674458097645633 a36.475247524752476,36.475247524752476 0 0,0 -0.5111270741182032,-0.364675596117824 l 9.096122270625102 -12.519738239683592"/><path fill="#ff1001" stroke="none" d="M 87.65650970185807 116.9893568818739 l -3.6035309724702893 4.959834880366013 a27.13069306930693,27.13069306930693 0 0,0 -0.3754565318524517,-0.2777537663664709 l 3.688372474741305 -4.897071165259773"/><path fill="#ff9a0e" stroke="none" d="M 85.97065885151581 115.62618273729859 l -10.318610179931795 11.493090556428944 a36.445544554455445,36.445544554455445 0 0,0 -0.46320629816713793,-0.42312797086035137 l 10.514916027565791 -11.313769818982014"/><path fill="#ff9a0e" stroke="none" d="M 85.70375840098266 115.38237550388516 l -10.535137019926495 11.335527068633903 a36.475247524752476,36.475247524752476 0 0,0 -0.45622573602274347,-0.43138990958415824 l 10.728698590340052 -11.152502522303816"/><path fill="#ff6c0a" stroke="none" d="M 84.67929136418377 114.36230785411682 l -8.94972088626889 8.389863003890028 a33.26732673267327,33.26732673267327 0 0,0 -0.38804529426419176,-0.4211465270473793 l 9.092812588528812 -8.234565222041306"/><path fill="#ff9a0e" stroke="none" d="M 84.19399662182784 113.82643327865904 l -11.647705459728005 10.188927493891594 a36.475247524752476,36.475247524752476 0 0,0 -0.4093173949746587,-0.476128602870779 l 11.821365364273442 -9.986921791859285"/><path fill="#ff9a0e" stroke="none" d="M 82.64656182679789 111.8261652097733 l -12.788035768370996 8.714896851898 a36.475247524752476,36.475247524752476 0 0,0 -0.34911483246905267,-0.5218793060187399 l 12.936153706250781 -8.493480631673437"/><path fill="#f0ff19" stroke="none" d="M 82.44556493220864 111.52570212397912 l -20.092006869670115 13.191793718138474 a45.035643564356434,45.035643564356434 0 0,0 -0.4198933325993258,-0.6516837768021218 l 20.31610506564649 -12.843988341414903"/><line x1="26.633" x2="22.317" y1="142.922" y2="145.446" stroke="#e1ed5e" stroke-width=".3"/><path id="id57" fill="none" stroke="none" d="M 25.769776987707644 143.4266507060508 a86.0,86.0 0 0,1 -11.730757126820373,-40.83630448921669"/><text fill="#e1ed5e" text-anchor="middle" style="font-size:6.75px;font-family:Arial"><textPath startOffset="21.466" xlink:href="#id57">September</textPath></text><path fill="#ff9a0e" stroke="none" d="M 81.51974371655577 109.97397251340807 l -13.618406681293422 7.349985402384165 a36.475247524752476,36.475247524752476 0 0,0 -0.2934476943420649,-0.5550924490441825 l 13.742906883860373 -7.114477938253856"/><path fill="#ff9a0e" stroke="none" d="M 81.35079622478065 109.6543875284942 l -13.753458059970823 7.119940109415664 a36.48712871287129,36.48712871287129 0 0,0 -0.283941671901768,-0.5602438562155875 l 13.873978401658858 -6.88214204149739"/><path fill="#ff9a0e" stroke="none" d="M 80.45479744820244 107.68017299344265 l -14.403183210023384 5.6596465764973445 a36.475247524752476,36.475247524752476 0 0,0 -0.22459324562824326,-0.5863420932516014 l 14.498470735245139 -5.410880916412585"/><path fill="#ff9a0e" stroke="none" d="M 80.20201598880116 107.00284435728193 l -14.5614592444461 5.1506068823007105 a36.445544554455445,36.445544554455445 0 0,0 -0.20411096242243096,-0.5932419990232429 l 14.64796103781176 -4.899192180188171"/><path fill="#ff9a0e" stroke="none" d="M 80.0844068197444 106.66101706037122 l -14.676130193653705 4.90861370361161 a36.475247524752476,36.475247524752476 0 0,0 -0.19402703783882014,-0.5971538201234193 l 14.758449482508775 -4.655260983510387"/><path fill="#ff9a0e" stroke="none" d="M 79.58551787078972 104.9243191809786 l -15.043769716150722 3.6288122960252505 a36.475247524752476,36.475247524752476 0 0,0 -0.14197457572458028,-0.6116227564016278 l 15.104004857805856 -3.3693208822750487"/><path fill="#ffeb16" stroke="none" d="M 79.4281124754447 104.21870165774334 l -20.979251633952423 4.3022403044313275 a42.415841584158414,42.415841584158414 0 0,0 -0.14051775913825784,-0.71649702651621 l 21.05019932606635 -3.940479550847163"/><path fill="#ff9a0e" stroke="none" d="M 79.35854240842038 103.8639653848113 l -15.211031690541704 2.8474200360490594 a36.475247524752476,36.475247524752476 0 0,0 -0.11021353438115454,-0.6181360312582936 l 15.257791667262047 -2.5851652540575523"/><path fill="#ff9a0e" stroke="none" d="M 79.1416061653843 102.43462659150553 l -15.370895598068994 1.7941166254234546 a36.475247524752476,36.475247524752476 0 0,0 -0.06742310290906406,-0.624254196217097 l 15.399501002479111 -1.5292661073215754"/><path fill="#ff9a0e" stroke="none" d="M 79.0235259727143 100.99374915477108 l -15.457910846132746 0.7323101975045715 a36.475247524752476,36.475247524752476 0 0,0 -0.024313127098621413,-0.6274137774636661 l 15.46822610608257 -0.4661191730269086"/><line x1="15.007" x2="10.008" y1="101.097" y2="101.162" stroke="#e1ed5e" stroke-width=".3"/><path id="id58" fill="none" stroke="none" d="M 14.007167355692545 101.11028546245083 a86.0,86.0 0 0,1 10.666146001902534,-42.60595125391555"/><text fill="#e1ed5e" text-anchor="middle" style="font-size:6.75px;font-family:Arial"><textPath startOffset="22.206" xlink:href="#id58">October</textPath></text><path fill="#ffc312" stroke="none" d="M 79.05617556472873 98.46500227214037 l -18.39620222673756 -1.3482794752487015 a39.445544554455445,39.445544554455445 0 0,0 0.05545952685672967,-0.6767467014824191 l 18.370268216061334 1.664740093938899"/><path fill="red" stroke="none" d="M 79.54389044137918 95.25157060432595 l -4.982379159822498 -1.1565481498374413 a26.114851485148513,26.114851485148513 0 0,0 0.10541346819051152,-0.43700688023346296 l 4.961732891371172 1.242140261730301"/><path fill="#82ff25" stroke="none" d="M 79.71946130924805 94.55025226153421 l -31.987027855809764 -8.595493215223762 a54.12178217821782,54.12178217821782 0 0,0 0.24950973882748806,-0.8976192843569233 l 31.834331346415915 9.144823802999628"/><path fill="#a2ff22" stroke="none" d="M 80.52162464483688 92.15188598940014 l -28.20645076183311 -11.36477952482621 a51.40990099009901,51.40990099009901 0 0,0 0.33778340076006436,-0.8179692976795033 l 28.00664567418685 11.848623392959025"/><path fill="#ff9a0e" stroke="none" d="M 81.43458229118936 90.18545643968196 l -13.681163544965123 -7.232499568494626 a36.475247524752476,36.475247524752476 0 0,0 0.2982145037619754,-0.5525461845370913 l 13.554640941984676 7.46692673636419"/><path fill="#ff9a0e" stroke="none" d="M 81.6062741919709 89.86733742301443 l -13.554640941984676 -7.46692673636419 a36.475247524752476,36.475247524752476 0 0,0 0.3076814943322461,-0.5473310463933303 l 13.424101806360001 7.699141292692305"/><line x1="26.266" x2="21.929" y1="57.711" y2="55.224" stroke="#e1ed5e" stroke-width=".3"/><path id="id59" fill="none" stroke="none" d="M 25.39875349325466 57.213857153982495 a86.0,86.0 0 0,1 29.58750427330802,-30.492523968695096"/><text fill="#e1ed5e" text-anchor="middle" style="font-size:6.75px;font-family:Arial"><textPath startOffset="21.466" xlink:href="#id59">November</textPath></text><path fill="#ff9f0e" stroke="none" d="M 82.15384107792192 88.93136811851018 l -13.454034944084322 -8.344527288308448 a36.83168316831683,36.83168316831683 0 0,0 0.33880308437766093,-0.5359051157487592 l 13.308404263460698 8.574880051771423"/><path fill="#ff9a0e" stroke="none" d="M 82.7489923806493 88.02491185347247 l -12.712552998135386 -8.82464062848775 a36.475247524752476,36.475247524752476 0 0,0 0.36247256418788903,-0.5126917363402639 l 12.558767814143618 9.042158865159799"/><path fill="#f8ff18" stroke="none" d="M 84.31358615837235 86.03803664274997 l -17.527958889513222 -15.601062308666924 a44.46534653465346,44.46534653465346 0 0,0 0.5137999575640462,-0.5673507460501713 l 17.25681529133313 15.900465841986653"/><path fill="#ff9a0e" stroke="none" d="M 86.10567301691215 84.25364557470407 l -10.238959488244367 -11.603749159235056 a36.475247524752476,36.475247524752476 0 0,0 0.474362680709706,-0.41136264226397773 l 10.037703008887886 11.778276794918714"/><path fill="#ecff1a" stroke="none" d="M 86.37877921826538 84.01681056812374 l -15.817570384447134 -18.560393951301855 a45.38613861386139,45.38613861386139 0 0,0 0.598972678255275,-0.5016223925067252 l 15.495740169232748 18.82991750120239"/><path fill="#ff9a0e" stroke="none" d="M 88.09926311788651 82.69761687909137 l -8.769849951317012 -12.750412455436201 a36.475247524752476,36.475247524752476 0 0,0 0.5203720442273967,-0.3513575271530959 l 8.549073212683075 12.899481894887963"/><path fill="#ecff1a" stroke="none" d="M 88.39885842347998 82.49532879139004 l -13.481609503916344 -20.342062043838677 a45.40396039603961,45.40396039603961 0 0,0 0.6551855790468722,-0.426150925784632 l 13.129456899085184 20.571111893782845"/><line x1="56.763" x2="54.22" y1="26.818" y2="22.514" stroke="#e1ed5e" stroke-width=".3"/><path id="id60" fill="none" stroke="none" d="M 56.25429882871897 25.957352633546506 a86.0,86.0 0 0,1 42.265352541879196,-11.944610805530505"/><text fill="#e1ed5e" text-anchor="middle" style="font-size:6.75px;font-family:Arial"><textPath startOffset="22.206" xlink:href="#id60">December</textPath></text><path fill="#ff9a0e" stroke="none" d="M 89.94658935756843 81.56283822128135 l -7.408524674267112 -13.586649627598888 a36.475247524752476,36.475247524752476 0 0,0 0.553824445351119,-0.29583383855141276 l 7.1735551823876875 13.712162192652052"/><path fill="#80ff25" stroke="none" d="M 90.26544431104013 81.39251694778311 l -15.434847139072167 -29.503519804151537 a54.2970297029703,54.2970297029703 0 0,0 0.8318809458100989,-0.42612173087516336 l 14.924705705673304 29.764834060339208"/><path fill="#4dd2ff" stroke="none" d="M 90.58718382345135 81.22770947309562 l -28.23844852964592 -56.31687158071316 a84.0,84.0 0 0,0 1.298114931958296,-0.6369793594606907 l 27.264862330677197 56.79460610030868"/><path fill="#ff9a0e" stroke="none" d="M 92.91201910852362 80.23233633223022 l -5.223250416491083 -14.567118487847326 a36.475247524752476,36.475247524752476 0 0,0 0.5928408755449585,-0.20683054074190027 l 4.971727536882839 14.654869881761437"/><path fill="#ecff1a" stroke="none" d="M 94.98787191387505 79.60689891045804 l -5.820307155174801 -23.68138047314562 a45.38613861386139,45.38613861386139 0 0,0 0.7602746906948347,-0.17993245579738212 l 5.411808777517432 23.778058841083872"/><path fill="#ff9a0e" stroke="none" d="M 95.33964822691252 79.52364482259891 l -3.4342903448070423 -15.089364989287082 a36.475247524752476,36.475247524752476 0 0,0 0.6134047167460768,-0.13406651250109453 l 3.1740429039074445 15.146244999884045"/><path fill="#ff9a0e" stroke="none" d="M 97.11714578562143 79.19881850522333 l -2.1244229783468658 -15.32873487804618 a36.475247524752476,36.475247524752476 0 0,0 0.6226590005549515,-0.08083900870500726 l 1.8602492492840568 15.363032209915325"/><path fill="#a3ff22" stroke="none" d="M 97.47563105711357 79.15227682838746 l -3.645517242838814 -30.106825117703544 a51.32673267326733,51.32673267326733 0 0,0 0.8780129226806328,-0.09865498218218643 l 3.1267376166484633 30.16511605335633"/><path fill="#49efff" stroke="none" d="M 99.63851952072746 79.00311137660856 l -1.0333126571567257 -60.02080892202843 a81.02970297029702,81.02970297029702 0 0,0 1.3947931364292467,-0.012005424877155012 l 1.4703036719268122e-14 60.02970297029702"/></svg>