<?xml version="1.0" encoding="utf-8" ?>
<svg baseProfile="full" height="200mm" version="1.1" viewBox="0,0,200,200" width="200mm" xmlns="http://www.w3.org/2000/svg" xmlns:ev="http://www.w3.org/2001/xml-events" xmlns:xlink="http://www.w3.org/1999/xlink"><defs /><rect fill="#1a1a1a" height="200" width="200" x="0" y="0" /><rect fill="#1a1a1a" height="200" width="180" x="10" y="0" /><text alignment-baseline="middle" fill="#e1ed5e" style="dominant-baseline: central; font-size:9.0px; font-family:Arial;" text-anchor="middle" x="100.0" y="100.0">2025</text><line stroke="#e1ed5e" stroke-width="0.3" x1="100.0" x2="100.0" y1="15.0" y2="10.0" /><path d="M 100.0 14.0 a86.0,86.0 0 0,1 42.46469731375804,11.215312516191453" fill="none" id="id97" stroke="none" /><text fill="#e1ed5e" style="font-size:6.75px; font-family:Arial;" text-anchor="middle"><textPath startOffset="22.20632615414155" xlink:href="#id97">January</textPath></text><path d="M 100.0 79.0 l 0.0 -29.965197215777266 a50.965197215777266,50.965197215777266 0 0,0 0.8772820912275283,0.007551043927036142 l -0.515801611955 29.96075754845879" fill="#c3ff1e" stroke="none" /><path d="M 101.08401301168833 79.027996857942 l 0.792260089749011 -15.327566101504107 a36.34802784222738,36.34802784222738 0 0,0 0.6245594235861939,0.0376751300285224 l -1.0559815621748168 15.31165770209528" fill="#ff6909" stroke="none" /><path d="M 101.44485096284872 79.0497635885617 l 2.061678288055594 -29.894188846947927 a50.965197215777266,50.965197215777266 0 0,0 0.8746836703642487,0.06789228712497938 l -2.5759521477821843 29.854271297634483" fill="#c3ff1e" stroke="none" /><path d="M 103.59715602781102 79.31037775812273 l 2.629011946079987 -15.121185629214251 a36.34802784222738,36.34802784222738 0 0,0 0.6155017161420788,0.11247900443700477 l -2.888908783324967 15.073691143426508" fill="#ff6909" stroke="none" /><path d="M 103.95276090670814 79.375362276772 l 2.888908783324967 -15.073691143426508 a36.34802784222738,36.34802784222738 0 0,0 0.6134743817575975,0.12305718971323107 l -3.1479495745496897 15.021729997636069" fill="#ff6909" stroke="none" /><path d="M 106.0581310904928 79.89281104454417 l 8.981776721171443 -29.810890353912463 a52.13457076566125,52.13457076566125 0 0,0 0.8570293531311636,0.2662831918229768 l -9.493591447013324 29.651867027206965" fill="#b3ff20" stroke="none" /><path d="M 108.43124777332544 80.76684994638697 l 3.5516875770880874 -8.102020240682092 a29.84631090487239,29.84631090487239 0 0,0 0.4687546206774689,0.21031653442875547 l -3.6906243162323364 8.039683375736805" fill="#ff0000" stroke="none" /><path d="M 109.73455568895987 81.39251694778311 l 4.404265334912237 -8.418698828729223 a30.501160092807424,30.501160092807424 0 0,0 0.46311647534403066,0.24738078238956362 l -4.548526856784579 8.341639319837904" fill="#ff0b01" stroke="none" /><line stroke="#e1ed5e" stroke-width="0.3" x1="143.23703022742887" x2="145.7803849466894" y1="26.81831364943548" y2="22.513508569990506" /><path d="M 143.74570117128098 25.957352633546492 a86.0,86.0 0 0,1 28.547481713284135,27.462654790039103" fill="none" id="id98" stroke="none" /><text fill="#e1ed5e" style="font-size:6.75px; font-family:Arial;" text-anchor="middle"><textPath startOffset="19.985693538727396" xlink:href="#id98">February</textPath></text><path d="M 111.90073688211348 82.69761687909136 l 13.581750481610147 -19.746394917662506 a44.96631090487239,44.96631090487239 0 0,0 0.633958306034896,0.444128306983803 l -13.919639927228694 19.509681767914767" fill="#ffea15" stroke="none" /><path d="M 114.68862486808459 84.99185889309783 l 17.40959890397293 -17.78830348735478 a45.890116009280746,45.890116009280746 0 0,0 0.5597811832260069,0.5573773049273653 l -17.71321588736626 17.485990331777298" fill="#fff717" stroke="none" /><path d="M 114.94478906791727 85.2469230424477 l 10.922525652886172 -10.782411233477898 a36.34802784222738,36.34802784222738 0 0,0 0.43571893103823817,0.44904665921023895 l -11.106508847627518 10.592800378717543" fill="#ff6909" stroke="none" /><path d="M 116.38621287248628 86.86637796730983 l 14.362078363597258 -11.511269278582455 a39.40593967517401,39.40593967517401 0 0,0 0.41966560041490863,0.5329326948179598 l -14.55809804460613 11.262344189811458" fill="#ff980e" stroke="none" /><line stroke="#e1ed5e" stroke-width="0.3" x1="172.23445277983987" x2="176.4835382374775" y1="55.19839476539836" y2="52.563006222186495" /><path d="M 173.08426987136738 54.67131705675599 a86.0,86.0 0 0,1 12.851231095245387,41.99856678651699" fill="none" id="id99" stroke="none" /><text fill="#e1ed5e" style="font-size:6.75px; font-family:Arial;" text-anchor="middle"><textPath startOffset="22.20632615414155" xlink:href="#id99">March</textPath></text><path d="M 117.84615892207809 88.93136811851018 l 27.402756321650294 -16.99587141338738 a53.24547563805105,53.24547563805105 0 0,0 0.4763801754821682,0.7830437527594001 l -27.69125229541869 16.5216598874209" fill="#a5ff21" stroke="none" /><path d="M 118.03404312379186 89.2402003453031 l 12.77111517921984 -7.619735616256583 a35.87150812064965,35.87150812064965 0 0,0 0.3118093699801755,0.5329832877884343 l -12.900384223670343 7.398772916114253" fill="#ff6209" stroke="none" /><path d="M 119.04729006885535 91.15688171328212 l 21.629059641529437 -10.041760909247019 a44.84645011600928,44.84645011600928 0 0,0 0.31904551141669646,0.7029744933215512 l -21.79870746990948 9.667964407083405" fill="#ffe815" stroke="none" /><path d="M 119.196687751892 91.48605970444005 l 25.107129665293563 -11.135285718346035 a48.46566125290023,48.46566125290023 0 0,0 0.3316650369361612,0.7655286331315689 l -25.295085412072403 10.701457940627863" fill="#e4ff1a" stroke="none" /><path d="M 120.08093135843002 93.85539295169968 l 59.70885562200095 -18.27044017790902 a83.4416241299304,83.4416241299304 0 0,0 0.40844318552279674,1.3770673735988348 l -60.01450470463545 17.239943417563655" fill="#4cd8ff" stroke="none" /><path d="M 120.6074358757038 95.95851677861258 l 15.069725381216523 -2.955440096790928 a36.356798143851506,36.356798143851506 0 0,0 0.11515457664255498,0.6151603530370879 l -15.118365681768937 2.695601666291277" fill="#ff6909" stroke="none" /><path d="M 120.94382443527127 98.46500227214037 l 17.522837798976376 -1.2842695607104029 a38.56983758700696,38.56983758700696 0 0,0 0.04282980083736585,0.6625580620354925 l -17.542348190818156 0.9824524344218751" fill="#ff8c0c" stroke="none" /><line stroke="#e1ed5e" stroke-width="0.3" x1="184.98032266829074" x2="189.97916517819016" y1="98.17113171792111" y2="98.06355123074" /><path d="M 185.9800911702706 98.14961562048488 a86.0,86.0 0 0,1 -9.607161424134198,41.387399972396054" fill="none" id="id100" stroke="none" /><text fill="#e1ed5e" style="font-size:6.75px; font-family:Arial;" text-anchor="middle"><textPath startOffset="21.466115282336823" xlink:href="#id100">April</textPath></text><path d="M 120.9764740272857 100.99374915477107 l 23.594883082199797 1.1177948729304223 a44.621345707656616,44.621345707656616 0 0,0 -0.04295048690765816,0.7669097962413441 l -23.572146244404607 -1.5237763855071897" fill="#ffe515" stroke="none" /><path d="M 120.95626037817324 101.35467743843564 l 19.45869003096271 1.2578698627887317 a40.49930394431554,40.49930394431554 0 0,0 -0.050958618186084735,0.6952898583384792 l -19.434154854112286 -1.5926328576239812" fill="#ffa90f" stroke="none" /><path d="M 120.64145759157962 103.86396538481128 l 15.085984086653326 2.824011824166018 a36.34802784222738,36.34802784222738 0 0,0 -0.12041593967553264,0.6139982821515385 l -15.03513821400213 -3.0832738333855016" fill="#ff6909" stroke="none" /><path d="M 120.23288151984713 105.62410040840565 l 17.634998310315016 4.901971135549118 a39.30361948955917,39.30361948955917 0 0,0 -0.1867995534326196,0.6502737512980833 l -17.5480061199963 -5.204802362351783" fill="#ff970d" stroke="none" /><path d="M 120.13307415673323 105.97154293290107 l 14.260382548880555 4.229681268111463 a35.874431554524364,35.874431554524364 0 0,0 -0.18069306714427988,0.5905153982584023 l -14.185462709230142 -4.474523638921923" fill="#ff6209" stroke="none" /><path d="M 119.26925614724726 108.34839909993367 l 21.682607531999956 9.393982820152742 a44.63011600928074,44.63011600928074 0 0,0 -0.3114733995541732,0.7022902894186263 l -21.51769304771451 -9.765821446064056" fill="#ffe515" stroke="none" /><line stroke="#e1ed5e" stroke-width="0.3" x1="174.80103733775053" x2="179.2010983576182" y1="140.37084112569926" y2="142.7455964860345" /><path d="M 175.68104954172406 140.8457921977663 a86.0,86.0 0 0,1 -30.038265399797805,32.042727171017184" fill="none" id="id101" stroke="none" /><text fill="#e1ed5e" style="font-size:6.75px; font-family:Arial;" text-anchor="middle"><textPath startOffset="22.206326154141568" xlink:href="#id101">May</textPath></text><path d="M 118.48025628344425 109.97397251340804 l 13.511597123060216 7.292339253886647 a36.3538747099768,36.3538747099768 0 0,0 -0.30195111225067617,0.5481289763643381 l -13.384069601358032 -7.52383874864879" fill="#ff6909" stroke="none" /><path d="M 117.55443506779137 111.5257021239791 l 20.166013667667904 13.240384305393343 a45.12417633410673,45.12417633410673 0 0,0 -0.4318961578121133,0.6456261554889052 l -19.935114404445066 -13.585547375088055" fill="#ffec16" stroke="none" /><path d="M 117.14729908036423 112.12312394758627 l 23.91869189585842 16.910492151482288 a50.29280742459397,50.29280742459397 0 0,0 -0.505850344106503,0.7025818850425577 l -23.624061759376314 -17.319707641975977" fill="#cbff1d" stroke="none" /><path d="M 116.71984013943494 112.70617746262583 l 12.247767816293262 9.307643500000522 a36.383109048723895,36.383109048723895 0 0,0 -0.3832236042852063,0.4953681676003525 l -12.085737394789987 -9.517089661714127" fill="#ff6a09" stroke="none" /><path d="M 114.81725581225074 114.88116024355365 l 13.164323887765782 13.221099490630078 a39.65735498839907,39.65735498839907 0 0,0 -0.48787997856680637,0.47749324415141575 l -12.934793956823182 -13.445742837704065" fill="#ff9c0e" stroke="none" /><path d="M 113.20401910651253 116.32954008644616 l 12.935037000352022 15.996887274476332 a41.57220417633411,41.57220417633411 0 0,0 -0.5603190906350388,0.44515137330057175 l -12.657760416999631 -16.217172561782032" fill="#ffb911" stroke="none" /><path d="M 112.92097659922987 116.55440617244103 l 13.060679037634545 16.733393487437727 a42.22705336426914,42.22705336426914 0 0,0 -0.5768442138371895,0.4422995452712071 l -12.770706095303861 -16.955732374536307" fill="#ffc212" stroke="none" /><path d="M 111.1453310114006 117.79835938074945 l 7.760874114017513 12.39360468062767 a35.623016241299304,35.623016241299304 0 0,0 -0.5225061887366368,0.32096597710542035 l -7.546388725348568 -12.525359124561469" fill="#ff5e08" stroke="none" /><line stroke="#e1ed5e" stroke-width="0.3" x1="143.8653032363475" x2="146.44561519142675" y1="172.8068346515853" y2="177.08958963109032" /><path d="M 144.38136562736335 173.6633856474863 a86.0,86.0 0 0,1 -40.68145358897372,12.25698825130547" fill="none" id="id102" stroke="none" /><text fill="#e1ed5e" style="font-size:6.75px; font-family:Arial;" text-anchor="middle"><textPath startOffset="21.466115282336833" xlink:href="#id102">June</textPath></text><path d="M 108.92500713936063 119.00905698771935 l 10.24035853957452 21.810577405027782 a45.09494199535963,45.09494199535963 0 0,0 -0.7054824606898793,0.3238523959731033 l -9.863408083117223 -21.98361687133496" fill="#ffeb16" stroke="none" /><path d="M 108.59647513512805 119.15986991738527 l 8.439305241706217 18.809568815415446 a41.61605568445476,41.61605568445476 0 0,0 -0.656105506638792,0.2876173729469617 l -8.114279060409672 -18.952050741656862" fill="#ffb911" stroke="none" /><path d="M 106.57524785965236 119.94407469862006 l 4.8055755818805 14.57629589342302 a36.34802784222738,36.34802784222738 0 0,0 -0.5958976254342424,0.19078760183725962 l -4.553956611355317 -14.656856341919985" fill="#ff6909" stroke="none" /><path d="M 104.13013068566511 120.58985236759428 l 4.646828241514438 23.165733666110935 a44.62719257540603,44.62719257540603 0 0,0 -0.7544808873816345,0.14459805774633658 l -4.247379739561099 -23.242288922205738" fill="#ffe515" stroke="none" /><path d="M 101.62511606390274 120.93702456842531 l 2.264604890904829 29.175816602775516 a50.26357308584687,50.26357308584687 0 0,0 -0.8631864871936322,0.05953039396055738 l -1.7620556429322662 -29.21047534125236" fill="#ccff1d" stroke="none" /><line stroke="#e1ed5e" stroke-width="0.3" x1="102.19456741930631" x2="102.32365962044197" y1="184.97166512339345" y2="189.96999836594603" /><path d="M 102.22038585953345 185.97133177190398 a86.0,86.0 0 0,1 -42.740103519485714,-10.115201625700543" fill="none" id="id103" stroke="none" /><text fill="#e1ed5e" style="font-size:6.75px; font-family:Arial;" text-anchor="middle"><textPath startOffset="22.20632615414155" xlink:href="#id103">July</textPath></text><path d="M 99.09653310690486 120.98055641714683 l -0.6420693952553143 14.910311903879519 a35.92412993039443,35.92412993039443 0 0,0 -0.6175733112731662,-0.03192148601909175 l 0.8986307749419693 -14.897050611098226" fill="#ff6309" stroke="none" /><path d="M 96.58105272829116 120.7198165907248 l -3.850004336081604 23.332147991049595 a44.647656612529005,44.647656612529005 0 0,0 -0.7572051820911874,-0.13164982681684734 l 4.251058489644842 -23.262419585711744" fill="#ffe515" stroke="none" /><path d="M 96.22490169976321 120.6578951692458 l -4.255788311181101 23.288301867362303 a44.673967517401394,44.673967517401394 0 0,0 -0.7552716787737918,-0.14474961479873907 l 4.656027604526588 -23.211595054215096" fill="#ffe515" stroke="none" /><path d="M 94.11515582081647 120.15858648285463 l -6.6251603077109875 22.694546016730218 a44.64180974477958,44.64180974477958 0 0,0 -0.7357927399497863,-0.22168831674698863 l 7.01482802210102 -22.577142330877507" fill="#ffe515" stroke="none" /><path d="M 91.7346041902142 119.30500536409082 l -6.040834524553425 14.109226658210233 a36.34802784222738,36.34802784222738 0 0,0 -0.5730514540726764,-0.25120891703558856 l 6.282806653283845 -14.00315318788019" fill="#ff6909" stroke="none" /><path d="M 91.40352486487194 119.15986991738527 l -7.787090074841518 17.355908151149787 a40.02278422273782,40.02278422273782 0 0,0 -0.6261316912221029,-0.2874263496199179 l 8.08468976183104 -17.219294731195795" fill="#ffa10e" stroke="none" /><line stroke="#e1ed5e" stroke-width="0.3" x1="58.666819895761336" x2="56.23545636021788" y1="174.27360380694188" y2="178.64263932499728" /><path d="M 58.180547188652646 175.14741091055294 a86.0,86.0 0 0,1 -31.652253787137756,-30.449443065178592" fill="none" id="id104" stroke="none" /><text fill="#e1ed5e" style="font-size:6.75px; font-family:Arial;" text-anchor="middle"><textPath startOffset="22.20632615414155" xlink:href="#id104">August</textPath></text><path d="M 89.4739219176387 118.17145234162733 l -11.895689355815627 20.535849203155077 a44.73243619489559,44.73243619489559 0 0,0 -0.662960540524972,-0.39168877296648363 l 12.247417767368981 -20.328041857894846" fill="#ffe615" stroke="none" /><path d="M 89.1626897886671 117.98757091392108 l -12.22478765323859 20.290480804942344 a44.688584686774945,44.688584686774945 0 0,0 -0.6554768385291998,-0.4026474106597405 l 12.572243691700098 -20.077044927454228" fill="#ffe615" stroke="none" /><path d="M 87.07902340077011 116.55440617244103 l -9.443405171130891 12.098927945055513 a36.34802784222738,36.34802784222738 0 0,0 -0.4899065207258721,-0.3892113692625813 l 9.650269184574121 -11.934582661787802" fill="#ff6909" stroke="none" /><path d="M 85.44109423537348 115.13401014063109 l -10.679008047399135 11.100849108721839 a36.403573085846865,36.403573085846865 0 0,0 -0.44785070668665683,-0.4383161765717623 l 10.868508706461586 -10.915382829227504" fill="#ff6a09" stroke="none" /><path d="M 83.72743513129214 113.27417163493432 l -18.679847318890715 15.237886677726467 a45.10663573085847,45.10663573085847 0 0,0 -0.4856096374387284,-0.6058726885999777 l 18.939374868384302 -14.91408615554823" fill="#ffec16" stroke="none" /><path d="M 83.50135304334701 112.99209946851258 l -18.925594095984312 14.903234285922556 a45.08909512761021,45.08909512761021 0 0,0 -0.47492383143016115,-0.6139030725002227 l 19.17932474463254 -14.57525321930908" fill="#ffeb16" stroke="none" /><path d="M 82.05923443525364 110.91462005526583 l -17.532831684155845 10.666445399716862 a41.52250580046404,41.52250580046404 0 0,0 -0.366226769675097,-0.6138171312998982 l 17.713839329529176 -10.363066174530854" fill="#ffb811" stroke="none" /><line stroke="#e1ed5e" stroke-width="0.3" x1="26.63291911575756" x2="22.317208475507996" y1="142.92168965132927" y2="145.44649492493687" /><path d="M 25.769776987707644 143.4266507060508 a86.0,86.0 0 0,1 -11.730757126820373,-40.83630448921669" fill="none" id="id105" stroke="none" /><text fill="#e1ed5e" style="font-size:6.75px; font-family:Arial;" text-anchor="middle"><textPath startOffset="21.46611528233685" xlink:href="#id105">September</textPath></text><path d="M 81.02952815118164 109.00673069616217 l -26.48031386006057 12.572225803770491 a50.31327146171694,50.31327146171694 0 0,0 -0.36471223934769875,-0.7855577172309456 l 26.692800716248097 -12.11454801926072" fill="#cbff1d" stroke="none" /><path d="M 80.87730276802145 108.67885076344099 l -19.35074981613717 8.782352603172052 a42.25044083526682,42.25044083526682 0 0,0 -0.29486565611628296,-0.6648442122824216 l 19.499056556984733 -8.447960054396935" fill="#ffc212" stroke="none" /><path d="M 80.0844068197444 106.66101706037122 l -27.79680796639109 9.296987059946435 a50.310348027842224,50.310348027842224 0 0,0 -0.26762170137044455,-0.8236549044986526 l 27.952721918777783 -8.81713325546998" fill="#cbff1d" stroke="none" /><path d="M 79.97269907076064 106.31721596034903 l -22.97331224922491 7.24647696240501 a45.08909512761021,45.08909512761021 0 0,0 -0.2271056722107354,-0.7421944770309395 l 23.094644693941778 -6.849955512822023" fill="#ffeb16" stroke="none" /><path d="M 79.4281124754447 104.21870165774334 l -19.09319361385756 3.915464123272602 a40.49053364269142,40.49053364269142 0 0,0 -0.13413948282728924,-0.6839743330208542 l 19.157763029660515 -3.586226063183793" fill="#ffa80f" stroke="none" /><path d="M 79.07016306316243 101.71520430193888 l -30.115655857886747 2.4679839904650027 a51.21661252900232,51.21661252900232 0 0,0 -0.06444376936055048,-0.8792840321115198 l 30.153676185911632 -1.9492268218567221" fill="#bfff1e" stroke="none" /><line stroke="#e1ed5e" stroke-width="0.3" x1="15.007084014347285" x2="10.007500721073583" y1="101.09737516637583" y2="101.16192664675087" /><path d="M 14.007167355692545 101.11028546245083 a86.0,86.0 0 0,1 10.666146001902534,-42.60595125391555" fill="none" id="id106" stroke="none" /><text fill="#e1ed5e" style="font-size:6.75px; font-family:Arial;" text-anchor="middle"><textPath startOffset="22.20632615414155" xlink:href="#id106">October</textPath></text><path d="M 79.00175016825051 100.2711162175752 l -23.736304682200355 0.30646826265113586 a44.73828306264501,44.73828306264501 0 0,0 -0.0033142603915970606,-0.7701173946946294 l 23.738063239881456 0.10215861024716887" fill="#ffe615" stroke="none" /><path d="M 79.01574976396665 99.18683210126434 l -29.335105457574983 -1.1367747618241444 a50.35712296983759,50.35712296983759 0 0,0 0.041020413035996094,-0.8658760860394146 l 29.31119143630549 1.641561954486568" fill="#cbff1d" stroke="none" /><path d="M 79.08570108090925 98.10471618934814 l -23.539504421463878 -2.1331837042858814 a44.63596287703017,44.63596287703017 0 0,0 0.07592975675756454,-0.7646022884493536 l 23.499297539024084 2.5380615234396653" fill="#ffe515" stroke="none" /><path d="M 79.12142395522702 97.74499172005258 l -14.747734782066566 -1.5928415794598467 a35.833503480278424,35.833503480278424 0 0,0 0.07151283245253033,-0.612678276302468 l 14.718131596610446 1.8464635940871763" fill="#ff6109" stroke="none" /><path d="M 79.32604984820605 96.31383870115002 l -30.515901641689712 -5.440979338984645 a51.99716937354988,51.99716937354988 0 0,0 0.1646930514103802,-0.8797968661101895 l 30.417722866369473 5.965454282557407" fill="#b5ff1f" stroke="none" /><path d="M 79.62865764111835 94.90015583598534 l -14.426313491363935 -3.61154161424722 a35.87150812064965,35.87150812064965 0 0,0 0.1551078342237641,-0.5976937577318224 l 14.362009325269863 3.8593317975279064" fill="#ff6209" stroke="none" /><path d="M 79.91906864156998 93.8553929516997 l -60.09183765394132 -18.38762966732205 a83.84213457076567,83.84213457076567 0 0,0 0.43416058874947927,-1.376407711415506 l 59.766421581423636 19.41928754516397" fill="#4dd4ff" stroke="none" /><path d="M 80.803312248108 91.48605970444005 l -20.27811600854151 -8.993565516850417 a43.1830162412993,43.1830162412993 0 0,0 0.30721155109447956,-0.6768999304024347 l 20.12030214048368 9.341287456094923" fill="#ffd013" stroke="none" /><line stroke="#e1ed5e" stroke-width="0.3" x1="26.266209847984257" x2="21.92892807433627" y1="57.711370442889674" y2="55.22380399835377" /><path d="M 25.39875349325466 57.213857153982495 a86.0,86.0 0 0,1 29.58750427330802,-30.492523968695096" fill="none" id="id107" stroke="none" /><text fill="#e1ed5e" style="font-size:6.75px; font-family:Arial;" text-anchor="middle"><textPath startOffset="21.46611528233685" xlink:href="#id107">November</textPath></text><path d="M 81.96595687620814 89.24020034530311 l -12.828857591077922 -7.654186946937511 a35.93874709976798,35.93874709976798 0 0,0 0.32153918140158855,-0.5285258711890066 l 12.695202611390114 7.8738805913335925" fill="#ff6309" stroke="none" /><path d="M 83.17141714833178 87.43820079747576 l -14.133666869250254 -10.550162587771975 a38.63707656612529,38.63707656612529 0 0,0 0.4024218211626086,-0.5295399452943469 l 13.949969107863534 10.79188730894735" fill="#ff8d0c" stroke="none" /><path d="M 83.39014120810768 87.1503855733568 l -18.773379609936022 -14.523343786067219 a44.7353596287703,44.7353596287703 0 0,0 0.47642288733979443,-0.6050086854198347 l 18.520602642002256 14.844344865440101" fill="#ffe615" stroke="none" /><path d="M 84.80347519578584 85.50635884689758 l -13.750915716110258 -13.11489570698362 a40.00232018561485,40.00232018561485 0 0,0 0.479524453595684,-0.49419210081983406 l 13.523126998811456 13.34965200335358" fill="#ffa10e" stroke="none" /><path d="M 85.05521093208273 85.24692304244772 l -20.842259426783563 -20.574894426091717 a50.28696055684455,50.28696055684455 0 0,0 0.6134151910981889,-0.6107809913249019 l 20.485008435518065 20.93061126806673" fill="#ccff1d" stroke="none" /><path d="M 86.65592168130627 83.78471172551755 l -11.610276959420295 -14.10842947315758 a39.27146171693735,39.27146171693735 0 0,0 0.5256702105731151,-0.42505541903737293 l 11.365703350282681 14.306190989459086" fill="#ff960d" stroke="none" /><path d="M 86.93701828274178 83.55741782278169 l -18.42516901521026 -23.192052336831914 a50.62023201856148,50.62023201856148 0 0,0 0.6869103893126902,-0.5361444544506042 l 18.023226070738144 23.50577518050574" fill="#c7ff1e" stroke="none" /><path d="M 88.70189139769569 82.29822771554957 l -11.052224011377135 -17.316522576728513 a41.54296983758701,41.54296983758701 0 0,0 0.6060938243721087,-0.3795358972186618 l 10.752511034632784 17.504202815270105" fill="#ffb811" stroke="none" /><path d="M 89.00827224532344 82.1063720568725 l -10.735679154544414 -17.47680190009037 a41.510812064965194,41.510812064965194 0 0,0 0.6120629560677763,-0.3687610826116815 l 10.433254132258988 17.65900959216067" fill="#ffb811" stroke="none" /><line stroke="#e1ed5e" stroke-width="0.3" x1="56.762969772571076" x2="54.21961505331055" y1="26.818313649435495" y2="22.513508569990535" /><path d="M 56.25429882871897 25.957352633546506 a86.0,86.0 0 0,1 42.265352541879196,-11.944610805530505" fill="none" id="id108" stroke="none" /><text fill="#e1ed5e" style="font-size:6.75px; font-family:Arial;" text-anchor="middle"><textPath startOffset="22.20632615414155" xlink:href="#id108">December</textPath></text><path d="M 90.91171255644093 81.06846463323043 l -10.322691960835048 -21.502885901272325 a44.852296983758706,44.852296983758706 0 0,0 0.6988880403022238,-0.32813730598739543 l 9.951025709233216 21.677388189899727" fill="#ffe815" stroke="none" /><path d="M 91.23893434514133 80.91482961587045 l -13.467241804308511 -29.33713940346522 a53.28055684454756,53.28055684454756 0 0,0 0.8368038278752038,-0.3754494853214972 l 12.960255857966533 29.564609219303247" fill="#a5ff21" stroke="none" /><path d="M 92.91201910852362 80.23233633223022 l -9.929422511961972 -27.69215770145253 a50.41851508120649,50.41851508120649 0 0,0 0.8194641202677346,-0.2858949409616202 l 9.451276387630951 27.858973495586362" fill="#caff1d" stroke="none" /><path d="M 93.25333710446033 80.11325718540243 l -5.782719737518013 -17.045384061644164 a38.99958236658932,38.99958236658932 0 0,0 0.6375822167534355,-0.2102008325485519 l 5.488454698522168 17.142398618451946" fill="#ff920d" stroke="none" /><path d="M 93.59665428221793 80.00007090966166 l -19.21003715334623 -59.99978727101503 a84.0,84.0 0 0,0 1.380858509157085,-0.42903946046989905 l 18.17439327147842 60.321566866367455" fill="#4dd2ff" stroke="none" /><path d="M 95.692805502759 79.44645832069477 l -4.2080590693694715 -20.080476404459034 a41.51665893271462,41.51665893271462 0 0,0 0.7007094520214441,-0.14055572414322587 l 3.861783207880891 20.14993608467947" fill="#ffb811" stroke="none" /><path d="M 96.04723909329186 79.375362276772 l -3.87223830633483 -20.204488490722348 a41.57220417633411,41.57220417633411 0 0,0 0.7039656491243373,-0.12864522274228507 l 3.523877536107599 20.26814919481537" fill="#ffb911" stroke="none" /><path d="M 98.19473922651362 79.07773832637324 l -1.7694906412228688 -20.50769992259945 a41.58389791183295,41.58389791183295 0 0,0 0.7136783224752258,-0.05539517339358482 l 1.4162221293853088 20.535120358181498" fill="#ffb911" stroke="none" /><path d="M 98.55514903715128 79.0497635885617 l -2.067109050375347 -29.972934515130127 a51.04412993039443,51.04412993039443 0 0,0 0.8770790125165526,-0.05290780123388259 l 1.5508679890191714 30.004075585744317" fill="#c2ff1e" stroke="none" /></svg>