<svg xmlns="http://www.w3.org/2000/svg" xmlns:ev="http://www.w3.org/2001/xml-events" xmlns:xlink="http://www.w3.org/1999/xlink" width="200mm" height="200mm" baseProfile="full" version="1.1" viewBox="0 0 200 200"><rect width="200" height="200" x="0" y="0" fill="#1a1a1a"/><rect width="180" height="200" x="10" y="0" fill="#1a1a1a"/><text style="dominant-baseline:central;font-size:9px;font-family:Arial" x="100" y="100" fill="#e1ed5e" alignment-baseline="middle" text-anchor="middle">2026</text><line x1="100" x2="100" y1="15" y2="10" stroke="#e1ed5e" stroke-width=".3"/><path id="id109" fill="none" stroke="none" d="M 100.0 14.0 a86.0,86.0 0 0,1 42.46469731375804,11.215312516191453"/><text fill="#e1ed5e" text-anchor="middle" style="font-size:6.75px;font-family:Arial"><textPath startOffset="22.206" xlink:href="#id109">January</textPath></text><path fill="red" stroke="none" d="M 100.0 79.0 l 0.0 -58.05460750853243 a79.05460750853243,79.05460750853243 0 0,0 1.3607951148040915,0.011712793171469053 l -0.9993146355315632 58.04600609196952"/><path fill="red" stroke="none" d="M 100.72285384407766 79.0124445844662 l 1.9566525195628288 -56.81003638524858 a77.8437219328184,77.8437219328184 0 0,0 1.3387606579510967,0.05764985008922523 l -2.934254009903257 56.767938808635165"/><path fill="red" stroke="none" d="M 101.08401301168833 79.027996857942 l 2.933085682604868 -56.74533560783538 a77.8210885575714,77.8210885575714 0 0,0 1.3371810548659613,0.0806624129125789 l -3.909428786310441 56.6864399255425"/><path fill="red" stroke="none" d="M 103.2404852339499 79.25152402106235 l 7.480124932436367 -47.894429776780726 a69.47503143524341,69.47503143524341 0 0,0 1.179986410263565,0.1947078682071965 l -8.303440548838807 47.758575645633904"/><path fill="red" stroke="none" d="M 103.59715602781102 79.31037775812273 l 9.731124443835837 -55.97012950649753 a77.80977186994791,77.80977186994791 0 0,0 1.3175968810868446,0.24078240815130525 l -10.693116446025583 55.794331616995485"/><path fill="red" stroke="none" d="M 105.71112130821622 79.79150937346287 l 15.789962927143863 -55.87192086911193 a79.06026585234417,79.06026585234417 0 0,0 1.306413601911901,0.3813779546178108 l -16.74936674677919 55.591844585575416"/><path fill="red" stroke="none" d="M 106.0581310904928 79.89281104454417 l 13.2545422457701 -43.99237676979556 a66.94575175139212,66.94575175139212 0 0,0 1.1005072733075054,0.3419329668115515 l -14.009834891788325 43.75770366810149"/><path fill="red" stroke="none" d="M 108.09893153111575 80.62456947434976 l 11.666127527935545 -27.909390584729525 a51.249506017603736,51.249506017603736 0 0,0 0.8110020597558428,0.3472287575170691 l -12.144813345481705 27.704442299249667"/><path fill="red" stroke="none" d="M 110.36928655335952 81.73862282372117 l 14.77162331802006 -26.014343757226378 a50.91566373271061,50.91566373271061 0 0,0 0.7584088563946885,0.43931936152825696 l -15.217228906880077 25.756220238308074"/><line x1="143.237" x2="145.78" y1="26.818" y2="22.514" stroke="#e1ed5e" stroke-width=".3"/><path id="id110" fill="none" stroke="none" d="M 143.74570117128098 25.957352633546492 a86.0,86.0 0 0,1 28.547481713284135,27.462654790039103"/><text fill="#e1ed5e" text-anchor="middle" style="font-size:6.75px;font-family:Arial"><textPath startOffset="19.986" xlink:href="#id110">February</textPath></text><path fill="red" stroke="none" d="M 110.68208982089419 81.91981866633111 l 15.139516559521317 -25.62468667552496 a50.76288844979342,50.76288844979342 0 0,0 0.74848170916279,0.45095185495157597 l -15.578360334901745 25.36028821111477"/><path fill="red" stroke="none" d="M 111.90073688211348 82.69761687909136 l 20.842856942806957 -30.30325766640187 a57.779234776360695,57.779234776360695 0 0,0 0.8146015331412284,0.5706804317199207 l -21.361389615531838 29.939992391918015"/><path fill="red" stroke="none" d="M 114.16331599549186 84.49514656593476 l 6.354029405198654 -6.955877753112616 a30.421142446560086,30.421142446560086 0 0,0 0.38358469932395506,0.3565001734508823 l -6.472821988317456 6.845472993587093"/><path fill="red" stroke="none" d="M 115.19652480421416 85.50635884689758 l 12.320731938893587 -11.750862106076474 a38.02595652954913,38.02595652954913 0 0,0 0.44767900321119963,0.47755274710989193 l -12.52117826407525 11.537039942088528"/><path fill="red" stroke="none" d="M 115.4437574822437 85.77008943001954 l 21.888134818556267 -20.167773378326903 a50.76288844979342,50.76288844979342 0 0,0 0.5865684620495794,0.6477035462032834 l -22.232046921221883 19.788017044854072"/><path fill="red" stroke="none" d="M 116.38621287248628 86.86637796730983 l 27.63904057349492 -22.15281316453399 a56.42123226154123,56.42123226154123 0 0,0 0.600875160150185,0.7630504335628535 l -28.01626981423907 21.673770337018098"/><path fill="red" stroke="none" d="M 117.04232023915458 87.72973835380427 l 28.754897432437396 -20.70317363799471 a56.43254894916472,56.43254894916472 0 0,0 0.5607981332376346,0.7932091889772542 l -29.10700818547891 20.205137948685664"/><line x1="172.234" x2="176.484" y1="55.198" y2="52.563" stroke="#e1ed5e" stroke-width=".3"/><path id="id111" fill="none" stroke="none" d="M 173.08426987136738 54.67131705675599 a86.0,86.0 0 0,1 12.851231095245387,41.99856678651699"/><text fill="#e1ed5e" text-anchor="middle" style="font-size:6.75px;font-family:Arial"><textPath startOffset="22.206" xlink:href="#id111">March</textPath></text><path fill="red" stroke="none" d="M 118.03404312379186 89.2402003453031 l 30.43791435084396 -18.160423487611293 a56.44386563678822,56.44386563678822 0 0,0 0.4906324574996394,0.8386499107146873 l -30.746006482813925 17.63379416454271"/><path fill="red" stroke="none" d="M 118.89224826269711 90.83032412892265 l 39.287867457741044 -19.069038541308128 a64.6710975390695,64.6710975390695 0 0,0 0.4774630366044425,1.005658923344454 l -39.61028868818725 18.389937202323136"/><path fill="red" stroke="none" d="M 119.04729006885535 91.15688171328212 l 27.077466068784133 -12.57130197971714 a50.85342195078139,50.85342195078139 0 0,0 0.361780162568191,0.7971346324411984 l -27.28984854831567 12.103345338433877"/><path fill="red" stroke="none" d="M 119.85752413597 93.16781622104841 l 41.52530397501252 -14.28720450200554 a64.91440632297467,64.91440632297467 0 0,0 0.3544410239138665,1.059733547397406 l -41.76508229269815 13.57029785168582"/><path fill="red" stroke="none" d="M 119.97218684219823 93.5106431181261 l 28.3115704086954 -9.198986857069851 a50.768546793605175,50.768546793605175 0 0,0 0.2628952886124658,0.8334499075175208 l -28.465721181076074 8.71028678312591"/><path fill="red" stroke="none" d="M 120.53481517161879 95.60439243477599 l 29.186586140728167 -6.247574072181614 a50.84776360696964,50.84776360696964 0 0,0 0.17583811401361582,0.8574490915655273 l -29.289803550656778 5.744249324452674"/><path fill="red" stroke="none" d="M 120.6074358757038 95.95851677861258 l 39.76750199617135 -7.7991115946407685 a61.52505837973774,61.52505837973774 0 0,0 0.19487117712056673,1.0410096203674513 l -39.89585889720178 7.113423896810755"/><path fill="red" stroke="none" d="M 120.91429891909075 98.10471618934814 l 38.19573865823527 -3.461352703951411 a59.352254356026585,59.352254356026585 0 0,0 0.08344790220658696,1.01827577270576 l -38.24966104426135 2.8033630140378825"/><path fill="red" stroke="none" d="M 120.94382443527127 98.46500227214037 l 56.8666028833021 -4.167820757223331 a78.01913059098257,78.01913059098257 0 0,0 0.08663619122528762,1.3402235321693188 l -56.9299196655318 3.188338160800977"/><line x1="184.98" x2="189.979" y1="98.171" y2="98.064" stroke="#e1ed5e" stroke-width=".3"/><path id="id112" fill="none" stroke="none" d="M 185.9800911702706 98.14961562048488 a86.0,86.0 0 0,1 -9.607161424134198,41.387399972396054"/><text fill="#e1ed5e" text-anchor="middle" style="font-size:6.75px;font-family:Arial"><textPath startOffset="21.466" xlink:href="#id112">April</textPath></text><path fill="red" stroke="none" d="M 120.9764740272857 100.99374915477107 l 49.002882113319664 2.3214851370213196 a70.05784084785341,70.05784084785341 0 0,0 -0.0674345053559917,1.2040883930696098 l -48.955661257076144 -3.164645246426353"/><path fill="red" stroke="none" d="M 120.95626037817324 101.35467743843564 l 30.508354991001433 1.9721543559909558 a51.57203161487336,51.57203161487336 0 0,0 -0.06489097866364424,0.8853858477428427 l -30.46988745367345 -2.497013340230569"/><path fill="red" stroke="none" d="M 120.76222939487914 103.15116336523771 l 56.24486824217217 8.536499858298871 a77.88898868331238,77.88898868331238 0 0,0 -0.21259334218575832,1.3238189447269093 l -56.08959314562512 -9.503398032718986"/><path fill="red" stroke="none" d="M 120.70491114924044 103.5080841355445 l 39.35309230646902 6.667691438512008 a60.913957248068975,60.913957248068975 0 0,0 -0.184057490408978,1.032292152534577 l -39.232488373720855 -7.344102341779803"/><path fill="red" stroke="none" d="M 120.23288151984713 105.62410040840565 l 39.59531663696327 11.006244278673513 a62.09655110472427,62.09655110472427 0 0,0 -0.2951282392490524,1.0273801180135305 l -39.39999576082812 -11.686181872191625"/><path fill="red" stroke="none" d="M 120.13307415673323 105.97154293290107 l 54.45911571567581 16.15277155650994 a77.80411352613615,77.80411352613615 0 0,0 -0.3918853428551751,1.2807039747849012 l -54.173003600314495 -17.0878025038469"/><path fill="red" stroke="none" d="M 119.41010516605496 108.01547362559984 l 38.37740750184425 15.848090209624102 a62.52092689060535,62.52092689060535 0 0,0 -0.41933386702329295,0.9911813924212334 l -38.09892265362865 -16.5063461277115"/><path fill="red" stroke="none" d="M 119.26925614724726 108.34839909993367 l 37.714714384840356 16.339888017402064 a62.102209448536016,62.102209448536016 0 0,0 -0.4334110691699397,0.977227543797536 l -37.42786223093914 -16.986663897692285"/><line x1="174.801" x2="179.201" y1="140.371" y2="142.746" stroke="#e1ed5e" stroke-width=".3"/><path id="id113" fill="none" stroke="none" d="M 175.68104954172406 140.8457921977663 a86.0,86.0 0 0,1 -30.038265399797805,32.042727171017184"/><text fill="#e1ed5e" text-anchor="middle" style="font-size:6.75px;font-family:Arial"><textPath startOffset="22.206" xlink:href="#id113">May</textPath></text><path fill="red" stroke="none" d="M 118.48025628344425 109.97397251340804 l 55.44076885033275 29.921917540224147 a84.0,84.0 0 0,0 -0.6976943621939617,1.2665179264087798 l -54.91749807868728 -30.871805985030733"/><line x1="143.865" x2="146.446" y1="172.807" y2="177.09" stroke="#e1ed5e" stroke-width=".3"/><path id="id114" fill="none" stroke="none" d="M 144.38136562736335 173.6633856474863 a86.0,86.0 0 0,1 -40.68145358897372,12.25698825130547"/><text fill="#e1ed5e" text-anchor="middle" style="font-size:6.75px;font-family:Arial"><textPath startOffset="21.466" xlink:href="#id114">June</textPath></text><line x1="102.195" x2="102.324" y1="184.972" y2="189.97" stroke="#e1ed5e" stroke-width=".3"/><path id="id115" fill="none" stroke="none" d="M 102.22038585953345 185.97133177190398 a86.0,86.0 0 0,1 -42.740103519485714,-10.115201625700543"/><text fill="#e1ed5e" text-anchor="middle" style="font-size:6.75px;font-family:Arial"><textPath startOffset="22.206" xlink:href="#id115">July</textPath></text><line x1="58.667" x2="56.235" y1="174.274" y2="178.643" stroke="#e1ed5e" stroke-width=".3"/><path id="id116" fill="none" stroke="none" d="M 58.180547188652646 175.14741091055294 a86.0,86.0 0 0,1 -31.652253787137756,-30.449443065178592"/><text fill="#e1ed5e" text-anchor="middle" style="font-size:6.75px;font-family:Arial"><textPath startOffset="22.206" xlink:href="#id116">August</textPath></text><line x1="26.633" x2="22.317" y1="142.922" y2="145.446" stroke="#e1ed5e" stroke-width=".3"/><path id="id117" fill="none" stroke="none" d="M 25.769776987707644 143.4266507060508 a86.0,86.0 0 0,1 -11.730757126820373,-40.83630448921669"/><text fill="#e1ed5e" text-anchor="middle" style="font-size:6.75px;font-family:Arial"><textPath startOffset="21.466" xlink:href="#id117">September</textPath></text><line x1="15.007" x2="10.008" y1="101.097" y2="101.162" stroke="#e1ed5e" stroke-width=".3"/><path id="id118" fill="none" stroke="none" d="M 14.007167355692545 101.11028546245083 a86.0,86.0 0 0,1 10.666146001902534,-42.60595125391555"/><text fill="#e1ed5e" text-anchor="middle" style="font-size:6.75px;font-family:Arial"><textPath startOffset="22.206" xlink:href="#id118">October</textPath></text><line x1="26.266" x2="21.929" y1="57.711" y2="55.224" stroke="#e1ed5e" stroke-width=".3"/><path id="id119" fill="none" stroke="none" d="M 25.398753493254645 57.213857153982495 a86.0,86.0 0 0,1 29.58750427330803,-30.492523968695096"/><text fill="#e1ed5e" text-anchor="middle" style="font-size:6.75px;font-family:Arial"><textPath startOffset="21.466" xlink:href="#id119">November</textPath></text><line x1="56.763" x2="54.22" y1="26.818" y2="22.514" stroke="#e1ed5e" stroke-width=".3"/><path id="id120" fill="none" stroke="none" d="M 56.25429882871897 25.957352633546506 a86.0,86.0 0 0,1 42.265352541879196,-11.944610805530505"/><text fill="#e1ed5e" text-anchor="middle" style="font-size:6.75px;font-family:Arial"><textPath startOffset="22.206" xlink:href="#id120">December</textPath></text></svg>