<svg xmlns="http://www.w3.org/2000/svg" xmlns:ev="http://www.w3.org/2001/xml-events" xmlns:xlink="http://www.w3.org/1999/xlink" width="200mm" height="200mm" baseProfile="full" version="1.1" viewBox="0 0 200 200"><rect width="200" height="200" x="0" y="0" fill="#1a1a1a"/><rect width="180" height="200" x="10" y="0" fill="#1a1a1a"/><text style="dominant-baseline:central;font-size:9px;font-family:Arial" x="100" y="100" fill="#e1ed5e" alignment-baseline="middle" text-anchor="middle">2022</text><line x1="100" x2="100" y1="15" y2="10" stroke="#e1ed5e" stroke-width=".3"/><path id="id61" fill="none" stroke="none" d="M 100.0 14.0 a86.0,86.0 0 0,1 42.46469731375804,11.215312516191453"/><text fill="#e1ed5e" text-anchor="middle" style="font-size:6.75px;font-family:Arial"><textPath startOffset="22.206" xlink:href="#id61">January</textPath></text><path fill="#97ff23" stroke="none" d="M 100.0 79.0 l 0.0 -30.14890428919273 a51.14890428919273,51.14890428919273 0 0,0 0.8804443065105747,0.007578262112324317 l -0.5189638272380463 30.14443740368896"/><path fill="#ffb110" stroke="none" d="M 102.16513564639614 79.11191278185805 l 1.5900911911442657 -15.34036148760715 a36.42255103952051,36.42255103952051 0 0,0 0.6230568131672494,0.07000769261326774 l -1.8539147078212403 15.310717841523282"/><path fill="#ffb110" stroke="none" d="M 102.88285421437855 79.19881850522331 l 2.1139491008226377 -15.253160807651376 a36.398951114440905,36.398951114440905 0 0,0 0.6198759046850008,0.09135359497553723 l -2.376193985936294 15.214512728514869"/><path fill="#ffb110" stroke="none" d="M 105.01212808612495 79.60689891045804 l 3.6753102560740185 -14.95392222617658 a36.398951114440905,36.398951114440905 0 0,0 0.6071537636465214,0.15477701319597245 l -3.932172908405565 14.88844221681174"/><path fill="#ffb110" stroke="none" d="M 107.4271985657038 80.35727306442388 l 5.446241315738974 -14.403685325488008 a36.398951114440905,36.398951114440905 0 0,0 0.5841456810438437,0.22663944899735528 l -5.693370161782485 14.307803172600106"/><path fill="#ffb110" stroke="none" d="M 107.76421540070413 80.48803036053334 l 5.693370161782485 -14.307803172600106 a36.398951114440905,36.398951114440905 0 0,0 0.5801579080031958,0.23666097757204665 l -5.938811939374069 14.20768130884448"/><path fill="#ffb110" stroke="none" d="M 108.09893153111575 80.62456947434976 l 5.938811939374069 -14.20768130884448 a36.398951114440905,36.398951114440905 0 0,0 0.5759982216535723,0.24661237839152156 l -6.182493918817956 14.103349402490167"/><line x1="143.237" x2="145.78" y1="26.818" y2="22.514" stroke="#e1ed5e" stroke-width=".3"/><path id="id62" fill="none" stroke="none" d="M 143.74570117128098 25.957352633546492 a86.0,86.0 0 0,1 28.547481713284135,27.462654790039103"/><text fill="#e1ed5e" text-anchor="middle" style="font-size:6.75px;font-family:Arial"><textPath startOffset="19.986" xlink:href="#id62">February</textPath></text><path fill="#ffb110" stroke="none" d="M 110.68208982089419 81.91981866633111 l 7.8329989977150705 -13.257896595114003 a36.398951114440905,36.398951114440905 0 0,0 0.5366902864247953,0.32334989250233764 l -8.060051350357503 13.12110009315305"/><path fill="#ffb110" stroke="none" d="M 113.6212207817346 84.01681056812373 l 9.98821490175894 -11.720207272110056 a36.398951114440905,36.398951114440905 0 0,0 0.47337044152890884,0.41050218222407575 l -10.188479141934614 11.546540096466305"/><path fill="#ffb110" stroke="none" d="M 113.89432698308785 84.25364557470405 l 10.188479141934614 -11.546540096466305 a36.398951114440905,36.398951114440905 0 0,0 0.46623418632453795,0.4185896558997833 l -10.385724315855143 11.369451431797227"/><path fill="#ff3505" stroke="none" d="M 115.92442197804982 86.31012108654704 l 4.966128974237298 -4.269272970762161 a27.54897920958981,27.54897920958981 0 0,0 0.30604211708863355,0.3622573359800969 l -5.038881704813051 4.183156685152958"/><path fill="#ffb110" stroke="none" d="M 117.04232023915458 87.72973835380427 l 12.496850297113726 -8.99757901196035 a36.398951114440905,36.398951114440905 0 0,0 0.36171436904567666,0.5116193230810238 l -12.649877285963285 8.781133188547532"/><path fill="#ffb110" stroke="none" d="M 117.2510076193507 88.02491185347247 l 12.661994026658656 -8.789544235663003 a36.41370106761566,36.41370106761566 0 0,0 0.35299707865804153,0.5179796553789839 l -12.811415570985432 8.570286557013612"/><line x1="172.234" x2="176.484" y1="55.198" y2="52.563" stroke="#e1ed5e" stroke-width=".3"/><path id="id63" fill="none" stroke="none" d="M 173.08426987136738 54.67131705675599 a86.0,86.0 0 0,1 12.851231095245387,41.99856678651699"/><text fill="#e1ed5e" text-anchor="middle" style="font-size:6.75px;font-family:Arial"><textPath startOffset="22.206" xlink:href="#id63">March</textPath></text><path fill="#ffb110" stroke="none" d="M 118.3937258080291 89.86733742301442 l 13.487813549060483 -7.430113127720279 a36.398951114440905,36.398951114440905 0 0,0 0.29759071920440655,0.5513904064883716 l -13.613712367483355 7.196841737899448"/><path fill="#ffb110" stroke="none" d="M 118.73160827565052 90.50648371742162 l 13.735577149123763 -6.961437768551114 a36.398951114440905,36.398951114440905 0 0,0 0.27843462073968184,0.5613072051003405 l -13.853371782816854 6.723970974951824"/><path fill="#ffc111" stroke="none" d="M 119.34039704204932 91.81776055985345 l 15.26873450688105 -6.45966271590517 a37.578947368421055,37.578947368421055 0 0,0 0.24690856030890992,0.5979086633993523 l -15.377664754076157 6.195879482052514"/><path fill="#ffb110" stroke="none" d="M 119.61058180528143 92.48833698450437 l 14.38011383548919 -5.5081776935129065 a36.398951114440905,36.398951114440905 0 0,0 0.21907906686757067,0.5870229799457857 l -14.472797490858387 5.259831576537787"/><path fill="#ffb110" stroke="none" d="M 119.7369772167798 92.82701384747503 l 14.472797490858387 -5.259831576537787 a36.398951114440905,36.398951114440905 0 0,0 0.20894197231429526,0.5907070921610992 l -14.561192543982491 5.009926857950074"/><path fill="#ff3505" stroke="none" d="M 120.37134235888165 94.90015583598534 l 6.352928456178673 -1.5904177810609452 a27.54897920958981,27.54897920958981 0 0,0 0.11120237253666174,0.4610056260456114 l -6.379363628976153 1.4808269233559277"/><path fill="#ffb110" stroke="none" d="M 120.53481517161879 95.60439243477599 l 15.057838808182725 -3.2232260007214886 a36.398951114440905,36.398951114440905 0 0,0 0.12587225989934794,0.6137978418924493 l -15.11109036399707 2.9635525026656278"/><path fill="#ffb110" stroke="none" d="M 120.78858239683441 97.02765380044208 l 15.24392209844666 -2.179572086770786 a36.398951114440905,36.398951114440905 0 0,0 0.08334319998478813,0.6210036453518629 l -15.279181297489286 1.9168500993542588"/><path fill="#ffb110" stroke="none" d="M 120.87857604477298 97.74499172005257 l 15.309912945361724 -1.6535601078842828 a36.398951114440905,36.398951114440905 0 0,0 0.06191786456951785,0.6235044463122604 l -15.33610793561347 1.3897801308675872"/><path fill="#ffb110" stroke="none" d="M 120.98425023603335 99.18683210126433 l 15.387402074184411 -0.596282510498247 a36.398951114440905,36.398951114440905 0 0,0 0.01887251910609863,0.6262870304793142 l -15.395386287746154 0.33132533259393376"/><line x1="184.98" x2="189.979" y1="98.171" y2="98.064" stroke="#e1ed5e" stroke-width=".3"/><path id="id64" fill="none" stroke="none" d="M 185.9800911702706 98.14961562048488 a86.0,86.0 0 0,1 -9.607161424134198,41.387399972396054"/><text fill="#e1ed5e" text-anchor="middle" style="font-size:6.75px;font-family:Arial"><textPath startOffset="21.466" xlink:href="#id64">April</textPath></text><path fill="#ffb110" stroke="none" d="M 120.99824983174949 100.27111621757518 l 15.415366213811977 0.1990335296471134 a36.41665105825061,36.41665105825061 0 0,0 -0.01348792519776334,0.6267308841556887 l -15.409656225929206 -0.4643542295929169"/><path fill="#ffb410" stroke="none" d="M 120.9764740272857 100.99374915477107 l 15.61448808820757 0.7397279599829373 a36.632000374601986,36.632000374601986 0 0,0 -0.03526030485048094,0.6295964296383441 l -15.599441432469561 -1.0083961059567046"/><path fill="#ffb110" stroke="none" d="M 120.8583938346157 102.4346265915055 l 15.295113665952512 1.7852712316433912 a36.398951114440905,36.398951114440905 0 0,0 -0.07799513643559983,0.6216979774909996 l -15.262117020270063 -2.048286963421786"/><path fill="#ffb110" stroke="none" d="M 120.64145759157962 103.86396538481128 l 15.136037923025704 2.833381622314322 a36.398951114440905,36.398951114440905 0 0,0 -0.12058464136415138,0.6148584884272781 l -15.085023348685889 -3.093503837809545"/><path fill="#ffb110" stroke="none" d="M 119.79798401119884 107.00284435728193 l 14.517532759663501 5.1350694247534605 a36.398951114440905,36.398951114440905 0 0,0 -0.21401844702334366,0.588886848942735 l -14.426990051634931 -5.384204070702327"/><path fill="#ffb110" stroke="none" d="M 119.67450827220406 107.3425965602758 l 14.426990051634931 5.384204070702327 a36.398951114440905,36.398951114440905 0 0,0 -0.22412345694731006,0.5851156232489393 l -14.332172315094114 -5.63174326078441"/><path fill="#ffb110" stroke="none" d="M 118.81262510543309 109.33194174019688 l 13.794985444422277 6.8429578409572525 a36.398951114440905,36.398951114440905 0 0,0 -0.2832554766431665,0.5588899278709996 l -13.67515129799284 -7.079401980530947"/><line x1="174.801" x2="179.201" y1="140.371" y2="142.746" stroke="#e1ed5e" stroke-width=".3"/><path id="id65" fill="none" stroke="none" d="M 175.68104954172406 140.8457921977663 a86.0,86.0 0 0,1 -30.038265399797805,32.042727171017184"/><text fill="#e1ed5e" text-anchor="middle" style="font-size:6.75px;font-family:Arial"><textPath startOffset="22.206" xlink:href="#id65">May</textPath></text><path fill="#97ff23" stroke="none" d="M 118.30583269289576 110.29060199501025 l 26.280990371051875 14.773827363130456 a51.14890428919273,51.14890428919273 0 0,0 -0.4380489683525802,0.7637752995801592 l -26.022789406546913 -15.22402250856893"/><path fill="#97ff23" stroke="none" d="M 118.12598468904814 110.60418214915192 l 26.022789406546913 15.22402250856893 a51.14890428919273,51.14890428919273 0 0,0 -0.4511312029256889,0.7561218451217647 l -25.756877327922997 -15.6697064475768"/><path fill="#ffb110" stroke="none" d="M 117.94076556474637 110.91462005526583 l 13.175827267160615 8.0157754704434 a36.42255103952051,36.42255103952051 0 0,0 -0.3304658993584311,0.5328162523988742 l -13.03589672813422 -8.241388054207544"/><path fill="#ffb110" stroke="none" d="M 117.75023020441432 111.22182372390056 l 13.01594891370708 8.228776901867516 a36.398951114440905,36.398951114440905 0 0,0 -0.3393684574468623,0.5267073823425459 l -12.872375592883168 -8.451605884131515"/><path fill="#ffb110" stroke="none" d="M 117.55443506779137 111.5257021239791 l 12.872375592883168 8.451605884131515 a36.398951114440905,36.398951114440905 0 0,0 -0.3483845781099767,0.520787674834138 l -12.724987909362468 -8.67193047317146"/><path fill="#ffb110" stroke="none" d="M 117.14729908036423 112.12312394758627 l 12.573829537296493 8.889685382056612 a36.398951114440905,36.398951114440905 0 0,0 -0.3661044767477377,0.5084870978001933 l -12.418945268173154 -9.104806085307937"/><path fill="#ffb110" stroke="none" d="M 115.80600337817218 113.82643327865902 l 11.590279682626722 10.138693816435676 a36.398951114440905,36.398951114440905 0 0,0 -0.4165793229732679,0.4680312854875485 l -11.414041510005115 -10.336699271664092"/><path fill="#ffb010" stroke="none" d="M 114.29624159901734 115.38237550388516 l 10.443030948898224 11.236423387366944 a36.3399513017419,36.3399513017419 0 0,0 -0.4618642559422446,0.42190204710742835 l -10.248067143489116 -11.414518201060956"/><path fill="#ffb110" stroke="none" d="M 114.0293411484842 115.62618273729858 l 10.267774964918905 11.43646919760146 a36.369451208091405,36.369451208091405 0 0,0 -0.469438946216377,0.4142252893055875 l -10.069393665795939 -11.611517628679335"/><path fill="#ffb110" stroke="none" d="M 112.04921762599082 117.19931262002967 l 8.835491104280589 12.611970201801117 a36.398951114440905,36.398951114440905 0 0,0 -0.5162465236373549,0.3550790663448955 l -8.61708769602035 -12.762190057511111"/><path fill="#ffb110" stroke="none" d="M 111.7513745106137 117.40417183066458 l 8.61708769602035 12.762190057511111 a36.398951114440905,36.398951114440905 0 0,0 -0.5222821385765821,0.34614012227401 l -8.396130858703804 -12.90862820087644"/><line x1="143.865" x2="146.446" y1="172.807" y2="177.09" stroke="#e1ed5e" stroke-width=".3"/><path id="id66" fill="none" stroke="none" d="M 144.38136562736335 173.6633856474863 a86.0,86.0 0 0,1 -40.68145358897372,12.25698825130547"/><text fill="#e1ed5e" text-anchor="middle" style="font-size:6.75px;font-family:Arial"><textPath startOffset="21.466" xlink:href="#id66">June</textPath></text><path fill="#ffbc11" stroke="none" d="M 110.21172684928248 118.3499491758327 l 7.896922125674298 14.190363862093882 a37.23969844540176,37.23969844540176 0 0,0 -0.5628109894981459,0.30688942579161504 l -7.651488324307503 -14.324193939645268"/><path fill="#ffb110" stroke="none" d="M 109.89434966115114 118.52300852407294 l 7.255362225773872 13.582614416884342 a36.398951114440905,36.398951114440905 0 0,0 -0.5551864371642273,0.29044730419284337 l -7.02048488608315 -13.705491140021902"/><path fill="#ffb110" stroke="none" d="M 109.57404056367764 118.69057910512821 l 7.0070356813205406 13.679235409868607 a36.369451208091405,36.369451208091405 0 0,0 -0.5596498113151068,0.2806200335328972 l -6.770531962322673 -13.797823284310805"/><path fill="#ffb110" stroke="none" d="M 107.59598834532513 119.57807347666477 l 5.570012056929739 14.356276018194905 a36.398951114440905,36.398951114440905 0 0,0 -0.5860747288039739,0.2216033140125937 l -5.32206710736549 -14.45002758231413"/><path fill="#ffb110" stroke="none" d="M 105.53697534728816 120.25689768951611 l 4.060172033083561 14.854046535766168 a36.398951114440905,36.398951114440905 0 0,0 -0.605799108863533,0.1599970506732785 l -3.803882481408531 -14.92173493574303"/><path fill="#ffb110" stroke="none" d="M 105.18746579009965 120.34920634021253 l 3.803882481408531 14.92173493574303 a36.398951114440905,36.398951114440905 0 0,0 -0.6084634394055674,0.14954550956395707 l -3.546465757259752 -14.985001703621018"/><path fill="#ffb110" stroke="none" d="M 102.70371172650421 120.8252237178851 l 1.9825868906656625 15.270790570428941 a36.398951114440905,36.398951114440905 0 0,0 -0.6220278754602971,0.07531891312522991 l -1.7194315921539851 -15.302655012279523"/><path fill="#ffd614" stroke="none" d="M 102.34483914955558 120.86867818915974 l 2.0287316429265125 18.055373988626357 a39.1689923206593,39.1689923206593 0 0,0 -0.6706615648721216,0.06951681336869149 l -1.7176374814487883 -18.08762017045081"/><line x1="102.195" x2="102.324" y1="184.972" y2="189.97" stroke="#e1ed5e" stroke-width=".3"/><path id="id67" fill="none" stroke="none" d="M 102.22038585953345 185.97133177190398 a86.0,86.0 0 0,1 -42.740103519485714,-10.115201625700543"/><text fill="#e1ed5e" text-anchor="middle" style="font-size:6.75px;font-family:Arial"><textPath startOffset="22.206" xlink:href="#id67">July</textPath></text><path fill="#ffb110" stroke="none" d="M 99.81925306533755 120.99922214144158 l -0.13253872433105163 15.398380723683042 a36.398951114440905,36.398951114440905 0 0,0 -0.6264784846850067,-0.010785395253541207 l 0.3975768989087262 -15.393817851150342"/><path fill="#ffb110" stroke="none" d="M 98.01472825383883 120.90594882070398 l -1.4557667889531758 15.329984947191623 a36.398951114440905,36.398951114440905 0 0,0 -0.6232322065952124,-0.06460056645633828 l 1.7194315921539816 -15.302655012279525"/><path fill="#ffb110" stroke="none" d="M 97.65516085044442 120.86867818915974 l -1.7194315921539816 15.302655012279525 a36.398951114440905,36.398951114440905 0 0,0 -0.6220278754602815,-0.07531891312523396 l 1.9825868906656523 -15.270790570428941"/><path fill="#ffb110" stroke="none" d="M 96.22490169976321 120.6578951692458 l -2.768216865597875 15.148091325641005 a36.398951114440905,36.398951114440905 0 0,0 -0.615371735297534,-0.11793745766684322 l 3.0285562154671037 -15.098196669625693"/><path fill="#ffb110" stroke="none" d="M 95.16358092515715 120.4354850818985 l -3.5464657572597416 14.985001703621021 a36.398951114440905,36.398951114440905 0 0,0 -0.6084634394055684,-0.14954550956395707 l 3.8038824814085204 -14.921734935743034"/><path fill="#ffb110" stroke="none" d="M 94.81253420990036 120.34920634021253 l -3.8038824814085204 14.921734935743034 a36.398951114440905,36.398951114440905 0 0,0 -0.6057991088635472,-0.15999705067328254 l 4.060172033083557 -14.85404653576617"/><path fill="#ffb110" stroke="none" d="M 92.7421414339146 119.70592522655815 l -5.322067107365487 14.45002758231413 a36.398951114440905,36.398951114440905 0 0,0 -0.5860747288039598,-0.22160331401258965 l 5.57001205692973 -14.356276018194908"/><path fill="#ffb110" stroke="none" d="M 90.42595943632237 118.69057910512821 l -7.020484886083146 13.705491140021904 a36.398951114440905,36.398951114440905 0 0,0 -0.5551864371642273,-0.29044730419284337 l 7.25536222577387 -13.582614416884343"/><path fill="#ffb110" stroke="none" d="M 90.10565033884886 118.52300852407294 l -7.25536222577387 13.582614416884343 a36.398951114440905,36.398951114440905 0 0,0 -0.5501046074110508,-0.29996089316634705 l 7.48808964505356 -13.45571287195823"/><line x1="58.667" x2="56.235" y1="174.274" y2="178.643" stroke="#e1ed5e" stroke-width=".3"/><path id="id68" fill="none" stroke="none" d="M 58.180547188652646 175.14741091055294 a86.0,86.0 0 0,1 -31.652253787137756,-30.449443065178592"/><text fill="#e1ed5e" text-anchor="middle" style="font-size:6.75px;font-family:Arial"><textPath startOffset="22.206" xlink:href="#id68">August</textPath></text><path fill="#ffb110" stroke="none" d="M 88.24862548938628 117.40417183066458 l -8.617087696020354 12.76219005751111 a36.398951114440905,36.398951114440905 0 0,0 -0.5162465236373388,-0.3550790663448834 l 8.835491104280585 -12.611970201801121"/><path fill="#ffb110" stroke="none" d="M 87.95078237400918 117.19931262002967 l -8.835491104280585 12.611970201801121 a36.398951114440905,36.398951114440905 0 0,0 -0.5100579337116355,-0.3639127928251763 l 9.051276365841106 -12.458013147131728"/><path fill="#ffb110" stroke="none" d="M 86.24171649860922 115.8653595955263 l -10.088720716977878 11.63380461069216 a36.398951114440905,36.398951114440905 0 0,0 -0.4698197164642138,-0.41456127477790583 l 10.287482786348681 -11.458420194141965"/><path fill="#ffb110" stroke="none" d="M 85.97065885151581 115.62618273729859 l -10.287482786348681 11.458420194141965 a36.398951114440905,36.398951114440905 0 0,0 -0.46261411673229175,-0.4225870271601057 l 10.483196452547828 -11.27964040039528"/><path fill="#ffb110" stroke="none" d="M 84.43433777217949 114.09645910891817 l -11.41404151000511 10.336699271664099 a36.398951114440905,36.398951114440905 0 0,0 -0.4165793229732679,-0.4680312854875485 l 11.590279682626715 -10.138693816435683"/><path fill="#ffb110" stroke="none" d="M 84.19399662182784 113.82643327865904 l -11.583618602349343 10.132866980908995 a36.390101142536054,36.390101142536054 0 0,0 -0.4083619005578849,-0.4750171469998711 l 11.756323012478006 -9.931972734747594"/><path fill="#ffb110" stroke="none" d="M 82.85270091963577 112.12312394758628 l -12.57382953729649 8.88968538205662 a36.398951114440905,36.398951114440905 0 0,0 -0.3572974649038462,-0.514713646698147 l 12.724987909362467 -8.671930473171463"/><path fill="#ffb110" stroke="none" d="M 82.64656182679789 111.8261652097733 l -12.739614332246791 8.681898209347523 a36.41665105825061,36.41665105825061 0 0,0 -0.3485539892404441,-0.5210409214881786 l 12.887171426897968 -8.461320373653521"/><line x1="26.633" x2="22.317" y1="142.922" y2="145.446" stroke="#e1ed5e" stroke-width=".3"/><path id="id69" fill="none" stroke="none" d="M 25.769776987707644 143.4266507060508 a86.0,86.0 0 0,1 -11.730757126820373,-40.83630448921669"/><text fill="#e1ed5e" text-anchor="middle" style="font-size:6.75px;font-family:Arial"><textPath startOffset="21.466" xlink:href="#id69">September</textPath></text><path fill="#ff0a01" stroke="none" d="M 81.51974371655577 109.97397251340807 l -3.1671538676440307 1.7093434818820723 a24.598988574639446,24.598988574639446 0 0,0 -0.19790178189952473,-0.37435559012012865 l 3.196108157768441 -1.6545728766758174"/><path fill="#ffb610" stroke="none" d="M 80.45479744820244 107.68017299344265 l -14.639682525686174 5.75257759894684 a36.72935006555535,36.72935006555535 0 0,0 -0.22615786048994016,-0.5904268089364998 l 14.736534665769627 -5.4997272231771825"/><path fill="#ffb110" stroke="none" d="M 80.20201598880116 107.00284435728193 l -14.5175327596635 5.135069424753464 a36.398951114440905,36.398951114440905 0 0,0 -0.20385001881464015,-0.5924835747540076 l 14.603773609421367 -4.88441314691016"/><path fill="#ffb110" stroke="none" d="M 79.67330655649465 105.27499134158121 l -14.905226602607872 3.8680635141956246 a36.398951114440905,36.398951114440905 0 0,0 -0.1521626704464332,-0.6078142300461764 l 14.969600587349365 -3.6109214447520563"/><path fill="#ffb110" stroke="none" d="M 79.18660465613746 102.79330883721812 l -15.262117020270061 2.048286963421793 a36.398951114440905,36.398951114440905 0 0,0 -0.07799513643559983,-0.621697977490976 l 15.29511366595251 -1.7852712316434085"/><path fill="red" stroke="none" d="M 79.0235259727143 100.99374915477108 l -2.946685806417732 0.13959765238402486 a23.949990634950364,23.949990634950364 0 0,0 -0.015964227958238986,-0.4119657881497984 l 2.9486521672271717 -0.08885461722022972"/><line x1="15.007" x2="10.008" y1="101.097" y2="101.162" stroke="#e1ed5e" stroke-width=".3"/><path id="id70" fill="none" stroke="none" d="M 14.007167355692545 101.11028546245083 a86.0,86.0 0 0,1 10.666146001902534,-42.60595125391555"/><text fill="#e1ed5e" text-anchor="middle" style="font-size:6.75px;font-family:Arial"><textPath startOffset="22.206" xlink:href="#id70">October</textPath></text><path fill="#ffb110" stroke="none" d="M 79.03285615573316 98.82574320788736 l -15.374858241300753 -0.8610629970258482 a36.398951114440905,36.398951114440905 0 0,0 0.04041914419276277,-0.6252662707253472 l 15.357758506103577 1.1255883320042073"/><path fill="#9dff22" stroke="none" d="M 79.05617556472873 98.46500227214037 l -29.506314187301303 -2.162552755109233 a50.585456077917215,50.585456077917215 0 0,0 0.07112198580603164,-0.8678683722176558 l 29.46471771767577 2.670135044534667"/><path fill="#ffb110" stroke="none" d="M 79.46518482838121 95.60439243477599 l -15.057838808182726 -3.2232260007214815 a36.398951114440905,36.398951114440905 0 0,0 0.13641913142594947,-0.6115402170789805 l 15.00012528975474 3.481944387350421"/><path fill="#ffb110" stroke="none" d="M 79.91906864156998 93.8553929516997 l -14.725013348614635 -4.505738264486926 a36.398951114440905,36.398951114440905 0 0,0 0.18848506334688922,-0.5975491589979323 l 14.64527280149954 4.758537589911272"/><path fill="#9eff22" stroke="none" d="M 80.2630227832202 92.82701384747504 l -27.73398339100699 -10.079328593890311 a50.508756321408505,50.508756321408505 0 0,0 0.30400357331025935,-0.8145784354040025 l 27.556375229195105 10.555230166323655"/><path fill="#9dff22" stroke="none" d="M 81.43458229118936 90.18545643968196 l -26.16597244884301 -13.832550413092937 a50.59725604045701,50.59725604045701 0 0,0 0.41367328875789156,-0.7664737779840615 l 25.923991060866648 14.28090517440947"/><line x1="26.266" x2="21.929" y1="57.711" y2="55.224" stroke="#e1ed5e" stroke-width=".3"/><path id="id71" fill="none" stroke="none" d="M 25.39875349325466 57.213857153982495 a86.0,86.0 0 0,1 29.58750427330802,-30.492523968695096"/><text fill="#e1ed5e" text-anchor="middle" style="font-size:6.75px;font-family:Arial"><textPath startOffset="21.466" xlink:href="#id71">November</textPath></text><path fill="#ffb110" stroke="none" d="M 82.54541684631803 88.32363383020206 l -12.799155843166302 -8.562085325858572 a36.398951114440905,36.398951114440905 0 0,0 0.3528540915342717,-0.5177698394185376 l 12.64987728596329 8.781133188547527"/><path fill="#9cff22" stroke="none" d="M 84.07557802195018 86.31012108654704 l -22.495222056274905 -19.33865269999293 a50.66510582506088,50.66510582506088 0 0,0 0.5742241628120992,-0.6564374827776587 l 22.15900602988496 19.72300573897353"/><path fill="#ffb110" stroke="none" d="M 84.31358615837235 86.03803664274997 l -11.502586662291117 -10.238075771424205 a36.398951114440905,36.398951114440905 0 0,0 0.42059223632498965,-0.46442845225838303 l 11.324650785350082 10.434557010952146"/><path fill="#ffb010" stroke="none" d="M 86.10567301691215 84.25364557470407 l -10.153346455238287 -11.506724440961246 a36.3458512830118,36.3458512830118 0 0,0 0.47267987518345933,-0.4099033298942576 l 9.953772781408054 11.679792764275184"/><path fill="#9bff22" stroke="none" d="M 87.51073957382395 83.11751280151077 l -17.732106451680266 -23.96955864138378 a50.815555347443336,50.815555347443336 0 0,0 0.7076784363544437,-0.514158480163844 l 17.31688269897204 24.271236356364295"/><line x1="56.763" x2="54.22" y1="26.818" y2="22.514" stroke="#e1ed5e" stroke-width=".3"/><path id="id72" fill="none" stroke="none" d="M 56.25429882871897 25.957352633546506 a86.0,86.0 0 0,1 42.265352541879196,-11.944610805530505"/><text fill="#e1ed5e" text-anchor="middle" style="font-size:6.75px;font-family:Arial"><textPath startOffset="22.206" xlink:href="#id72">December</textPath></text><path fill="#ffb210" stroke="none" d="M 89.3179101791058 81.91981866633112 l -7.858508764565875 -13.301073652990807 a36.44910095523506,36.44910095523506 0 0,0 0.5429237084523288,-0.31449645523614533 l 7.628388323648225 13.434374265616999"/><path fill="#fff617" stroke="none" d="M 89.94658935756843 81.56283822128135 l -9.922541183797184 -18.197157518815864 a41.72663420116127,41.72663420116127 0 0,0 0.6335592384162714,-0.3384254036160641 l 9.607836898852607 18.365261648933682"/><path fill="#ff3605" stroke="none" d="M 92.57280143429618 80.3572730644239 l -2.3183042535578586 -6.1312239067498755 a27.55487919085971,27.55487919085971 0 0,0 0.44510009679720414,-0.1639341220046467 l 2.2124218309880863 6.170221296560845"/><path fill="#ffb110" stroke="none" d="M 94.63758080256005 79.69619591428918 l -3.932172908405582 -14.888442216811736 a36.398951114440905,36.398951114440905 0 0,0 0.6071537636465659,-0.15477701319598053 l 3.6753102560740167 14.95392222617658"/><path fill="#4dd2ff" stroke="none" d="M 94.98787191387505 79.60689891045804 l -15.036384258374849 -61.17930326862588 a84.0,84.0 0 0,0 1.407105252149864,-0.3330163514365161 l 13.98105531926245 61.42906553220327"/><path fill="#ff3705" stroke="none" d="M 97.11714578562143 79.19881850522333 l -0.9128048416195862 -6.586326524989694 a27.649278891178124,27.649278891178124 0 0,0 0.4719932976126642,-0.06127827632846995 l 0.7992968154990643 6.601063124482301"/><path fill="#ffb110" stroke="none" d="M 99.63851952072746 79.00311137660856 l -0.26506762995916794 -15.39666959366501 a36.398951114440905,36.398951114440905 0 0,0 0.6265481092316999,-0.005392897384454724 l 3.771655238505324e-15 15.398951114440905"/></svg>