<?xml version="1.0" encoding="utf-8" ?>
<svg baseProfile="full" height="200mm" version="1.1" viewBox="0,0,200,200" width="200mm" xmlns="http://www.w3.org/2000/svg" xmlns:ev="http://www.w3.org/2001/xml-events" xmlns:xlink="http://www.w3.org/1999/xlink"><defs /><rect fill="#1a1a1a" height="200" width="200" x="0" y="0" /><rect fill="#1a1a1a" height="200" width="180" x="10" y="0" /><text alignment-baseline="middle" fill="#e1ed5e" style="dominant-baseline: central; font-size:9.0px; font-family:Arial;" text-anchor="middle" x="100.0" y="100.0">2026</text><line stroke="#e1ed5e" stroke-width="0.3" x1="100.0" x2="100.0" y1="15.0" y2="10.0" /><path d="M 100.0 14.0 a86.0,86.0 0 0,1 42.46469731375804,11.215312516191453" fill="none" id="id109" stroke="none" /><text fill="#e1ed5e" style="font-size:6.75px; font-family:Arial;" text-anchor="middle"><textPath startOffset="22.20632615414155" xlink:href="#id109">January</textPath></text><path d="M 100.0 79.0 l 0.0 -62.99386024753923 a83.99386024753923,83.99386024753923 0 0,0 1.4458162313442977,0.012444596763655058 l -1.0843357520717694 62.98452702738413" fill="red" stroke="none" /><path d="M 100.72285384407766 79.0124445844662 l 2.123123394680103 -61.643401726279876 a82.67995322093364,82.67995322093364 0 0,0 1.421934432541019,0.061231487783749705 l -3.1838986596104535 61.59772251197193" fill="red" stroke="none" /><path d="M 101.08401301168833 79.027996857942 l 3.1826309316950203 -61.57319624380072 a82.65539421109054,82.65539421109054 0 0,0 1.4202477666421005,0.08567322381226576 l -4.242040747176732 61.50928975060815" fill="red" stroke="none" /><path d="M 103.2404852339499 79.25152402106235 l 8.116529675250609 -51.96926041659453 a73.59925933144918,73.59925933144918 0 0,0 1.2500336311113702,0.20626625983483263 l -9.009892512500855 51.82184789382008" fill="red" stroke="none" /><path d="M 103.59715602781102 79.31037775812273 l 10.559042935159166 -60.732036051587905 a82.64311470616899,82.64311470616899 0 0,0 1.3994426093698236,0.25573919185029015 l -11.60288066563189 60.54128137838687" fill="red" stroke="none" /><path d="M 105.71112130821622 79.79150937346287 l 17.13336392464865 -60.62547187961136 a84.0,84.0 0 0,0 1.3880391291062915,0.40520668432518603 l -18.174393271478365 60.321566866367476" fill="red" stroke="none" /><path d="M 106.0581310904928 79.89281104454417 l 14.382231104610112 -47.73522297582146 a70.8547899814833,70.8547899814833 0 0,0 1.1647671388151473,0.3618988198257729 l -15.201783616135977 47.48058402111316" fill="red" stroke="none" /><path d="M 108.09893153111575 80.62456947434976 l 12.658674972813019 -30.283905542381696 a53.82311665529676,53.82311665529676 0 0,0 0.8517283748048435,0.3646656402013999 l -13.178087105408178 30.061520374217505" fill="red" stroke="none" /><path d="M 110.36928655335952 81.73862282372117 l 16.02838456513355 -28.227629216738965 a53.4608712601111,53.4608712601111 0 0,0 0.7963207245434845,0.4612803626018055 l -16.511902022142362 27.94754469674711" fill="red" stroke="none" /><line stroke="#e1ed5e" stroke-width="0.3" x1="143.23703022742887" x2="145.7803849466894" y1="26.81831364943548" y2="22.513508569990506" /><path d="M 143.74570117128098 25.957352633546492 a86.0,86.0 0 0,1 28.547481713284135,27.462654790039103" fill="none" id="id110" stroke="none" /><text fill="#e1ed5e" style="font-size:6.75px; font-family:Arial;" text-anchor="middle"><textPath startOffset="19.985693538727396" xlink:href="#id110">February</textPath></text><path d="M 110.68208982089419 81.91981866633111 l 16.42757795280288 -27.804820333816874 a53.29509794367021,53.29509794367021 0 0,0 0.7858182860955562,0.4734467247917569 l -16.903758305116074 27.5179269995665" fill="red" stroke="none" /><path d="M 111.90073688211348 82.69761687909136 l 22.61615526763597 -32.8814414635726 a60.90839099502973,60.90839099502973 0 0,0 0.8587179957948509,0.60158683310618 l -23.17880440301447 32.48726978770249" fill="red" stroke="none" /><path d="M 114.16331599549186 84.49514656593476 l 6.894626585857305 -7.5476798463264645 a31.222687847188382,31.222687847188382 0 0,0 0.39369150422237764,0.365893347124577 l -7.02352597387453 7.427881913127247" fill="red" stroke="none" /><path d="M 115.19652480421416 85.50635884689758 l 13.368972751938527 -12.750618720305575 a39.47451515446838,39.47451515446838 0 0,0 0.4647328616931792,0.4957446142925718 l -13.586472935602169 12.518604689134948" fill="red" stroke="none" /><path d="M 115.4437574822437 85.77008943001954 l 23.750364786064274 -21.883635980342245 a53.29509794367021,53.29509794367021 0 0,0 0.6158283066677532,0.6800129974382295 l -24.12353673334806 21.471570195634467" fill="red" stroke="none" /><path d="M 116.38621287248628 86.86637796730983 l 29.99055430711358 -24.037561814045556 a59.43485040444401,59.43485040444401 0 0,0 0.632969607783909,0.8038071228154968 l -30.399877995491455 23.51776229727702" fill="red" stroke="none" /><path d="M 117.04232023915458 87.72973835380427 l 31.20134762818029 -22.464587787294914 a59.44712990936556,59.44712990936556 0 0,0 0.5907555143316064,0.835581780027522 l -31.583415762315777 21.924179506935598" fill="red" stroke="none" /><line stroke="#e1ed5e" stroke-width="0.3" x1="172.23445277983987" x2="176.4835382374775" y1="55.19839476539836" y2="52.563006222186495" /><path d="M 173.08426987136738 54.67131705675599 a86.0,86.0 0 0,1 12.851231095245387,41.99856678651699" fill="none" id="id111" stroke="none" /><text fill="#e1ed5e" style="font-size:6.75px; font-family:Arial;" text-anchor="middle"><textPath startOffset="22.20632615414155" xlink:href="#id111">March</textPath></text><path d="M 118.03404312379186 89.2402003453031 l 33.027554661562874 -19.70550191122348 a59.45940941428711,59.45940941428711 0 0,0 0.5168447595374311,0.8834552317398187 l -33.36185909557064 19.134067267129765" fill="red" stroke="none" /><path d="M 118.89224826269711 90.83032412892265 l 42.63045670738612 -20.69142141301284 a68.38660949225222,68.38660949225222 0 0,0 0.5048944501293945,1.0634364761106465 l -42.98030935135726 19.954542521261654" fill="red" stroke="none" /><path d="M 119.04729006885535 91.15688171328212 l 29.381201365348655 -13.640861148247795 a53.39333398304259,53.39333398304259 0 0,0 0.3798495422223215,0.8369481153220373 l -29.611653224534322 13.133091024083695" fill="red" stroke="none" /><path d="M 119.85752413597 93.16781622104841 l 45.05825304139844 -15.5027516738456 a68.65061884806549,68.65061884806549 0 0,0 0.374841225779139,1.1207275543878665 l -45.31843156094935 14.72485101653542" fill="red" stroke="none" /><path d="M 119.97218684219823 93.5106431181261 l 30.720302595304023 -9.981631387449148 a53.30123769613098,53.30123769613098 0 0,0 0.27601034799150553,0.8750282297622396 l -30.887568427063734 9.45135299126049" fill="red" stroke="none" /><path d="M 120.53481517161879 95.60439243477599 l 31.669764164396003 -6.779114094110718 a53.38719423058181,53.38719423058181 0 0,0 0.18461979210226984,0.9002716726752986 l -31.781763252413267 6.232966765272008" fill="red" stroke="none" /><path d="M 120.6074358757038 95.95851677861258 l 43.15089827749456 -8.462655539882107 a64.97290712406198,64.97290712406198 0 0,0 0.20579170870613947,1.0993475367699073 l -43.29017571011056 7.718629925649637" fill="red" stroke="none" /><path d="M 120.91429891909075 98.10471618934814 l 41.44541021545576 -3.755842608497711 a62.61524217912484,62.61524217912484 0 0,0 0.08803558790980978,1.0742571584668468 l -41.50392028718506 3.0418715328230954" fill="red" stroke="none" /><path d="M 120.94382443527127 98.46500227214037 l 61.704780869572716 -4.522416558905036 a82.87028554721762,82.87028554721762 0 0,0 0.09202314677411629,1.4235573501867358 l -61.77348460735124 3.4596001444652646" fill="red" stroke="none" /><line stroke="#e1ed5e" stroke-width="0.3" x1="184.98032266829074" x2="189.97916517819016" y1="98.17113171792111" y2="98.06355123074" /><path d="M 185.9800911702706 98.14961562048488 a86.0,86.0 0 0,1 -9.607161424134198,41.387399972396054" fill="none" id="id112" stroke="none" /><text fill="#e1ed5e" style="font-size:6.75px; font-family:Arial;" text-anchor="middle"><textPath startOffset="21.466115282336823" xlink:href="#id112">April</textPath></text><path d="M 120.9764740272857 100.99374915477107 l 53.17201924273475 2.51899576216698 a74.23165383490888,74.23165383490888 0 0,0 -0.07145202874558276,1.2758239720103168 l -53.120780863101636 -3.43389145051272" fill="red" stroke="none" /><line stroke="#e1ed5e" stroke-width="0.3" x1="174.80103733775053" x2="179.2010983576182" y1="140.37084112569926" y2="142.7455964860345" /><path d="M 175.68104954172406 140.8457921977663 a86.0,86.0 0 0,1 -30.038265399797805,32.042727171017184" fill="none" id="id113" stroke="none" /><text fill="#e1ed5e" style="font-size:6.75px; font-family:Arial;" text-anchor="middle"><textPath startOffset="22.206326154141568" xlink:href="#id113">May</textPath></text><line stroke="#e1ed5e" stroke-width="0.3" x1="143.8653032363475" x2="146.44561519142675" y1="172.8068346515853" y2="177.08958963109032" /><path d="M 144.38136562736335 173.6633856474863 a86.0,86.0 0 0,1 -40.68145358897372,12.25698825130547" fill="none" id="id114" stroke="none" /><text fill="#e1ed5e" style="font-size:6.75px; font-family:Arial;" text-anchor="middle"><textPath startOffset="21.466115282336833" xlink:href="#id114">June</textPath></text><line stroke="#e1ed5e" stroke-width="0.3" x1="102.19456741930631" x2="102.32365962044197" y1="184.97166512339345" y2="189.96999836594603" /><path d="M 102.22038585953345 185.97133177190398 a86.0,86.0 0 0,1 -42.740103519485714,-10.115201625700543" fill="none" id="id115" stroke="none" /><text fill="#e1ed5e" style="font-size:6.75px; font-family:Arial;" text-anchor="middle"><textPath startOffset="22.20632615414155" xlink:href="#id115">July</textPath></text><line stroke="#e1ed5e" stroke-width="0.3" x1="58.666819895761336" x2="56.23545636021788" y1="174.27360380694188" y2="178.64263932499728" /><path d="M 58.180547188652646 175.14741091055294 a86.0,86.0 0 0,1 -31.652253787137756,-30.449443065178592" fill="none" id="id116" stroke="none" /><text fill="#e1ed5e" style="font-size:6.75px; font-family:Arial;" text-anchor="middle"><textPath startOffset="22.20632615414155" xlink:href="#id116">August</textPath></text><line stroke="#e1ed5e" stroke-width="0.3" x1="26.63291911575756" x2="22.317208475507996" y1="142.92168965132927" y2="145.44649492493687" /><path d="M 25.769776987707644 143.4266507060508 a86.0,86.0 0 0,1 -11.730757126820373,-40.83630448921669" fill="none" id="id117" stroke="none" /><text fill="#e1ed5e" style="font-size:6.75px; font-family:Arial;" text-anchor="middle"><textPath startOffset="21.46611528233685" xlink:href="#id117">September</textPath></text><line stroke="#e1ed5e" stroke-width="0.3" x1="15.007084014347285" x2="10.007500721073583" y1="101.09737516637583" y2="101.16192664675087" /><path d="M 14.007167355692545 101.11028546245083 a86.0,86.0 0 0,1 10.666146001902534,-42.60595125391555" fill="none" id="id118" stroke="none" /><text fill="#e1ed5e" style="font-size:6.75px; font-family:Arial;" text-anchor="middle"><textPath startOffset="22.20632615414155" xlink:href="#id118">October</textPath></text><line stroke="#e1ed5e" stroke-width="0.3" x1="26.266209847984243" x2="21.928928074336255" y1="57.711370442889674" y2="55.22380399835377" /><path d="M 25.398753493254645 57.213857153982495 a86.0,86.0 0 0,1 29.58750427330803,-30.492523968695096" fill="none" id="id119" stroke="none" /><text fill="#e1ed5e" style="font-size:6.75px; font-family:Arial;" text-anchor="middle"><textPath startOffset="21.46611528233685" xlink:href="#id119">November</textPath></text><line stroke="#e1ed5e" stroke-width="0.3" x1="56.762969772571076" x2="54.21961505331055" y1="26.818313649435495" y2="22.513508569990535" /><path d="M 56.25429882871897 25.957352633546506 a86.0,86.0 0 0,1 42.265352541879196,-11.944610805530505" fill="none" id="id120" stroke="none" /><text fill="#e1ed5e" style="font-size:6.75px; font-family:Arial;" text-anchor="middle"><textPath startOffset="22.20632615414155" xlink:href="#id120">December</textPath></text></svg>