<svg xmlns="http://www.w3.org/2000/svg" xmlns:ev="http://www.w3.org/2001/xml-events" xmlns:xlink="http://www.w3.org/1999/xlink" width="200mm" height="200mm" baseProfile="full" version="1.1" viewBox="0 0 200 200"><rect width="200" height="200" x="0" y="0" fill="#1a1a1a"/><rect width="180" height="200" x="10" y="0" fill="#1a1a1a"/><text fill="#e1ed5e" alignment-baseline="middle" style="dominant-baseline:central;font-size:9px;font-family:Arial" x="100" y="100" text-anchor="middle">2017</text><line x1="100" x2="100" y1="15" y2="10" stroke="#e1ed5e" stroke-width=".3"/><path id="id1" fill="none" stroke="none" d="M 100.0 14.0 a86.0,86.0 0 0,1 42.46469731375804,11.215312516191453"/><text fill="#e1ed5e" style="font-size:6.75px;font-family:Arial" text-anchor="middle"><textPath startOffset="22.206" xlink:href="#id1">January</textPath></text><path fill="#47fffb" stroke="none" d="M 100.0 79.0 l 0.0 -58.93011176552429 a79.93011176552429,79.93011176552429 0 0,0 1.375865481395642,0.011842508574607063 l -1.0143850021231136 58.921380633558236"/><path fill="#fffe18" stroke="none" d="M 102.16513564639614 79.11191278185805 l 3.038800964732761 -29.316749597451548 a50.47382089690674,50.47382089690674 0 0,0 0.8634227174883582,0.09701560262853828 l -3.5429903857308447 29.260098041352407"/><path fill="#7dff26" stroke="none" d="M 102.52436894288641 79.15227682838746 l 4.620848979486591 -38.161688137398265 a59.440430366832075,59.440430366832075 0 0,0 1.0146913722697268,0.13173606195798732 l -5.277055080264164 38.076493752276136"/><path fill="#ff820c" stroke="none" d="M 103.2404852339499 79.25152402106235 l 3.3876092447107893 -21.690495084970202 a42.95343876084033,42.95343876084033 0 0,0 0.7295351000901966,0.12037954241283004 l -3.760473550939861 21.62896927961775"/><path fill="#dfff1b" stroke="none" d="M 104.66035177308747 79.52364482259891 l 7.017435501571082 -30.832758718871958 a52.62124936233363,52.62124936233363 0 0,0 0.8814718613384468,0.2086159103651897 l -7.5471310498720525 30.7073968963659"/><path fill="#ffeb16" stroke="none" d="M 105.01212808612495 79.60689891045804 l 6.74590647477245 -27.447413616875515 a49.264248944952,49.264248944952 0 0,0 0.8217537386202295,0.2094833250845346 l -7.217369102077705 27.327227295622112"/><path fill="#edff1a" stroke="none" d="M 107.08798089147638 80.2323363322302 l 10.368181295689281 -28.915811687093388 a51.718452905439875,51.718452905439875 0 0,0 0.8354196813916119,0.3076921190532452 l -10.864383302853469 28.733056300233816"/><path fill="#ff0200" stroke="none" d="M 108.43124777332544 80.76684994638697 l 5.949536990164624 -13.571933924582659 a35.8187172471363,35.8187172471363 0 0,0 0.5625549257946617,0.25240199712157385 l -6.182274034426066 13.467511596944554"/><path fill="#fffc17" stroke="none" d="M 108.76106565485865 80.91482961587045 l 12.253627931404822 -26.693393944022795 a50.37156239855308,50.37156239855308 0 0,0 0.7848891784613549,0.3685159935024704 l -12.711295321165773 26.47851296788032"/><path fill="#ffcd13" stroke="none" d="M 109.73455568895987 81.39251694778311 l 12.23918468132407 -23.39505045812977 a47.40314427491536,47.40314427491536 0 0,0 0.7197489220090425,0.3844649476535556 l -12.640078649861426 23.18090678397446"/><line x1="143.237" x2="145.78" y1="26.818" y2="22.514" stroke="#e1ed5e" stroke-width=".3"/><path id="id2" fill="none" stroke="none" d="M 143.74570117128098 25.957352633546492 a86.0,86.0 0 0,1 28.547481713284135,27.462654790039103"/><text fill="#e1ed5e" style="font-size:6.75px;font-family:Arial" text-anchor="middle"><textPath startOffset="19.986" xlink:href="#id2">February</textPath></text><path fill="#ff9f0e" stroke="none" d="M 110.68208982089419 81.91981866633111 l 12.021623785356372 -20.347435905214617 a44.63339980522191,44.63339980522191 0 0,0 0.6581044615890959,0.39650057452635046 l -12.370090313163105 20.137488721229655"/><path fill="#fffb17" stroke="none" d="M 113.6212207817346 84.01681056812373 l 18.998201317565663 -22.29255772219444 a50.28975559987015,50.28975559987015 0 0,0 0.6540211485172931,0.5671606951627796 l -19.379116264729717 21.962232033611993"/><path fill="#ff5708" stroke="none" d="M 113.89432698308785 84.25364557470407 l 12.876238747068793 -14.592561354203438 a40.46125307239252,40.46125307239252 0 0,0 0.5182682145034085,0.4653063201628145 l -13.125517949168191 14.368756025271328"/><path fill="#ff860c" stroke="none" d="M 115.4437574822437 85.77008943001954 l 16.28459462383596 -15.004659677672208 a43.14334740063998,43.14334740063998 0 0,0 0.498524171994139,0.5504828420887157 l -16.540462436446138 14.722124048313944"/><path fill="#ff700a" stroke="none" d="M 115.68641384162765 86.03803664274999 l 15.61730428753247 -13.900451205928832 a41.90748040625145,41.90748040625145 0 0,0 0.4749676816018928,0.5429701665367043 l -15.85426383271221 13.629565483189179"/><path fill="#ffb310" stroke="none" d="M 117.65298651832404 88.62581576622439 l 20.878547288263135 -13.452479734451579 a45.83712841441358,45.83712841441358 0 0,0 0.4216413465235751,0.666935352811908 l -21.107016231032667 13.091096733925465"/><line x1="172.234" x2="176.484" y1="55.198" y2="52.563" stroke="#e1ed5e" stroke-width=".3"/><path id="id3" fill="none" stroke="none" d="M 173.08426987136738 54.67131705675599 a86.0,86.0 0 0,1 12.851231095245387,41.99856678651699"/><text fill="#e1ed5e" style="font-size:6.75px;font-family:Arial" text-anchor="middle"><textPath startOffset="22.206" xlink:href="#id3">March</textPath></text><path fill="#fffb17" stroke="none" d="M 118.3937258080291 89.86733742301442 l 25.690480923823788 -14.152270038077953 a50.33065899921161,50.33065899921161 0 0,0 0.41149364338866284,0.7624352261456444 l -25.930282666430916 13.70795382859985"/><path fill="#fffd17" stroke="none" d="M 118.56541770881063 90.18545643968196 l 26.007771308725268 -13.748917930089842 a50.41830914065761,50.41830914065761 0 0,0 0.3990022559616369,0.7707453586505565 l -26.24058299784702 13.299199849178942"/><path fill="#ffa00e" stroke="none" d="M 119.47837535516314 92.15188598940014 l 21.96161302391717 -8.848645727667927 a44.6772248759449,44.6772248759449 0 0,0 0.2812674905707458,0.7157950841907846 l -22.110674064369615 8.469301638581358"/><path fill="#bdff1f" stroke="none" d="M 119.61058180528143 92.48833698450437 l 31.709063916103617 -12.145881496001056 a54.95566479617864,54.95566479617864 0 0,0 0.33076875552760693,0.8862958169351088 l -31.91343726013285 11.598262542036615"/><path fill="#91ff24" stroke="none" d="M 120.28053869075195 94.5502522615342 l 35.76345980224658 -9.6102888167306 a58.03218476093308,58.03218476093308 0 0,0 0.25093024980347833,0.9669366133838102 l -35.92358638392036 8.99325577779794"/><path fill="#abff21" stroke="none" d="M 120.78858239683441 97.02765380044208 l 34.82856409906043 -4.9797791960872395 a56.182766776422575,56.182766776422575 0 0,0 0.12864248621956537,0.9585359441929034 l -34.90912258433783 4.379524909829671"/><line x1="184.98" x2="189.979" y1="98.171" y2="98.064" stroke="#e1ed5e" stroke-width=".3"/><path id="id4" fill="none" stroke="none" d="M 185.9800911702706 98.14961562048488 a86.0,86.0 0 0,1 -9.607161424134198,41.387399972396054"/><text fill="#e1ed5e" style="font-size:6.75px;font-family:Arial" text-anchor="middle"><textPath startOffset="21.466" xlink:href="#id4">April</textPath></text><path fill="#d5ff1c" stroke="none" d="M 120.99980553446 99.90962569577887 l 32.278326514591754 -0.1389123006587736 a53.278625423178596,53.278625423178596 0 0,0 -0.0039469381896377435,0.9171294335626314 l -32.275935279112616 -0.41672661110754255"/><path fill="#fffc17" stroke="none" d="M 120.99824983174949 100.27111621757518 l 29.35450739360278 0.37900696853806903 a50.35695404164541,50.35695404164541 0 0,0 -0.018651106281422785,0.8666436207828471 l -29.34363422463635 -0.884240405111031"/><path fill="#fffe18" stroke="none" d="M 120.9904718944345 100.63252640178507 l 29.498412550064867 0.8889044916427671 a50.51180262486667,50.51180262486667 0 0,0 -0.03366940488519664,0.8688577334494993 l -29.478741012328467 -1.3965394721062727"/><path fill="#fffe18" stroke="none" d="M 120.89721153311464 102.0752229133903 l 29.373166273578438 2.916937869588953 a50.51764596762973,50.51764596762973 0 0,0 -0.09337994047847872,0.8645822747851458 l -29.318604031598905 -3.4221164662588905"/><path fill="#ffd814" stroke="none" d="M 120.8583938346157 102.4346265915055 l 26.936086570454425 3.1440250460076236 a48.11895376339099,48.11895376339099 0 0,0 -0.10310858552253772,0.8218768760568614 l -26.87797647568504 -3.60721967635188"/><path fill="#ff0100" stroke="none" d="M 120.5718875245553 104.21870165774334 l 14.465100340736788 2.9663754827577087 a35.7661271622687,35.7661271622687 0 0,0 -0.1288703996588985,0.602039604041237 l -14.411895902353447 -3.2149289062151145"/><path fill="#fffe18" stroke="none" d="M 120.41448212921028 104.9243191809786 l 28.688960346958183 6.9202636062326475 a50.51180262486667,50.51180262486667 0 0,0 -0.21116022690592096,0.8434801410663944 l -28.5655888057572 -7.413071586696438"/><path fill="#ffa30f" stroke="none" d="M 120.23288151984713 105.62410040840565 l 23.023429664355092 6.399784432641544 a44.89635022955989,44.89635022955989 0 0,0 -0.21338030142145423,0.742804822113749 l -22.90985672604754 -6.795146730259876"/><path fill="#ffff18" stroke="none" d="M 119.79798401119884 107.00284435728193 l 27.839107415645312 9.84711050211683 a50.52933265315587,50.52933265315587 0 0,0 -0.29710222334576897,0.8174977183199876 l -27.66548093129432 -10.324856017442949"/><path fill="#ffe515" stroke="none" d="M 119.67450827220406 107.3425965602758 l 26.12166661990122 9.7486990179537 a48.88150999397115,48.88150999397115 0 0,0 -0.3009837554441733,0.7857736091226102 l -25.94998858486354 -10.196896193909454"/><path fill="#d4ff1c" stroke="none" d="M 118.81262510543309 109.33194174019688 l 28.994981345543906 14.382866567439736 a53.36627556462459,53.36627556462459 0 0,0 -0.41529465434873697,0.8194157520441246 l -28.7431080214089 -14.879836531186555"/><path fill="#ffb911" stroke="none" d="M 118.64920377521936 109.65438752849418 l 22.373336384600915 11.582310020619396 a46.19357232296063,46.19357232296063 0 0,0 -0.3716327704807713,0.7029891482833779 l -22.170651105895253 -11.965714183988908"/><line x1="174.801" x2="179.201" y1="140.371" y2="142.746" stroke="#e1ed5e" stroke-width=".3"/><path id="id5" fill="none" stroke="none" d="M 175.68104954172406 140.8457921977663 a86.0,86.0 0 0,1 -30.038265399797805,32.042727171017184"/><text fill="#e1ed5e" style="font-size:6.75px;font-family:Arial" text-anchor="middle"><textPath startOffset="22.206" xlink:href="#id5">May</textPath></text><path fill="#fffb17" stroke="none" d="M 118.48025628344425 109.97397251340804 l 25.795911231061936 13.922302030379301 a50.31312897092241,50.31312897092241 0 0,0 -0.41789507651607444,0.7586009497070257 l -25.55243974509435 -14.364273498484131"/><path fill="#ffb410" stroke="none" d="M 117.94076556474637 110.91462005526583 l 21.256350166866397 12.931721614428941 a45.88095348513657,45.88095348513657 0 0,0 -0.41628304784133,0.6711808205282473 l -21.030602479357103 -13.295698766322461"/><path fill="#d3ff1c" stroke="none" d="M 117.55443506779139 111.5257021239791 l 27.09975581026014 17.792866127302148 a53.41886564949218,53.41886564949218 0 0,0 -0.5112869575252302,0.7643046291748498 l -26.78946574732419 -18.256707670682804"/><path fill="#ff0100" stroke="none" d="M 117.35343817320211 111.8261652097733 l 12.185150831537962 8.304037816684945 a35.74567546259797,35.74567546259797 0 0,0 -0.3508848148922206,0.5054757460783581 l -12.040405109483606 -8.512554824950321"/><path fill="#ff0100" stroke="none" d="M 116.498646956653 112.99209946851258 l 11.59641484371529 9.131765503166372 a35.76028381950563,35.76028381950563 0 0,0 -0.3849885538773741,0.4803324156583141 l -11.437508377783063 -9.330025752402937"/><path fill="#feff18" stroke="none" d="M 115.80600337817218 113.82643327865902 l 22.315909977511186 19.52102836968396 a50.649121179798726,50.649121179798726 0 0,0 -0.57966990707874,0.6512652856414579 l -21.97658122078411 -19.902267825066286"/><path fill="#fffd17" stroke="none" d="M 114.29624159901734 115.38237550388516 l 20.01725763379546 21.538036507596377 a50.40370078374994,50.40370078374994 0 0,0 -0.6406081165581068,0.5851803258039883 l -19.64354996777049 -21.879409599986946"/><path fill="#33ff2f" stroke="none" d="M 114.0293411484842 115.62618273729858 l 29.484843582386823 32.8408546718405 a65.13476788944024,65.13476788944024 0 0,0 -0.8407274727660579,0.7418442450089296 l -28.915173756714175 -33.34352205862172"/><path fill="#ff0400" stroke="none" d="M 112.92097659922987 116.55440617244103 l 9.168062976775825 11.746158439843612 a35.900524045819225,35.900524045819225 0 0,0 -0.49042042765590776,0.3760334713266988 l -8.964513820626424 -11.902231252997682"/><path fill="#ff0400" stroke="none" d="M 112.34349029814194 116.9893568818739 l 8.758308285561917 12.054777178160299 a35.900524045819225,35.900524045819225 0 0,0 -0.5030734829804093,0.358929572677111 l -8.549507474732623 -12.20375101268163"/><path fill="#4be0ff" stroke="none" d="M 112.04921762599082 117.19931262002967 l 35.47542689809644 50.63838802556249 a82.8284097760052,82.8284097760052 0 0,0 -1.174755790924658,0.8080077449931878 l -34.59851422254889 -51.241536559920775"/><path fill="#fffb17" stroke="none" d="M 111.7513745106137 117.40417183066458 l 16.40985196350644 24.30353002797112 a50.32481565644855,50.32481565644855 0 0,0 -0.7221019161207204,0.4785697749908275 l -15.989075348645754 -24.582397824053267"/><path fill="#fffe18" stroke="none" d="M 111.45004920935366 117.60387380957326 l 16.063946977756675 24.697509181802637 a50.4621342113806,50.4621342113806 0 0,0 -0.7322252667503731,0.4673408092795225 l -15.636439908959371 -24.970364419905966"/><line x1="143.865" x2="146.446" y1="172.807" y2="177.09" stroke="#e1ed5e" stroke-width=".3"/><path id="id6" fill="none" stroke="none" d="M 144.38136562736335 173.6633856474863 a86.0,86.0 0 0,1 -40.68145358897372,12.25698825130547"/><text fill="#e1ed5e" style="font-size:6.75px;font-family:Arial" text-anchor="middle"><textPath startOffset="21.466" xlink:href="#id6">June</textPath></text><path fill="#fffb17" stroke="none" d="M 110.21172684928248 118.3499491758327 l 14.261278223776511 25.62678520989778 a50.32773732783008,50.32773732783008 0 0,0 -0.7606131313390456,0.4147469247790354 l -13.818042280568816 -25.868472786436588"/><path fill="#fffd17" stroke="none" d="M 109.89434966115114 118.52300852407294 l 13.855209758310934 25.938053257171173 a50.406622455131476,50.406622455131476 0 0,0 -0.7688428450138497,0.4022222387543175 l -13.406676010770589 -26.17270491487021"/><path fill="#fffc17" stroke="none" d="M 107.93186726928326 119.44442032107085 l 11.09387306841877 27.19585736971552 a50.37156239855308,50.37156239855308 0 0,0 -0.8056545798340952,0.3205865841315821 l -10.62409741254281 -27.38279079825317"/><path fill="#fffb17" stroke="none" d="M 107.59598834532513 119.57807347666477 l 10.591336344226004 27.2983516741364 a50.28099058572555,50.28099058572555 0 0,0 -0.8095952498431467,0.30611964917890616 l -10.119870873622581 -27.476619573421935"/><path fill="#fffd17" stroke="none" d="M 105.18746579009965 120.34920634021253 l 7.2633662818109155 28.492474972114113 a50.40370078374994,50.40370078374994 0 0,0 -0.8425739808057834,0.20708418475895654 l -6.771839016261921 -28.6132804151871"/><path fill="#ff0701" stroke="none" d="M 104.13013068566511 120.58985236759428 l 2.964431323194307 14.778516212644648 a36.072902657329685,36.072902657329685 0 0,0 -0.6098594609406887,0.11688101716703336 l -2.709604247681914 -14.827354428160149"/><line x1="102.195" x2="102.324" y1="184.972" y2="189.97" stroke="#e1ed5e" stroke-width=".3"/><path id="id7" fill="none" stroke="none" d="M 102.22038585953345 185.97133177190398 a86.0,86.0 0 0,1 -42.740103519485714,-10.115201625700543"/><text fill="#e1ed5e" style="font-size:6.75px;font-family:Arial" text-anchor="middle"><textPath startOffset="22.206" xlink:href="#id7">July</textPath></text><path fill="#ff6909" stroke="none" d="M 100.54218724476979 120.99299961872073 l 0.5288607484692804 20.47700973800275 a41.48383805592914,41.48383805592914 0 0,0 -0.7139967281608273,0.012292101183365725 l -0.17630433041578525 -20.483079316465275"/><path fill="#fffe18" stroke="none" d="M 98.01472825383883 120.90594882070398 l -2.7860830269713563 29.338910043283544 a50.4708992255252,50.4708992255252 0 0,0 -0.8641757229287079,-0.08957534708290384 l 3.2906913465056573 -29.28660532774488"/><path fill="#fffc17" stroke="none" d="M 97.65516085044442 120.86867818915974 l -3.275358493002559 29.150145483350716 a50.33358067059315,50.33358067059315 0 0,0 -0.8601591334431687,-0.10415329216193521 l 3.776645049497117 -29.089446662463434"/><path fill="#ff3705" stroke="none" d="M 96.22490169976321 120.6578951692458 l -3.1833516854429194 17.419770340972804 a38.70825024347262,38.70825024347262 0 0,0 -0.6544134485569453,-0.12541989493306988 l 3.48273274857156 -17.362393247691266"/><path fill="#fffc17" stroke="none" d="M 95.51606077576429 120.51570834832081 l -6.275809756872135 28.714189952804446 a50.39201409822381,50.39201409822381 0 0,0 -0.8458176000540327,-0.1925053320266083 l 6.7691475063190305 -28.60190788720015"/><path fill="#f9ff18" stroke="none" d="M 95.16358092515715 120.4354850818985 l -6.897667106091091 29.144946098577403 a50.950053332096644,50.950053332096644 0 0,0 -0.8517070887805127,-0.20932888049173162 l 7.398327479614814 -29.021895959771644"/><path fill="#ff3805" stroke="none" d="M 93.76903079525671 120.05430185196036 l -5.260333135609465 16.930320962439662 a38.72870194314335,38.72870194314335 0 0,0 -0.6349269243504417,-0.2032835508455896 l 5.550981405050847 -16.837264564934365"/><path fill="#ffff18" stroke="none" d="M 93.08242187328487 119.8279376855182 l -9.737799307068169 27.91157169717661 a50.561471038352735,50.561471038352735 0 0,0 -0.8192895038160962,-0.29376806714411313 l 10.216808371513991 -27.739816088992537"/><path fill="#fbff18" stroke="none" d="M 92.7421414339146 119.70592522655815 l -10.30364821337505 27.97559630085786 a50.812734777164586,50.812734777164586 0 0,0 -0.8181570853699502,-0.30935700276800127 l 10.783675519505284 -27.794091047983223"/><path fill="#fffc17" stroke="none" d="M 90.7491055286396 118.85261126421891 l -12.93743791116004 26.365503189898693 a50.368640727171545,50.368640727171545 0 0,0 -0.7750680679198307,-0.3886352194041555 l 13.389359886762632 -26.138900129585235"/><path fill="#feff18" stroke="none" d="M 90.42595943632237 118.69057910512821 l -13.517232802513647 26.388535467074306 a50.649121179798726,50.649121179798726 0 0,0 -0.772541632996547,-0.4041572698113488 l 13.969465338036688 -26.15194877831824"/><line x1="58.667" x2="56.235" y1="174.274" y2="178.643" stroke="#e1ed5e" stroke-width=".3"/><path id="id8" fill="none" stroke="none" d="M 58.180547188652646 175.14741091055294 a86.0,86.0 0 0,1 -31.652253787137756,-30.449443065178592"/><text fill="#e1ed5e" style="font-size:6.75px;font-family:Arial" text-anchor="middle"><textPath startOffset="22.206" xlink:href="#id8">August</textPath></text><path fill="#ccff1d" stroke="none" d="M 88.54995079064634 117.60387380957326 l -17.927772638603106 27.563047236414807 a53.88048972777443,53.88048972777443 0 0,0 -0.7731216571076203,-0.5123828772954974 l 18.399568994450686 -27.25036633802799"/><path fill="#ffa10e" stroke="none" d="M 88.24862548938628 117.40417183066458 l -13.295299010385015 19.690774752163104 a44.759031674627835,44.759031674627835 0 0,0 -0.6348175921539946,-0.43663332845936637 l 13.6322734871619 -19.45900063433864"/><path fill="#f5ff19" stroke="none" d="M 86.51685102203217 116.09983520530335 l -19.39089797132869 23.154106086892455 a51.2013170709085,51.2013170709085 0 0,0 -0.6708214271872108,-0.571688573409013 l 19.78658487509296 -22.816893123260492"/><path fill="#fffd17" stroke="none" d="M 86.24171649860922 115.8653595955263 l -19.262107342368235 22.21209204792206 a50.40077911236841,50.40077911236841 0 0,0 -0.650548409422542,-0.5740333333488156 l 19.641598104697366 -21.877235572800956"/><path fill="red" stroke="none" d="M 84.67929136418377 114.36230785411682 l -10.732240594722636 10.060875580226993 a35.71061540601957,35.71061540601957 0 0,0 -0.4165449293517883,-0.452077252188671 l 10.903831932070155 -9.874647073236977"/><path fill="#fffc17" stroke="none" d="M 83.06392112726016 112.41649034213515 l -23.687576066547365 17.366272421669244 a50.37156239855308,50.37156239855308 0 0,0 -0.5066424699136869,-0.7036820785074541 l 23.98299832883666 -16.95595673771065"/><line x1="26.633" x2="22.317" y1="142.922" y2="145.446" stroke="#e1ed5e" stroke-width=".3"/><path id="id9" fill="none" stroke="none" d="M 25.769776987707644 143.4266507060508 a86.0,86.0 0 0,1 -11.730757126820373,-40.83630448921669"/><text fill="#e1ed5e" style="font-size:6.75px;font-family:Arial" text-anchor="middle"><textPath startOffset="21.466" xlink:href="#id9">September</textPath></text><path fill="#fffd17" stroke="none" d="M 81.69416730710424 110.29060199501025 l -25.62629808782411 14.4057928776784 a50.397857440986876,50.397857440986876 0 0,0 -0.41859882146702543,-0.7598784512095293 l 25.87047331874265 -13.962543908071048"/><path fill="#edff1a" stroke="none" d="M 80.58989483394504 108.01547362559985 l -28.384679599369793 11.721556825860965 a51.709687891295275,51.709687891295275 0 0,0 -0.33265922150859056,-0.8256329066001209 l 28.582241435135774 -11.23122455141804"/><path fill="#e8ff1a" stroke="none" d="M 80.45479744820244 107.68017299344265 l -28.92486938878691 11.365858201259032 a52.077818485368454,52.077818485368454 0 0,0 -0.3206647541166208,-0.8371544862571867 l 29.116228422497038 -10.866280148168686"/><path fill="#fffc17" stroke="none" d="M 79.76711848015287 105.62410040840567 l -28.298635336320057 7.866124575295956 a50.37156239855308,50.37156239855308 0 0,0 -0.22502157934659922,-0.8373890068309038 l 28.42984499200843 -7.377844635289513"/><path fill="#ff6a09" stroke="none" d="M 79.67330655649465 105.27499134158121 l -19.914748675392755 5.1680873293254495 a41.57440986875667,41.57440986875667 0 0,0 -0.17379822863508076,-0.694237530212157 l 20.000758218322893 -4.824521959715901"/><path fill="#ffff18" stroke="none" d="M 79.23777060512086 103.15116336523772 l -29.192100857670354 4.430597361558099 a50.52641098177433,50.52641098177433 0 0,0 -0.12310627460037224,-0.8610049978289123 l 29.264041183287326 -3.9274468917487857"/><path fill="#ff6f0a" stroke="none" d="M 79.0095281055655 100.63252640178507 l -20.848348400644795 0.6282436556615946 a41.857811992765384,41.857811992765384 0 0,0 -0.015503211324879635,-0.7203733115679758 l 20.856073674654684 -0.26928052830348986"/><line x1="15.007" x2="10.008" y1="101.097" y2="101.162" stroke="#e1ed5e" stroke-width=".3"/><path id="id10" fill="none" stroke="none" d="M 14.007167355692545 101.11028546245083 a86.0,86.0 0 0,1 10.666146001902534,-42.60595125391555"/><text fill="#e1ed5e" style="font-size:6.75px;font-family:Arial" text-anchor="middle"><textPath startOffset="22.206" xlink:href="#id10">October</textPath></text><path fill="#36ff2f" stroke="none" d="M 79.00175016825051 100.2711162175752 l -43.87692541247216 0.5665113117509616 a64.88058247924687,64.88058247924687 0 0,0 -0.004806423715313698,-1.1168436007082108 l 43.88017613347698 0.18884176716092455"/><path fill="#ffff18" stroke="none" d="M 79.05617556472873 98.46500227214037 l -29.46199631753853 -2.1593046458825884 a50.541019338682005,50.541019338682005 0 0,0 0.07105950877444603,-0.8671059941837933 l 29.42046232494459 2.66612455727416"/><path fill="#ff0c01" stroke="none" d="M 79.3925641242962 95.95851677861259 l -15.0549059662367 -2.952533746997907 a36.34169642443074,36.34169642443074 0 0,0 0.1256742658088421,-0.6128323523909693 l 15.001852404512862 3.2112417555522788"/><path fill="#ff730a" stroke="none" d="M 80.14247586403 93.16781622104843 l -19.919224925151003 -6.853412564982722 a42.06525066085424,42.06525066085424 0 0,0 0.24146839867281436,-0.6826636795323187 l 19.798303445668378 7.195273870941652"/><path fill="#ff3605" stroke="none" d="M 80.2630227832202 92.82701384747504 l -16.593779157028294 -6.0306574205409715 a38.655660158605016,38.655660158605016 0 0,0 0.2326618129756248,-0.6234179865988675 l 16.48751275555104 6.31539854416918"/><path fill="#fffc17" stroke="none" d="M 81.10775173730289 90.83032412892265 l -26.40516524329479 -12.81619864594578 a50.351110698882344,50.351110698882344 0 0,0 0.3851619890690352,-0.776463067060019 l 26.18064324127234 13.268821301504762"/><path fill="#fffb17" stroke="none" d="M 81.26839172434947 90.50648371742162 l -26.16240070666265 -13.25957565656045 a50.33065899921161,50.33065899921161 0 0,0 0.39830860707161836,-0.7694054497790594 l 25.930282666430916 13.707953828599845"/><line x1="26.266" x2="21.929" y1="57.711" y2="55.224" stroke="#e1ed5e" stroke-width=".3"/><path id="id11" fill="none" stroke="none" d="M 25.398753493254645 57.213857153982495 a86.0,86.0 0 0,1 29.58750427330803,-30.492523968695096"/><text fill="#e1ed5e" style="font-size:6.75px;font-family:Arial" text-anchor="middle"><textPath startOffset="21.466" xlink:href="#id11">November</textPath></text><path fill="#fcff18" stroke="none" d="M 82.34701348167596 88.62581576622439 l -24.987453253827688 -16.09993281005885 a50.72508463571859,50.72508463571859 0 0,0 0.47923940302289675,-0.7299144895294353 l 24.70661721544687 16.52766536356595"/><path fill="#4dd2ff" stroke="none" d="M 82.54541684631803 88.32363383020206 l -52.36374946104589 -35.02909850939381 a84.0,84.0 0 0,0 0.8143021373250385,-1.194887906918337 l 51.75302285805211 35.92526443958256"/><path fill="#fffc17" stroke="none" d="M 83.84228863543731 86.58626213691792 l -22.585427734512084 -18.749871211387884 a50.35403237026388,50.35403237026388 0 0,0 0.5593838723861119,-0.6621340661492461 l 22.259333248638846 19.135864227166245"/><path fill="#fffd17" stroke="none" d="M 84.07557802195018 86.31012108654704 l -22.323583339632233 -19.19109863172361 a50.43876084032834,50.43876084032834 0 0,0 0.5716588319547329,-0.6535048661454053 l 21.989932644099653 19.572519054071957"/><path fill="#fffd17" stroke="none" d="M 85.83668400450813 84.49514656593479 l -19.846902384630265 -21.726784369694133 a50.427074154802206,50.427074154802206 0 0,0 0.645920422634522,-0.579913733011896 l 19.46997097439977 22.06519711147531"/><path fill="#ff1e03" stroke="none" d="M 87.51073957382395 83.11751280151077 l -9.700998139313757 -13.11342475942569 a37.31169132309975,37.31169132309975 0 0,0 0.5196180420096422,-0.37752460583888237 l 9.473834780950332 13.27846860008124"/><path fill="#4dd5ff" stroke="none" d="M 87.80319425747018 82.90503203632743 l -36.45127080952787 -51.08987712669625 a83.76042294671427,83.76042294671427 0 0,0 1.180897760467825,-0.827294347411972 l 35.56644190947639 51.709756316872166"/><line x1="56.763" x2="54.22" y1="26.818" y2="22.514" stroke="#e1ed5e" stroke-width=".3"/><path id="id12" fill="none" stroke="none" d="M 56.25429882871897 25.957352633546506 a86.0,86.0 0 0,1 42.265352541879196,-11.944610805530505"/><text fill="#e1ed5e" style="font-size:6.75px;font-family:Arial" text-anchor="middle"><textPath startOffset="22.206" xlink:href="#id12">December</textPath></text><path fill="#fffd17" stroke="none" d="M 89.3179101791058 81.91981866633112 l -14.961266738432773 -25.322986433155577 a50.41246579789454,50.41246579789454 0 0,0 0.7509135250505573,-0.434977581823568 l 14.523156480916894 25.576768172369192"/><path fill="#ffdb14" stroke="none" d="M 89.94658935756843 81.56283822128135 l -13.06388564675289 -23.958135372614958 a48.288410703519915,48.288410703519915 0 0,0 0.7331904260996631,-0.3916449336300031 l 12.649550174124922 24.17945903274671"/><path fill="#fffd17" stroke="none" d="M 91.90106846888425 80.62456947434976 l -11.343311745639612 -27.137104174055686 a50.41246579789454,50.41246579789454 0 0,0 0.8035174036371132,-0.3277749240640598 l 10.87451047241412 27.328339984303323"/><path fill="#ff830c" stroke="none" d="M 93.94186890950719 79.89281104454417 l -6.3407670816367 -21.045269560621545 a42.97973380327413,42.97973380327413 0 0,0 0.7102089556847364,-0.20732946937624558 l 5.977567908228542 21.15129735891649"/><path fill="#33ff57" stroke="none" d="M 94.63758080256005 79.69619591428918 l -11.998111422329355 -45.42861994709477 a67.98631915781664,67.98631915781664 0 0,0 1.1340477758099003,-0.28909402868097345 l 11.214354757834455 45.6284169719446"/><path fill="#ff9e0e" stroke="none" d="M 96.75951476605007 79.25152402106235 l -3.6364727399304435 -23.283941090680017 a44.566201363446645,44.566201363446645 0 0,0 0.7589645729538841,-0.11185164913555162 l 3.2351391865479107 23.343087223976536"/><path fill="#ff6a09" stroke="none" d="M 97.11714578562143 79.19881850522333 l -2.8244297237379605 -20.379620658472945 a41.57440986875667,41.57440986875667 0 0,0 0.7097054099488967,-0.09214013089301899 l 2.473209585281206 20.4252191125301"/><path fill="#ff6d0a" stroke="none" d="M 98.19473922651362 79.07773832637324 l -1.7802284045547654 -20.63214637239714 a41.7088067523072,41.7088067523072 0 0,0 0.7158220544534302,-0.05556156825370912 l 1.4248161607390009 20.659733202839313"/><path fill="#3dffaa" stroke="none" d="M 99.27714615592234 79.0124445844662 l -1.8160684574995716 -52.728276542277435 a73.75954180772621,73.75954180772621 0 0,0 1.2692730385496198,-0.03278157786551537 l 0.9081687837550728 52.75172491228531"/><path fill="#47fffb" stroke="none" d="M 99.63851952072746 79.00311137660856 l -1.0146867527435122 -58.938908064584574 a79.94764179381347,79.94764179381347 0 0,0 1.3761672320160334,-0.011845105837462603 l 1.4438008168015684e-14 58.947641793813474"/></svg>