<?xml version="1.0" encoding="utf-8" ?>
<svg baseProfile="full" height="200mm" version="1.1" viewBox="0,0,200,200" width="200mm" xmlns="http://www.w3.org/2000/svg" xmlns:ev="http://www.w3.org/2001/xml-events" xmlns:xlink="http://www.w3.org/1999/xlink"><defs /><rect fill="#1a1a1a" height="200" width="200" x="0" y="0" /><rect fill="#1a1a1a" height="200" width="180" x="10" y="0" /><text alignment-baseline="middle" fill="#e1ed5e" style="dominant-baseline: central; font-size:9.0px; font-family:Arial;" text-anchor="middle" x="100.0" y="100.0">2018</text><line stroke="#e1ed5e" stroke-width="0.3" x1="100.0" x2="100.0" y1="15.0" y2="10.0" /><path d="M 100.0 14.0 a86.0,86.0 0 0,1 42.46469731375804,11.215312516191453" fill="none" id="id13" stroke="none" /><text fill="#e1ed5e" style="font-size:6.75px; font-family:Arial;" text-anchor="middle"><textPath startOffset="22.20632615414155" xlink:href="#id13">January</textPath></text><path d="M 100.0 79.0 l 0.0 -29.78079816277271 a50.78079816277271,50.78079816277271 0 0,0 0.8741079646533623,0.0075237232175047715 l -0.5126274853808339 29.776385816163767" fill="#baff1f" stroke="none" /><path d="M 102.16513564639614 79.11191278185805 l 1.5314200833120342 -14.774333571700565 a35.853490497504275,35.853490497504275 0 0,0 0.6133222658143429,0.06891390279441113 l -1.7855090526361024 14.745783715435552" fill="#ff750a" stroke="none" /><path d="M 104.307194497241 79.44645832069477 l 3.0325887251799952 -14.471238482289161 a35.78557870316125,35.78557870316125 0 0,0 0.6018065471141892,0.13153160184342524 l -3.281237996447712 14.416893382349864" fill="#ff740a" stroke="none" /><path d="M 104.66035177308747 79.52364482259891 l 3.297947246354734 -14.490309414551543 a35.86087221428069,35.86087221428069 0 0,0 0.6007145433260821,0.14216972409680032 l -3.5468854766433404 14.431393778313874" fill="#ff750a" stroke="none" /><path d="M 106.74666289553966 80.11325718540242 l 7.142548909891381 -21.05367281735699 a43.23225458720971,43.23225458720971 0 0,0 0.7026641188348934,0.2451457138898501 l -7.503895032789548 20.927606250294932" fill="#ffe015" stroke="none" /><path d="M 107.08798089147638 80.2323363322302 l 6.002019766913482 -16.73902764358872 a38.78255571438615,38.78255571438615 0 0,0 0.6264632547633117,0.23073170367021684 l -6.28926534744937 16.63323267211218" fill="#ffa00e" stroke="none" /><path d="M 109.08828744355905 81.06846463323043 l 12.810453676331104 -26.685066723951664 a50.600684273428165,50.600684273428165 0 0,0 0.7819702836028958,0.38370942210428544 l -13.26789522694443 26.460602141712545" fill="#bcff1f" stroke="none" /><line stroke="#e1ed5e" stroke-width="0.3" x1="143.23703022742887" x2="145.7803849466894" y1="26.81831364943548" y2="22.513508569990506" /><path d="M 143.74570117128098 25.957352633546492 a86.0,86.0 0 0,1 28.547481713284135,27.462654790039103" fill="none" id="id14" stroke="none" /><text fill="#e1ed5e" style="font-size:6.75px; font-family:Arial;" text-anchor="middle"><textPath startOffset="19.985693538727396" xlink:href="#id14">February</textPath></text><path d="M 111.2981086023043 82.29822771554956 l 7.969014852969254 -12.48577892319907 a35.81215288355635,35.81215288355635 0 0,0 0.5167744381605786,0.3361244695958294 l -8.182756316914112 12.346755529443712" fill="#ff740a" stroke="none" /><path d="M 113.34407831869373 83.78471172551755 l 9.412120387935289 -11.43730137964632 a35.81215288355635,35.81215288355635 0 0,0 0.47262229794978355,0.3958075826432868 l -9.607600222844189 11.273592639609213" fill="#ff740a" stroke="none" /><path d="M 115.19652480421416 85.50635884689758 l 10.709111004905402 -10.213783346755461 a35.7988657933588,35.7988657933588 0 0,0 0.4214594981196231,0.44958360718032253 l -10.883337824995488 10.027930322697085" fill="#ff740a" stroke="none" /><path d="M 116.82858285166822 87.43820079747576 l 12.02959930886713 -8.97956841266842 a36.01145923651958,36.01145923651958 0 0,0 0.3665235817516976,0.499937753601835 l -12.182385503132457 8.771168215395091" fill="#ff770b" stroke="none" /><path d="M 117.04232023915458 87.72973835380427 l 25.420306178202335 -18.302308814519833 a52.32357696904366,52.32357696904366 0 0,0 0.5199652476266481,0.735453968052924 l -25.731584045632864 17.862028346135116" fill="#a6ff21" stroke="none" /><line stroke="#e1ed5e" stroke-width="0.3" x1="172.23445277983987" x2="176.4835382374775" y1="55.19839476539836" y2="52.563006222186495" /><path d="M 173.08426987136738 54.67131705675599 a86.0,86.0 0 0,1 12.851231095245387,41.99856678651699" fill="none" id="id15" stroke="none" /><text fill="#e1ed5e" style="font-size:6.75px; font-family:Arial;" text-anchor="middle"><textPath startOffset="22.20632615414155" xlink:href="#id15">March</textPath></text><path d="M 118.03404312379186 89.2402003453031 l 9.009203274037327 -5.375235137881763 a31.49089588264242,31.49089588264242 0 0,0 0.2737313516970751,0.46789561137163743 l -9.10039430020473 5.21936011415623" fill="#ff3104" stroke="none" /><path d="M 118.3937258080291 89.86733742301442 l 32.35249169201228 -17.822212055416944 a57.93663440583038,57.93663440583038 0 0,0 0.47367861362009084,0.8776545317242634 l -32.654478404850835 17.26267654036022" fill="#63ff29" stroke="none" /><path d="M 119.34039704204932 91.81776055985345 l 14.284691349830354 -6.0433487843493285 a36.5104632906053,36.5104632906053 0 0,0 0.2398881969448159,0.5809082966629716 l -14.386601233661368 5.796565917233053" fill="#ff7f0b" stroke="none" /><path d="M 119.47837535516314 92.15188598940014 l 13.841591973143831 -5.5769739474006945 a35.922878635202586,35.922878635202586 0 0,0 0.2261541077328876,0.5755375363724703 l -13.93553963075842 5.33788740613244" fill="#ff760a" stroke="none" /><path d="M 119.97218684219823 93.5106431181261 l 7.302651121290252 -2.3727751840245217 a28.678461790827924,28.678461790827924 0 0,0 0.14850597398645554,0.47080452045401067 l -7.342412579044914 2.246720497144092" fill="#ff0400" stroke="none" /><path d="M 120.28053869075195 94.5502522615342 l 60.84161607225586 -16.349243215397394 a84.0,84.0 0 0,0 0.3632146725187799,1.3996142978045985 l -61.114027076644945 15.299532492043943" fill="#4dd2ff" stroke="none" /><path d="M 120.78858239683441 97.02765380044208 l 14.655724060327758 -2.0954716815668037 a35.80477116677993,35.80477116677993 0 0,0 0.08198269764368599,0.6108663226490102 l -14.68962275702928 1.8428870168531293" fill="#ff740a" stroke="none" /><path d="M 120.91429891909075 98.10471618934814 l 8.864549587551721 -0.8033182172160447 a29.900874089002414,29.900874089002414 0 0,0 0.04203994008219481,0.5129937522662098 l -8.877064011453411 0.6506105477420662" fill="#ff1802" stroke="none" /><line stroke="#e1ed5e" stroke-width="0.3" x1="184.98032266829074" x2="189.97916517819016" y1="98.17113171792111" y2="98.06355123074" /><path d="M 185.9800911702706 98.14961562048488 a86.0,86.0 0 0,1 -9.607161424134198,41.387399972396054" fill="none" id="id16" stroke="none" /><text fill="#e1ed5e" style="font-size:6.75px; font-family:Arial;" text-anchor="middle"><textPath startOffset="21.466115282336823" xlink:href="#id16">April</textPath></text><path d="M 120.99513854157772 99.54816195383933 l 15.655948809119215 -0.33693291933725295 a36.6595739694889,36.6595739694889 0 0,0 0.00814714146586595,0.6310050849962245 l -15.659428957702795 0.06739157628056569" fill="#ff810b" stroke="none" /><path d="M 120.9764740272857 100.99374915477107 l 14.777862786358828 0.7000932870874442 a35.79443676329295,35.79443676329295 0 0,0 -0.03445410404341548,0.6152011726531214 l -14.763622331427882 -0.954366176075989" fill="#ff740a" stroke="none" /><path d="M 120.95626037817324 101.35467743843564 l 14.781301551862686 0.9555090155244386 a35.81215288355635,35.81215288355635 0 0,0 -0.04506096765821055,0.614821102590796 l -14.762664025540138 -1.2098032546120048" fill="#ff740a" stroke="none" /><path d="M 120.92983693683757 101.71520430193887 l 11.185664499367695 0.9166674316316612 a32.223162186862886,32.223162186862886 0 0,0 -0.05006160359884198,0.5524256241470754 l -11.168228299491778 -1.109074444327307" fill="#ff3d05" stroke="none" /><path d="M 120.5718875245553 104.21870165774334 l 14.549236413916962 2.98362936823504 a35.85201415414899,35.85201415414899 0 0,0 -0.129179862601836,0.6034853118851226 l -14.495722512590683 -3.2336284995363314" fill="#ff750a" stroke="none" /><path d="M 120.49622156327973 104.57218783832717 l 14.462581198695101 3.2262355119131376 a35.81805825697748,35.81805825697748 0 0,0 -0.13941656244722994,0.6006029021522286 l -14.404904070317318 -3.474707071413931" fill="#ff740a" stroke="none" /><path d="M 119.9155931802556 106.66101706037122 l 21.02261136560855 7.03127301770257 a43.16729547957725,43.16729547957725 0 0,0 -0.24175570246576714,0.7026552347013978 l -20.89846483219955 -7.392100955493268" fill="#ffdf14" stroke="none" /><path d="M 119.79798401119884 107.00284435728193 l 14.198151165718789 5.022099357108679 a36.06017856724392,36.06017856724392 0 0,0 -0.21202653318447273,0.5834059575511151 l -14.10960037152909 -5.2657531116659255" fill="#ff780b" stroke="none" /><path d="M 119.41010516605496 108.01547362559984 l 13.798536552795523 5.698155927780953 a35.92878400862372,35.92878400862372 0 0,0 -0.24097780831276727,0.569600355157572 l -13.698407763290447 -5.934830808604689" fill="#ff760a" stroke="none" /><line stroke="#e1ed5e" stroke-width="0.3" x1="174.80103733775053" x2="179.2010983576182" y1="140.37084112569926" y2="142.7455964860345" /><path d="M 175.68104954172406 140.8457921977663 a86.0,86.0 0 0,1 -30.038265399797805,32.042727171017184" fill="none" id="id17" stroke="none" /><text fill="#e1ed5e" style="font-size:6.75px; font-family:Arial;" text-anchor="middle"><textPath startOffset="22.206326154141568" xlink:href="#id17">May</textPath></text><path d="M 118.48025628344425 109.97397251340804 l 55.00813519375457 29.688420984066983 a83.50837766269069,83.50837766269069 0 0,0 -0.6936110034669553,1.2591054442275271 l -54.48894778083611 -30.630896946692314" fill="#4cd7ff" stroke="none" /><path d="M 116.0416608686014 113.55231037782055 l 11.323857013682652 9.566616959461214 a35.82396363039861,35.82396363039861 0 0,0 -0.4020088269698776,0.4676270871379422 l -11.157505677141994 -9.760121145760683" fill="#ff740a" stroke="none" /><path d="M 114.55890576462653 115.13401014063108 l 10.255681749224884 10.660800619299561 a35.792960419937664,35.792960419937664 0 0,0 -0.44769181349456066,0.4233205531731749 l -10.070654101339516 -10.835755809218657" fill="#ff740a" stroke="none" /><path d="M 113.48314897796784 116.09983520530334 l 4.959377272706001 5.921847851860455 a28.724228434841702,28.724228434841702 0 0,0 -0.38179953288906154,0.3141950227878367 l -4.856707611272248 -6.006337993505469" fill="#ff0500" stroke="none" /><path d="M 112.63410532772338 116.77436683061366 l 9.123628284374744 12.113488347484138 a36.16499894546903,36.16499894546903 0 0,0 -0.5004805827785749,0.37024357033869454 l -8.913762731177604 -12.2687418665626" fill="#ff790b" stroke="none" /><path d="M 112.34349029814194 116.9893568818739 l 8.722852703835407 12.005976756492144 a35.84020340730673,35.84020340730673 0 0,0 -0.5022282108146506,0.3583264934302101 l -8.514897165171872 -12.154347511766574" fill="#ff750a" stroke="none" /><line stroke="#e1ed5e" stroke-width="0.3" x1="143.8653032363475" x2="146.44561519142675" y1="172.8068346515853" y2="177.08958963109032" /><path d="M 144.38136562736335 173.6633856474863 a86.0,86.0 0 0,1 -40.68145358897372,12.25698825130547" fill="none" id="id18" stroke="none" /><text fill="#e1ed5e" style="font-size:6.75px; font-family:Arial;" text-anchor="middle"><textPath startOffset="21.466115282336833" xlink:href="#id18">June</textPath></text><path d="M 110.21172684928248 118.3499491758327 l 7.204899397234719 12.946834527358535 a35.816581913622194,35.816581913622194 0 0,0 -0.5413031455343631,0.29516163438877374 l -6.980973439831708 -13.06893681350708" fill="#ff740a" stroke="none" /><path d="M 107.93186726928326 119.44442032107085 l 3.62401556368701 8.884021817072114 a30.594755465985518,30.594755465985518 0 0,0 -0.4893396926036879,0.194718362507316 l -3.4705547950414557 -8.945087023985499" fill="#ff2303" stroke="none" /><path d="M 105.53697534728816 120.25689768951611 l 3.1277105135889443 11.442657390054269 a32.86241885970051,32.86241885970051 0 0,0 -0.5469394982760486,0.14445169255044804 l -2.930280572501398 -11.4948004319083" fill="#ff4706" stroke="none" /><path d="M 105.18746579009965 120.34920634021253 l 2.0666957068283045 8.107160429075837 a29.366437794389896,29.366437794389896 0 0,0 -0.49090435840539964,0.12065234765234638 l -1.9268380636796936 -8.141534035042213" fill="#ff0f01" stroke="none" /><path d="M 103.41894727170886 120.7198165907248 l 1.3217344255473262 8.010095711508141 a29.118412110702316,29.118412110702316 0 0,0 -0.49524059593382325,0.07734639594759571 l -1.183657966004986 -8.031660414802843" fill="#ff0b01" stroke="none" /><path d="M 100.90346689309514 120.98055641714683 l 0.3192293444118895 7.413231543546035 a28.420101703653366,28.420101703653366 0 0,0 -0.48893354042221443,0.016839859726165442 l -0.19157545231502277 -7.417628201698295" fill="#ff0000" stroke="none" /><line stroke="#e1ed5e" stroke-width="0.3" x1="102.19456741930631" x2="102.32365962044197" y1="184.97166512339345" y2="189.96999836594603" /><path d="M 102.22038585953345 185.97133177190398 a86.0,86.0 0 0,1 -42.740103519485714,-10.115201625700543" fill="none" id="id19" stroke="none" /><text fill="#e1ed5e" style="font-size:6.75px; font-family:Arial;" text-anchor="middle"><textPath startOffset="22.20632615414155" xlink:href="#id19">July</textPath></text><path d="M 100.54218724476979 120.99299961872073 l 0.3828840864513337 14.824925444898398 a35.829869003819745,35.829869003819745 0 0,0 -0.6166837601831282,0.010616770188619114 l -0.1276406363755375 -14.829319692366177" fill="#ff740a" stroke="none" /><path d="M 98.37488393609728 120.93702456842531 l -1.2338893555749086 15.896693366226428 a36.944508237058564,36.944508237058564 0 0,0 -0.633608312848622,-0.05467039131731778 l 1.5073419861650723 -15.873098722630447" fill="#ff850c" stroke="none" /><path d="M 98.01472825383883 120.90594882070398 l -0.823455344293882 8.671415042918484 a29.71042579617088,29.71042579617088 0 0,0 -0.5087095551081601,-0.05272982537483554 l 0.9725974960076353 -8.655955849087887" fill="#ff1502" stroke="none" /><path d="M 95.86986931433489 120.58985236759428 l -3.1979888481181593 15.942865557379369 a37.26044571508916,37.26044571508916 0 0,0 -0.6277649449973983,-0.13155424786843986 l 3.4719452545449445 -15.885455328784388" fill="#ff8a0c" stroke="none" /><path d="M 95.51606077576429 120.51570834832081 l -3.361929920076434 15.382093797120532 a36.74520188409533,36.74520188409533 0 0,0 -0.6167592033635726,-0.1403723866899746 l 3.6262092728328694 -15.321944676852873" fill="#ff820c" stroke="none" /><path d="M 93.42475214034765 119.94407469862007 l -4.638713866258151 14.07017010292122 a35.815105570266915,35.815105570266915 0 0,0 -0.583837840702425,-0.19806949451710454 l 4.880221439897801 -13.988237621505991" fill="#ff740a" stroke="none" /><path d="M 93.08242187328487 119.8279376855182 l -4.926908162192788 14.122056337167635 a35.9568345323741,35.9568345323741 0 0,0 -0.5826384501447847,-0.2089134189387773 l 5.1692661729672995 -14.035155377188898" fill="#ff760a" stroke="none" /><path d="M 91.07499286063937 119.00905698771935 l -6.29203277905292 13.40117803806971 a35.80477116677993,35.80477116677993 0 0,0 -0.5556343499239891,-0.26673825380735683 l 6.5217797969771505 -13.290885507762791" fill="#ff740a" stroke="none" /><path d="M 90.7491055286396 118.85261126421891 l -4.660458119778447 9.497655120525346 a31.57947648395941,31.57947648395941 0 0,0 -0.48594211539122106,-0.24366146464999355 l 4.823254142852428 -9.41602581496605" fill="#ff3304" stroke="none" /><line stroke="#e1ed5e" stroke-width="0.3" x1="58.666819895761336" x2="56.23545636021788" y1="174.27360380694188" y2="178.64263932499728" /><path d="M 58.180547188652646 175.14741091055294 a86.0,86.0 0 0,1 -31.652253787137756,-30.449443065178592" fill="none" id="id20" stroke="none" /><text fill="#e1ed5e" style="font-size:6.75px; font-family:Arial;" text-anchor="middle"><textPath startOffset="22.20632615414155" xlink:href="#id20">August</textPath></text><path d="M 88.8546689885994 117.79835938074946 l -7.863605232611935 12.557659509188586 a35.816581913622194,35.816581913622194 0 0,0 -0.5197125855979862,-0.3317051614785627 l 8.078599620256844 -12.420439918886219" fill="#ff740a" stroke="none" /><path d="M 88.54995079064634 117.60387380957326 l -5.660493476449396 8.70272354619449 a31.381646474351463,31.381646474351463 0 0,0 -0.45028971799618905,-0.29842747154003385 l 5.809457893185547 -8.60399805356314" fill="#ff3004" stroke="none" /><path d="M 86.79598089348748 116.32954008644616 l -9.342107301193403 11.553475834602267 a35.857919527570125,35.857919527570125 0 0,0 -0.476619831827883,-0.39222567348139403 l 9.539597261565975 -11.390955042263691" fill="#ff750a" stroke="none" /><path d="M 86.51685102203217 116.09983520530335 l -9.48935892145638 11.330966904620613 a35.77967332974012,35.77967332974012 0 0,0 -0.46877254141936414,-0.3994981296006864 l 9.682996939452801 -11.165944384796976" fill="#ff740a" stroke="none" /><path d="M 84.9287848128048 114.62390073753433 l -10.678019355790768 10.361095186619472 a35.87858833454409,35.87858833454409 0 0,0 -0.4262606064400053,-0.44693254168489827 l 10.85478651360973 -10.175755528352076" fill="#ff750a" stroke="none" /><path d="M 83.28015986056508 112.70617746262583 l -11.815515647946 8.979155146414474 a35.84020340730673,35.84020340730673 0 0,0 -0.3690495326755478,-0.4944021582315933 l 11.968326447316633 -8.774440108673575" fill="#ff750a" stroke="none" /><path d="M 83.06392112726016 112.41649034213515 l -12.039764925911836 8.826814402995144 a35.92878400862372,35.92878400862372 0 0,0 -0.361375486571117,-0.5019189440540315 l 12.189920204858561 -8.618261853489972" fill="#ff760a" stroke="none" /><line stroke="#e1ed5e" stroke-width="0.3" x1="26.63291911575756" x2="22.317208475507996" y1="142.92168965132927" y2="145.44649492493687" /><path d="M 25.769776987707644 143.4266507060508 a86.0,86.0 0 0,1 -11.730757126820373,-40.83630448921669" fill="none" id="id21" stroke="none" /><text fill="#e1ed5e" style="font-size:6.75px; font-family:Arial;" text-anchor="middle"><textPath startOffset="21.46611528233685" xlink:href="#id21">September</textPath></text><path d="M 81.87401531095188 110.60418214915194 l -16.653750186382727 9.74288588854311 a40.29433131019614,40.29433131019614 0 0,0 -0.3450883358339827,-0.6016906011089407 l 16.818990518369084 -9.454775441575862" fill="#ffb610" stroke="none" /><path d="M 81.69416730710424 110.29060199501025 l -12.919568889272877 7.262720227865947 a35.821010943688044,35.821010943688044 0 0,0 -0.297525206946405,-0.5400946726459939 l 13.0426705056708 -7.039255036822131" fill="#ff740a" stroke="none" /><path d="M 80.73074385275274 108.34839909993369 l -12.296325876917257 5.327379277067332 a34.40076863590561,34.40076863590561 0 0,0 -0.23072926231417992,-0.5453758197884572 l 12.386206120423743 -5.114928931612716" fill="#ff5f08" stroke="none" /><path d="M 80.58989483394504 108.01547362559985 l -14.112387759989245 5.827761926929461 a36.26834298033886,36.26834298033886 0 0,0 -0.23332182485048572,-0.5790856346953129 l 14.210612199097119 -5.583976924391343" fill="#ff7b0b" stroke="none" /><path d="M 79.86692584326677 105.97154293290107 l -12.955125800148513 3.8425373747927405 a34.51297073090713,34.51297073090713 0 0,0 -0.1640308858037576,-0.5710130323134458 l 13.019349322838375 -3.6189668669746986" fill="#ff6008" stroke="none" /><path d="M 79.4281124754447 104.21870165774334 l -8.767144248624717 1.7978887902823895 a29.94959341972676,29.94959341972676 0 0,0 -0.0992188200743776,-0.5059146259782845 l 8.79679300167476 -1.64671043723615" fill="#ff1902" stroke="none" /><path d="M 79.29508885075956 103.50808413554451 l -19.410399328037954 3.2887518065863213 a40.687038642701474,40.687038642701474 0 0,0 -0.11105284167781039,-0.691526151135952 l 19.464133924077057 -2.954146425757156" fill="#ffbc11" stroke="none" /><path d="M 79.23777060512086 103.15116336523772 l -12.58636871595924 1.9102815620025466 a33.73050875260704,33.73050875260704 0 0,0 -0.08218349952476439,-0.5747912042631027 l 12.617386266500604 -1.6933448857590432" fill="#ff5407" stroke="none" /><path d="M 79.18660465613746 102.79330883721812 l -10.980037868934307 1.4736008376128795 a32.078480538045135,32.078480538045135 0 0,0 -0.06873729570792317,-0.5479038780206517 l 11.003776673889078 -1.284379205304819" fill="#ff3b05" stroke="none" /><path d="M 79.0235259727143 100.99374915477108 l -8.893851957342587 0.4213414444091844 a29.90382677571298,29.90382677571298 0 0,0 -0.019932847354625367,-0.5143782206066475 l 8.899786937548413 -0.26818597678854006" fill="#ff1802" stroke="none" /><line stroke="#e1ed5e" stroke-width="0.3" x1="15.007084014347285" x2="10.007500721073583" y1="101.09737516637583" y2="101.16192664675087" /><path d="M 14.007167355692545 101.11028546245083 a86.0,86.0 0 0,1 10.666146001902534,-42.60595125391555" fill="none" id="id22" stroke="none" /><text fill="#e1ed5e" style="font-size:6.75px; font-family:Arial;" text-anchor="middle"><textPath startOffset="22.20632615414155" xlink:href="#id22">October</textPath></text><path d="M 79.00175016825051 100.2711162175752 l -14.79467999534554 0.19101961890694566 a35.79591310664823,35.79591310664823 0 0,0 -0.0026517999545108218,-0.6161849193856268 l 14.795776092589554 0.06367477868235653" fill="#ff740a" stroke="none" /><path d="M 79.03285615573316 98.82574320788736 l -10.589456661862052 -0.593058430005196 a31.606050664354512,31.606050664354512 0 0,0 0.035096877246539114,-0.5429331567583793 l 10.577679193611099 0.775250651016587" fill="#ff3304" stroke="none" /><path d="M 79.08570108090925 98.10471618934814 l -22.104766710773358 -2.003165711996343 a43.19534600332763,43.19534600332763 0 0,0 0.07347913887569137,-0.7399249008135971 l 22.067010446215438 2.3833661435143703" fill="#ffdf14" stroke="none" /><path d="M 79.3925641242962 95.95851677861259 l -14.516427774556655 -2.8469286348488634 a35.792960419937664,35.792960419937664 0 0,0 0.1237766660467907,-0.6035789820323681 l 14.465271812594871 3.096383273044634" fill="#ff740a" stroke="none" /><path d="M 79.46518482838121 95.60439243477599 l -30.62248958969685 -6.554938322138002 a52.31619525226724,52.31619525226724 0 0,0 0.19607515319289448,-0.878966465289841 l 30.50512004950192 7.081082956977802" fill="#a7ff21" stroke="none" /><path d="M 80.02781315780177 93.51064311812611 l -14.133529357221239 -4.592262065447185 a35.86087221428069,35.86087221428069 0 0,0 0.19580498360924176,-0.585431978462903 l 14.052387079840225 4.83486714683241" fill="#ff750a" stroke="none" /><path d="M 80.14247586403 93.16781622104843 l -29.464502454511013 -10.137562686374418 a52.159702856607225,52.159702856607225 0 0,0 0.2994138802495132,-0.8464833589721151 l 29.285635493451693 10.643243671773144" fill="#a9ff21" stroke="none" /><path d="M 80.95270993114464 91.15688171328213 l -13.843241726512785 -6.427025766744031 a36.26243760691772,36.26243760691772 0 0,0 0.26772351534653893,-0.5638940013286177 l 13.730560017324494 6.664362183713181" fill="#ff7b0b" stroke="none" /><path d="M 81.10775173730289 90.83032412892265 l -19.945039638243564 -9.68066617458124 a43.17024816628782,43.17024816628782 0 0,0 0.3302318145824015,-0.6657271871796476 l 19.77544781070775 10.02255295025985" fill="#ffdf14" stroke="none" /><line stroke="#e1ed5e" stroke-width="0.3" x1="26.266209847984257" x2="21.92892807433627" y1="57.711370442889674" y2="55.22380399835377" /><path d="M 25.39875349325466 57.213857153982495 a86.0,86.0 0 0,1 29.58750427330802,-30.492523968695096" fill="none" id="id23" stroke="none" /><text fill="#e1ed5e" style="font-size:6.75px; font-family:Arial;" text-anchor="middle"><textPath startOffset="21.46611528233685" xlink:href="#id23">November</textPath></text><path d="M 82.15384107792192 88.93136811851018 l -13.837224011782567 -8.58219068410596 a37.28259086541841,37.28259086541841 0 0,0 0.34295084265005665,-0.5424658732493856 l 13.687445572886547 8.81910420506956" fill="#ff8a0c" stroke="none" /><path d="M 82.34701348167596 88.62581576622439 l -26.195901818160237 -16.878561207780244 a52.16265554331779,52.16265554331779 0 0,0 0.4928212556409563,-0.7506005828640882 l 25.90148392716136 17.326979854622" fill="#a8ff21" stroke="none" /><path d="M 83.39014120810768 87.1503855733568 l -10.582931846665582 -8.187101132941255 a34.38009982893164,34.38009982893164 0 0,0 0.36614138264345125,-0.4649623737176243 l 10.44043638342816 8.368055900611926" fill="#ff5e08" stroke="none" /><path d="M 83.84228863543731 86.58626213691792 l -48.32092075109313 -40.11484978494471 a83.80216999039206,83.80216999039206 0 0,0 0.930959848833633,-1.101962821166964 l 47.62325028877237 40.94067155574079" fill="#4dd4ff" stroke="none" /><path d="M 84.07557802195018 86.31012108654704 l -5.827100255132001 -5.009431238337309 a28.684367164249057,28.684367164249057 0 0,0 0.32510060824818166,-0.37164619455025394 l 5.740007783305975 5.108992989090504" fill="#ff0400" stroke="none" /><path d="M 85.31137513191541 84.99185889309783 l -5.848876661085308 -5.9761051177203806 a29.362008764324045,29.362008764324045 0 0,0 0.36425215639548447,-0.35041028585585027 l 5.7451412610773955 6.075898490338542" fill="#ff0f01" stroke="none" /><path d="M 86.37877921826538 84.01681056812374 l -4.98813810034839 -5.853099178682781 a28.69027253767019,28.69027253767019 0 0,0 0.3786329903049672,-0.31709424047854 l 4.886647573084313 5.938094576555133" fill="#ff0400" stroke="none" /><path d="M 88.70189139769569 82.29822771554957 l -4.254959889101601 -6.66663188394073 a28.908771354252103,28.908771354252103 0 0,0 0.42176637482822865,-0.26411006522451635 l 4.13957436190113 6.7388862904881766" fill="#ff0801" stroke="none" /><line stroke="#e1ed5e" stroke-width="0.3" x1="56.762969772571076" x2="54.21961505331055" y1="26.818313649435495" y2="22.513508569990535" /><path d="M 56.25429882871897 25.957352633546506 a86.0,86.0 0 0,1 42.265352541879196,-11.944610805530505" fill="none" id="id24" stroke="none" /><text fill="#e1ed5e" style="font-size:6.75px; font-family:Arial;" text-anchor="middle"><textPath startOffset="22.20632615414155" xlink:href="#id24">December</textPath></text><path d="M 89.3179101791058 81.91981866633112 l -9.027446048107882 -15.279581455161358 a38.74712347385935,38.74712347385935 0 0,0 0.5771536585806121,-0.33432465174084885 l 8.763095657061948 15.432710264292252" fill="#ffa00e" stroke="none" /><path d="M 89.63071344664047 81.73862282372117 l -15.39610517237737 -27.11412035453393 a52.180371663581184,52.180371663581184 0 0,0 0.7848820205615709,-0.4367859946687823 l 14.927099062743755 27.3751217467629" fill="#a8ff21" stroke="none" /><path d="M 91.56875222667455 80.76684994638697 l -6.549712082247291 -14.94103822738668 a37.313594075879365,37.313594075879365 0 0,0 0.5904720650778117,-0.25280932278671914 l 6.291556259379171 15.051567078136188" fill="#ff8b0c" stroke="none" /><path d="M 91.90106846888425 80.62456947434976 l -5.778552441306714 -13.824285454842002 a35.9834087127692,35.9834087127692 0 0,0 0.5735346344456124,-0.23395917798741245 l 5.539733937272722 13.92170551901299" fill="#ff770a" stroke="none" /><path d="M 92.91201910852362 80.23233633223022 l -4.501639400107631 -12.554618159583269 a34.33728587162843,34.33728587162843 0 0,0 0.5580920761719182,-0.194707366951208 l 4.284865319872427 12.630246379706689" fill="#ff5e08" stroke="none" /><path d="M 93.94186890950719 79.89281104454417 l -4.601414123803173 -15.272284780170924 a36.95041361047969,36.95041361047969 0 0,0 0.6105788086667661,-0.17824469742318322 l 4.337845097412986 15.349227806512808" fill="#ff850c" stroke="none" /><path d="M 95.33964822691252 79.52364482259891 l -2.0214916063986434 -8.881900366360325 a30.109038502097345,30.109038502097345 0 0,0 0.50634409598845,-0.1106672075082721 l 1.8683047862566726 8.915381071964465" fill="#ff1b02" stroke="none" /><path d="M 96.75951476605007 79.25152402106235 l -2.286101468564721 -14.63766009762421 a35.815105570266915,35.815105570266915 0 0,0 0.6099329867214351,-0.08988826732906058 l 2.0337995014146375 14.67484284911424" fill="#ff740a" stroke="none" /><path d="M 98.55514903715128 79.0497635885617 l -0.5289062613516692 -7.669103249902228 a28.687319850959625,28.687319850959625 0 0,0 0.49292731996679445,-0.029734722066515548 l 0.39681689254525176 7.67707124134905" fill="#ff0400" stroke="none" /><path d="M 99.27714615592234 79.0124445844662 l -0.6160680396330346 -17.88710432609727 a38.897710496098235,38.897710496098235 0 0,0 0.6693617392947853,-0.017287638916495422 l 0.30807966514337026 17.895058757156125" fill="#ffa20f" stroke="none" /><path d="M 99.63851952072746 79.00311137660856 l -0.5128816136206795 -29.791147062354604 a50.79556159632554,50.79556159632554 0 0,0 0.874362092893208,-0.007525910579496119 l 7.297807827547575e-15 29.79556159632554" fill="#baff1f" stroke="none" /></svg>