<svg xmlns="http://www.w3.org/2000/svg" xmlns:ev="http://www.w3.org/2001/xml-events" xmlns:xlink="http://www.w3.org/1999/xlink" width="200mm" height="200mm" baseProfile="full" version="1.1" viewBox="0 0 200 200"><rect width="200" height="200" x="0" y="0" fill="#1a1a1a"/><rect width="180" height="200" x="10" y="0" fill="#1a1a1a"/><text style="dominant-baseline:central;font-size:9px;font-family:Arial" x="100" y="100" fill="#e1ed5e" alignment-baseline="middle" text-anchor="middle">2023</text><line x1="100" x2="100" y1="15" y2="10" stroke="#e1ed5e" stroke-width=".3"/><path id="id73" fill="none" stroke="none" d="M 100.0 14.0 a86.0,86.0 0 0,1 42.46469731375804,11.215312516191453"/><text fill="#e1ed5e" text-anchor="middle" style="font-size:6.75px;font-family:Arial"><textPath startOffset="22.206" xlink:href="#id73">January</textPath></text><path fill="#ffa50f" stroke="none" d="M 100.0 79.0 l 0.0 -15.276090685706336 a36.276090685706336,36.276090685706336 0 0,0 0.6244332689144204,0.0053746942861650935 l -0.26295278964189206 15.27382736802873"/><path fill="#ffa50f" stroke="none" d="M 102.16513564639614 79.11191278185805 l 1.574990880057272 -15.19468164739427 a36.276090685706336,36.276090685706336 0 0,0 0.6205514114669732,0.06972618154012165 l -1.8363089950339706 15.16531951238355"/><path fill="#ffd213" stroke="none" d="M 104.66035177308747 79.52364482259891 l 4.122560704275072 -18.11344321873118 a39.576660948583616,39.576660948583616 0 0,0 0.6629586605155724,0.15690089560878254 l -4.433743051753168 18.039796410981527"/><path fill="#ff2803" stroke="none" d="M 107.08798089147638 80.2323363322302 l 2.1984603905594593 -6.131284247641517 a27.513514766563123,27.513514766563123 0 0,0 0.4444319280445437,0.16368802981413463 l -2.303674644376579 6.092532950021058"/><path fill="#ffa60f" stroke="none" d="M 107.4271985657038 80.35727306442388 l 5.412085857349283 -14.313354316215394 a36.30237841346377,36.30237841346377 0 0,0 0.5825958417090461,0.22603813541365256 l -5.657664864057996 14.218073476911195"/><path fill="#ff5307" stroke="none" d="M 109.73455568895987 81.39251694778311 l 4.376014277906017 -8.364697281946082 a30.440215123556957,30.440215123556957 0 0,0 0.46219111318523587,0.24688648597165644 l -4.519350437619564 8.288132069472672"/><line x1="143.237" x2="145.78" y1="26.818" y2="22.514" stroke="#e1ed5e" stroke-width=".3"/><path id="id74" fill="none" stroke="none" d="M 143.74570117128098 25.957352633546492 a86.0,86.0 0 0,1 28.547481713284135,27.462654790039103"/><text fill="#e1ed5e" text-anchor="middle" style="font-size:6.75px;font-family:Arial"><textPath startOffset="19.986" xlink:href="#id74">February</textPath></text><path fill="#ffa50f" stroke="none" d="M 110.99172775467656 82.1063720568725 l 7.995744284430207 -13.016413483595455 a36.276090685706336,36.276090685706336 0 0,0 0.5292523529955883,0.3314177748921332 l -8.218615789798058 12.876851367380377"/><path fill="#ffa50f" stroke="none" d="M 113.34407831869373 83.78471172551755 l 9.706921453025386 -11.795534008374501 a36.276090685706336,36.276090685706336 0 0,0 0.47874500581576546,0.40093517440139476 l -9.908523995800268 11.626697676579287"/><path fill="#ffa50f" stroke="none" d="M 113.6212207817346 84.01681056812373 l 9.908523995800268 -11.626697676579287 a36.276090685706336,36.276090685706336 0 0,0 0.4717726346247027,0.409116579821803 l -10.107190429071736 11.454416103337811"/><path fill="#e6ff1a" stroke="none" d="M 113.89432698308785 84.25364557470407 l 15.904814002153039 -18.024826870070786 a45.03866660484955,45.03866660484955 0 0,0 0.5769003071443783,0.5179467918466814 l -16.212725296893407 17.748381069454805"/><path fill="#ffa50f" stroke="none" d="M 114.68862486808459 84.99185889309783 l 10.684988834913403 -10.917415455853083 a36.276090685706336,36.276090685706336 0 0,0 0.4425064639791242,0.4406062005947066 l -10.87133109905985 10.731873404608258"/><path fill="#ffa50f" stroke="none" d="M 115.19652480421416 85.50635884689758 l 11.054451953179106 -10.543151267660848 a36.276090685706336,36.276090685706336 0 0,0 0.4270778594604535,0.4555768833298046 l -11.23429713461002 10.351304967452988"/><path fill="#4dd2ff" stroke="none" d="M 115.68641384162765 86.03803664274999 l 47.05924152488298 -41.88589007175005 a84.0,84.0 0 0,0 0.9520325456886072,1.0883377751882088 l -47.773265934149435 41.069636740358895"/><path fill="#ffa50f" stroke="none" d="M 116.38621287248628 86.86637796730983 l 11.919870182637572 -9.553828628722183 a36.276090685706336,36.276090685706336 0 0,0 0.38633331685054906,0.49060407963761615 l -12.082557580082085 9.347232155131529"/><path fill="#ffa50f" stroke="none" d="M 117.04232023915458 87.72973835380427 l 12.397144260389233 -8.925791887839543 a36.276090685706336,36.276090685706336 0 0,0 0.3604934442360391,0.5098924115229133 l -12.548950324429153 8.711072975984836"/><line x1="172.234" x2="176.484" y1="55.198" y2="52.563" stroke="#e1ed5e" stroke-width=".3"/><path id="id75" fill="none" stroke="none" d="M 173.08426987136738 54.67131705675599 a86.0,86.0 0 0,1 12.851231095245387,41.99856678651699"/><text fill="#e1ed5e" text-anchor="middle" style="font-size:6.75px;font-family:Arial"><textPath startOffset="22.206" xlink:href="#id75">March</textPath></text><path fill="#ff1502" stroke="none" d="M 118.56541770881063 90.18545643968196 l 4.6480252041159735 -2.457162373115001 a26.25754555148593,26.25754555148593 0 0,0 0.20779792281073867,0.40139944611992956 l -4.689632560086829 2.3767902047347267"/><path fill="#ffa50f" stroke="none" d="M 119.196687751892 91.48605970444005 l 13.964302045861448 -6.193320192745863 a36.276090685706336,36.276090685706336 0 0,0 0.24824815438692374,0.5729909672144173 l -14.068840910091053 5.9520300809448425"/><path fill="#c2ff1e" stroke="none" d="M 119.47837535516314 92.15188598940014 l 25.019629524539592 -10.08076399757378 a47.97412953776253,47.97412953776253 0 0,0 0.3020233030334783,0.7686163629637498 l -25.18944637745477 9.648598629714245"/><path fill="#ffcd13" stroke="none" d="M 120.37134235888165 94.90015583598534 l 17.652204028350788 -4.419124086672252 a39.196949325420746,39.196949325420746 0 0,0 0.1582197920302133,0.655923184135749 l -17.725656620641818 4.114615670877096"/><path fill="#ffa50f" stroke="none" d="M 120.78858239683441 97.02765380044208 l 15.122298567681947 -2.1621823854172026 a36.276090685706336,36.276090685706336 0 0,0 0.08306188470045349,0.618907519727974 l -15.157276451440238 1.9015565236245642"/><path fill="#ffa50f" stroke="none" d="M 120.98425023603335 99.18683210126433 l 15.26463378939048 -0.591525074466254 a36.276090685706336,36.276090685706336 0 0,0 0.01880881711146185,0.6241730714030302 l -15.272554300957587 0.3286818556382248"/><line x1="184.98" x2="189.979" y1="98.171" y2="98.064" stroke="#e1ed5e" stroke-width=".3"/><path id="id76" fill="none" stroke="none" d="M 185.9800911702706 98.14961562048488 a86.0,86.0 0 0,1 -9.607161424134198,41.387399972396054"/><text fill="#e1ed5e" text-anchor="middle" style="font-size:6.75px;font-family:Arial"><textPath startOffset="21.466" xlink:href="#id76">April</textPath></text><path fill="#ffcd13" stroke="none" d="M 120.99980553446 99.90962569577887 l 18.19678081686946 -0.07831126829676485 a39.196949325420746,39.196949325420746 0 0,0 -0.0029037523956557186,0.674729793546194 l -18.1954327671843 -0.23492800345311385"/><path fill="#a8ff21" stroke="none" d="M 120.9764740272857 100.99374915477107 l 29.19336999170394 1.3830201737640966 a50.22611154898233,50.22611154898233 0 0,0 -0.04834538072071148,0.863239249358084 l -29.1652382600957 -1.885331139457604"/><path fill="#fff316" stroke="none" d="M 120.49622156327973 104.57218783832717 l 20.611203380200163 4.597837369062832 a42.11780796513514,42.11780796513514 0 0,0 -0.16393741844360957,0.706238108014207 l -20.529005395826 -4.951944134425604"/><path fill="red" stroke="none" d="M 119.67450827220406 107.3425965602758 l 3.6504882982688405 1.3623752345599567 a24.896425425379014,24.896425425379014 0 0,0 -0.1532976297702461,0.40021173779543223 l -3.6264963889050876 -1.4250105391885328"/><path fill="#f6ff19" stroke="none" d="M 118.64920377521936 109.65438752849418 l 20.20380845730218 10.459180925324475 a43.7505679447355,43.7505679447355 0 0,0 -0.3519785103809266,0.6658106950757786 l -20.02077743869636 -10.805406635486387"/><line x1="174.801" x2="179.201" y1="140.371" y2="142.746" stroke="#e1ed5e" stroke-width=".3"/><path id="id77" fill="none" stroke="none" d="M 175.68104954172406 140.8457921977663 a86.0,86.0 0 0,1 -30.038265399797805,32.042727171017184"/><text fill="#e1ed5e" text-anchor="middle" style="font-size:6.75px;font-family:Arial"><textPath startOffset="22.206" xlink:href="#id77">May</textPath></text><path fill="#ffa50f" stroke="none" d="M 117.55443506779139 111.5257021239791 l 12.769673430091647 8.384174802968706 a36.276090685706336,36.276090685706336 0 0,0 -0.3472086464602876,0.5190298165703482 l -12.623461678220638 -8.602741533744862"/><path fill="#e6ff1a" stroke="none" d="M 117.35343817320211 111.8261652097733 l 19.864453080641656 13.537392509124325 a45.03866660484955,45.03866660484955 0 0,0 -0.44210618459765133,0.6368869327502741 l -19.62848598888187 -13.877320704061619"/><path fill="#ffa50f" stroke="none" d="M 116.498646956653 112.99209946851258 l 12.00165843339448 9.450880460891199 a36.276090685706336,36.276090685706336 0 0,0 -0.39054163451009305,0.4872607375728115 l -11.837198886829533 -9.656069032042259"/><path fill="#ffa50f" stroke="none" d="M 116.27256486870786 113.27417163493432 l 11.837198886829533 9.656069032042259 a36.276090685706336,36.276090685706336 0 0,0 -0.398871164169246,0.48046601238805814 l -11.669231722766744 -9.858396301544088"/><path fill="#ffa50f" stroke="none" d="M 114.81725581225074 114.88116024355365 l 10.778559214345313 10.825045399478732 a36.276090685706336,36.276090685706336 0 0,0 -0.4462823693462971,0.4367812283929663 l -10.59062689262322 -11.00897673079427"/><path fill="#ffa40f" stroke="none" d="M 114.29624159901734 115.38237550388516 l 10.339903052745628 11.12546051558294 a36.188464926514904,36.188464926514904 0 0,0 -0.4599389329994962,0.42014331024819407 l -10.146864570279268 -11.301796592417716"/><path fill="#ffa50f" stroke="none" d="M 112.63410532772338 116.77436683061366 l 9.201007301584623 12.216224867878871 a36.29361583754462,36.29361583754462 0 0,0 -0.5022604876307283,0.3715603013968023 l -8.98936184353533 -12.372795118015443"/><path fill="#ffa50f" stroke="none" d="M 112.34349029814194 116.9893568818739 l 8.9790608177406 12.35861697234927 a36.276090685706336,36.276090685706336 0 0,0 -0.5083362924418567,0.36268444749159595 l -8.764997197449858 -12.511345681685084"/><path fill="#ffa50f" stroke="none" d="M 112.04921762599082 117.19931262002967 l 8.764997197449858 12.511345681685084 a36.276090685706336,36.276090685706336 0 0,0 -0.5145039935015991,0.35388053822828863 l -8.548336319325376 -12.660367009278467"/><path fill="#ffa80f" stroke="none" d="M 111.1453310114006 117.79835938074945 l 8.231495341073375 13.145155776129577 a36.509759376883494,36.509759376883494 0 0,0 -0.535512633026026,0.3289555974965297 l -8.004003508115039 -13.284899840454486"/><line x1="143.865" x2="146.446" y1="172.807" y2="177.09" stroke="#e1ed5e" stroke-width=".3"/><path id="id78" fill="none" stroke="none" d="M 144.38136562736335 173.6633856474863 a86.0,86.0 0 0,1 -40.68145358897372,12.25698825130547"/><text fill="#e1ed5e" text-anchor="middle" style="font-size:6.75px;font-family:Arial"><textPath startOffset="21.466" xlink:href="#id78">June</textPath></text><path fill="#ffa80f" stroke="none" d="M 110.21172684928248 118.3499491758327 l 7.541972678801526 13.552537918819368 a36.509759376883494,36.509759376883494 0 0,0 -0.551779274780358,0.3008740553414793 l -7.307570592152519 -13.680352625920618"/><path fill="#a7ff21" stroke="none" d="M 107.59598834532513 119.57807347666477 l 10.583107504537317 27.277142475184437 a50.25824099401919,50.25824099401919 0 0,0 -0.8092289491564103,0.3059811456022863 l -10.112008334620633 -27.455271870893355"/><path fill="#ffa50f" stroke="none" d="M 105.53697534728816 120.25689768951611 l 4.027777977604487 14.735533624577299 a36.276090685706336,36.276090685706336 0 0,0 -0.6037543043852945,0.159456999225637 l -3.773533230407695 -14.80268197310652"/><path fill="#ffa50f" stroke="none" d="M 105.18746579009965 120.34920634021253 l 3.773533230407695 14.80268197310652 a36.276090685706336,36.276090685706336 0 0,0 -0.6064096417892668,0.14904073607851814 l -3.518170303875217 -14.865443967499068"/><path fill="#ffb210" stroke="none" d="M 103.7750983002368 120.6578951692458 l 2.9157291753741488 15.955300460126377 a37.21952802633409,37.21952802633409 0 0,0 -0.6312272946620833,0.10974695629370744 l -2.6406529092400155 -16.00312599494109"/><path fill="#ffa50f" stroke="none" d="M 100.90346689309514 120.98055641714683 l 0.6572115328787975 15.261946784043475 a36.276090685706336,36.276090685706336 0 0,0 -0.6240863469309718,0.02149479565312122 l -0.39440483427317347 -15.270998378122691"/><line x1="102.195" x2="102.324" y1="184.972" y2="189.97" stroke="#e1ed5e" stroke-width=".3"/><path id="id79" fill="none" stroke="none" d="M 102.22038585953345 185.97133177190398 a86.0,86.0 0 0,1 -42.740103519485714,-10.115201625700543"/><text fill="#e1ed5e" text-anchor="middle" style="font-size:6.75px;font-family:Arial"><textPath startOffset="22.206" xlink:href="#id79">July</textPath></text><path fill="#ffa50f" stroke="none" d="M 100.54218724476979 120.99299961872073 l 0.39440483427317347 15.270998378122691 a36.276090685706336,36.276090685706336 0 0,0 -0.6243638793773046,0.010748990405479634 l -0.13148126500320084 -15.275524845807329"/><path fill="#ffa50f" stroke="none" d="M 98.01472825383883 120.90594882070398 l -1.444151963339462 15.207674764562354 a36.276090685706336,36.276090685706336 0 0,0 -0.6211285587218786,-0.06438251475297004 l 1.7057131186669339 -15.180562881353623"/><path fill="#ffa50f" stroke="none" d="M 97.65516085044442 120.86867818915974 l -1.7057131186669339 15.180562881353623 a36.276090685706336,36.276090685706336 0 0,0 -0.6199282926667108,-0.07506468288850836 l 1.966768834385034 -15.148952669739765"/><path fill="#ffa50f" stroke="none" d="M 96.22490169976321 120.6578951692458 l -2.7461306658034825 15.027232380057798 a36.276090685706336,36.276090685706336 0 0,0 -0.6132946195314207,-0.11753937348669043 l 3.0043928999065983 -14.97773580822264"/><path fill="#ffa50f" stroke="none" d="M 93.42475214034765 119.94407469862007 l -4.783051551668848 14.507975892315306 a36.276090685706336,36.276090685706336 0 0,0 -0.591352562496727,-0.20061889615479778 l 5.032073847102801 -14.423494009262384"/><path fill="#dbff1b" stroke="none" d="M 92.7421414339146 119.70592522655815 l -8.629075296429782 23.428937201996252 a45.96749965227873,45.96749965227873 0 0,0 -0.7401419290298465,-0.2798583461317412 l 9.031087446219912 -23.276930605757876"/><path fill="#ffa50f" stroke="none" d="M 91.40352486487194 119.15986991738527 l -6.253358749601703 13.9375195421102 a36.276090685706336,36.276090685706336 0 0,0 -0.5675169894618072,-0.2605192149113414 l 6.492343734830929 -13.827813256864784"/><path fill="#ffa50f" stroke="none" d="M 90.42595943632237 118.69057910512821 l -6.964471994255738 13.59614197039555 a36.276090685706336,36.276090685706336 0 0,0 -0.5533124698764569,-0.28946693307704563 l 7.19747536665869 -13.474245618373788"/><line x1="58.667" x2="56.235" y1="174.274" y2="178.643" stroke="#e1ed5e" stroke-width=".3"/><path id="id80" fill="none" stroke="none" d="M 58.180547188652646 175.14741091055294 a86.0,86.0 0 0,1 -31.652253787137756,-30.449443065178592"/><text fill="#e1ed5e" text-anchor="middle" style="font-size:6.75px;font-family:Arial"><textPath startOffset="22.206" xlink:href="#id80">August</textPath></text><path fill="#ffa50f" stroke="none" d="M 88.8546689885994 117.79835938074946 l -8.107480345350982 12.947111997958132 a36.276090685706336,36.276090685706336 0 0,0 -0.5263802372633724,-0.3359607722404321 l 8.329142384661278 -12.805636796893895"/><path fill="#ffa50f" stroke="none" d="M 88.24862548938628 117.40417183066458 l -8.54833631932538 12.660367009278465 a36.276090685706336,36.276090685706336 0 0,0 -0.514503993501587,-0.35388053822827653 l 8.764997197449857 -12.511345681685087"/><path fill="#ffa50f" stroke="none" d="M 86.79598089348748 116.32954008644616 l -9.605037775565927 11.878644534115642 a36.276090685706336,36.276090685706336 0 0,0 -0.4821781204763058,-0.3967997666326813 l 9.808086024586922 -11.711549648625779"/><path fill="#ffa60f" stroke="none" d="M 86.51685102203217 116.09983520530335 l -9.838091641488145 11.747378481202839 a36.32282442394177,36.32282442394177 0 0,0 -0.4758887136788794,-0.40556268598230555 l 10.03884583174408 -11.576291404997582"/><path fill="#ffa50f" stroke="none" d="M 84.9287848128048 114.62390073753433 l -10.963297616351825 10.63790637358772 a36.276090685706336,36.276090685706336 0 0,0 -0.4309831889365025,-0.45188415055183956 l 11.144787356667287 -10.44761510645338"/><path fill="#ffa50f" stroke="none" d="M 83.28015986056508 112.70617746262583 l -12.162561629548607 9.242891389892872 a36.276090685706336,36.276090685706336 0 0,0 -0.37353789995863623,-0.5004150596857848 l 12.31986079620233 -9.03216345069778"/><path fill="#ffa50f" stroke="none" d="M 82.05923443525364 110.91462005526583 l -13.050702939907758 7.939653607822376 a36.276090685706336,36.276090685706336 0 0,0 -0.3199536071380026,-0.5362606492603915 l 13.185437422743993 -7.713830864675874"/><line x1="26.633" x2="22.317" y1="142.922" y2="145.446" stroke="#e1ed5e" stroke-width=".3"/><path id="id81" fill="none" stroke="none" d="M 25.769776987707644 143.4266507060508 a86.0,86.0 0 0,1 -11.730757126820373,-40.83630448921669"/><text fill="#e1ed5e" text-anchor="middle" style="font-size:6.75px;font-family:Arial"><textPath startOffset="21.466" xlink:href="#id81">September</textPath></text><path fill="#ffa60f" stroke="none" d="M 81.69416730710424 110.29060199501025 l -13.3340876924329 7.4957414782143825 a36.29653669618434,36.29653669618434 0 0,0 -0.301474869286822,-0.5472644570508218 l 13.46113897117124 -7.265106502765738"/><path fill="#ffa50f" stroke="none" d="M 81.35079622478065 109.6543875284942 l -13.566044194593704 7.022919019058553 a36.276090685706336,36.276090685706336 0 0,0 -0.28229938070534044,-0.5570034598808318 l 13.684922245085312 -6.7883613474750355"/><path fill="#ff6108" stroke="none" d="M 81.02952815118164 109.00673069616217 l -9.401241299643909 4.463486689752764 a31.407019333302422,31.407019333302422 0 0,0 -0.22766407390147295,-0.4903681612369416 l 9.47667999038521 -4.300998461236995"/><path fill="#ffa50f" stroke="none" d="M 79.67330655649465 105.27499134158121 l -14.786305351597147 3.8372021952528717 a36.276090685706336,36.276090685706336 0 0,0 -0.15164906303863945,-0.6057626237606091 l 14.850165728930843 -3.5821117320948708"/><path fill="#ffa50f" stroke="none" d="M 79.23777060512086 103.15116336523772 l -15.103128527314839 2.292259872992715 a36.276090685706336,36.276090685706336 0 0,0 -0.08838574311152753,-0.6181696814633156 l 15.140348321442966 -2.031944719548999"/><path fill="#ffa50f" stroke="none" d="M 79.0235259727143 100.99374915477108 l -15.273565051626036 0.7235769148166253 a36.29069497890491,36.29069497890491 0 0,0 -0.02419011081201442,-0.6242392737169217 l 15.283757295289252 -0.46056039408570687"/><line x1="15.007" x2="10.008" y1="101.097" y2="101.162" stroke="#e1ed5e" stroke-width=".3"/><path id="id82" fill="none" stroke="none" d="M 14.007167355692545 101.11028546245083 a86.0,86.0 0 0,1 10.666146001902534,-42.60595125391555"/><text fill="#e1ed5e" text-anchor="middle" style="font-size:6.75px;font-family:Arial"><textPath startOffset="22.206" xlink:href="#id82">October</textPath></text><path fill="#ffa50f" stroke="none" d="M 79.03285615573316 98.82574320788736 l -15.2521900373938 -0.8541930116485416 a36.276090685706336,36.276090685706336 0 0,0 0.04028271406957065,-0.623155757104967 l 15.235226732319816 1.1166078330065203"/><path fill="#ffa50f" stroke="none" d="M 79.32604984820605 96.31383870115002 l -15.038911302408405 -2.6814349658749235 a36.276090685706336,36.276090685706336 0 0,0 0.11489894815904612,-0.613794775456535 l 14.990526630339497 2.9399078187940315"/><path fill="#e6ff1a" stroke="none" d="M 79.46518482838121 95.60439243477599 l -23.551868779985433 -5.041427045691108 a45.085400343084984,45.085400343084984 0 0,0 0.16897495577433566,-0.7574815940771495 l 23.46159943720906 5.446086809318217"/><path fill="#ffa50f" stroke="none" d="M 79.54389044137918 95.25157060432595 l -14.880446890201718 -3.454163717285262 a36.276090685706336,36.276090685706336 0 0,0 0.14642964880533646,-0.6070454287914384 l 14.818784441135566 3.709794377736097"/><path fill="#91ff23" stroke="none" d="M 80.14247586403 93.16781622104843 l -29.45070886854023 -10.132816862389621 a52.145115675274695,52.145115675274695 0 0,0 0.2993301450224034,-0.8462466282091688 l 29.271925642708016 10.638261117025401"/><path fill="#ffa60f" stroke="none" d="M 80.2630227832202 92.82701384747504 l -14.420465666430204 -5.2408126838351725 a36.34327043441977,36.34327043441977 0 0,0 0.21874393436929138,-0.5861249914677892 l 14.328117143559284 5.488260812332303"/><path fill="#ffa50f" stroke="none" d="M 81.10775173730289 90.83032412892265 l -13.742842748468526 -6.670323817386223 a36.276090685706336,36.276090685706336 0 0,0 0.27749479704060426,-0.5594125778718156 l 13.625987938474509 6.905895983757"/><path fill="#9fff22" stroke="none" d="M 81.26839172434947 90.50648371742162 l -26.691825321160874 -13.527897581948466 a50.92419676387408,50.92419676387408 0 0,0 0.40300576790733905,-0.7784788694374061 l 26.45501012009342 13.985349173646208"/><line x1="26.266" x2="21.929" y1="57.711" y2="55.224" stroke="#e1ed5e" stroke-width=".3"/><path id="id83" fill="none" stroke="none" d="M 25.398753493254645 57.213857153982495 a86.0,86.0 0 0,1 29.58750427330803,-30.492523968695096"/><text fill="#e1ed5e" text-anchor="middle" style="font-size:6.75px;font-family:Arial"><textPath startOffset="21.466" xlink:href="#id83">November</textPath></text><path fill="#ffa90f" stroke="none" d="M 82.15384107792192 88.93136811851018 l -13.207762755488547 -8.191783148232279 a36.54188882192035,36.54188882192035 0 0,0 0.33613735721157817,-0.5316885755477799 l 13.064797802031007 8.417919371494275"/><path fill="#ffaa0f" stroke="none" d="M 82.34701348167596 88.62581576622439 l -13.12618099035101 -8.457469828981088 a36.614910287913204,36.614910287913204 0 0,0 0.34592959034237525,-0.5268744989564595 l 12.978654764650715 8.682162391915215"/><path fill="#4cdaff" stroke="none" d="M 82.54541684631803 88.32363383020206 l -51.70583411476451 -34.58898141096339 a83.2084473086374,83.2084473086374 0 0,0 0.8066287677014439,-1.1836281838397913 l 51.10278088139432 35.473887618073604"/><path fill="#ffa50f" stroke="none" d="M 83.84228863543731 86.58626213691792 l -11.753650670406072 -9.757594096701645 a36.276090685706336,36.276090685706336 0 0,0 0.4029917591025656,-0.47701513263335205 l 11.583948297816383 9.958468178964113"/><path fill="#ffa50f" stroke="none" d="M 85.57189188830299 84.74124197986013 l -10.49548037797423 -11.099722441281212 a36.276090685706336,36.276090685706336 0 0,0 0.4574106104913281,-0.4251133120425012 l 10.302861883688045 11.278740339398361"/><path fill="#e6ff1a" stroke="none" d="M 85.83668400450813 84.49514656593479 l -16.230454887133046 -17.767789991644957 a45.06495433260699,45.06495433260699 0 0,0 0.5772370266647907,-0.5182491019567511 l 15.922206872872286 18.044538102370986"/><path fill="#ffa50f" stroke="none" d="M 87.51073957382395 83.11751280151077 l -9.085098803222316 -12.280876449733233 a36.276090685706336,36.276090685706336 0 0,0 0.5051958393052273,-0.36704626222661096 l 8.872357647563307 12.43544194677651"/><line x1="56.763" x2="54.22" y1="26.818" y2="22.514" stroke="#e1ed5e" stroke-width=".3"/><path id="id84" fill="none" stroke="none" d="M 56.25429882871897 25.957352633546506 a86.0,86.0 0 0,1 42.265352541879196,-11.944610805530505"/><text fill="#e1ed5e" text-anchor="middle" style="font-size:6.75px;font-family:Arial"><textPath startOffset="22.206" xlink:href="#id84">December</textPath></text><path fill="#ffa50f" stroke="none" d="M 89.3179101791058 81.91981866633112 l -7.7705034674685916 -13.152118555578127 a36.276090685706336,36.276090685706336 0 0,0 0.5403466523749194,-0.3130036580186486 l 7.542960082628352 13.283926370986823"/><path fill="#ffa80f" stroke="none" d="M 89.94658935756843 81.56283822128135 l -7.395682074433759 -13.563097312945837 a36.44842134544949,36.44842134544949 0 0,0 0.5534171282009533,-0.2956162638360846 l 7.1611198997045005 13.68839230328367"/><path fill="#ffa50f" stroke="none" d="M 90.91171255644093 81.06846463323043 l -6.61111919836069 -13.771421480115645 a36.276090685706336,36.276090685706336 0 0,0 0.5652536800587828,-0.26539418201195963 l 6.373087307002298 13.883180644767613"/><path fill="#ffa50f" stroke="none" d="M 92.23578459929587 80.48803036053334 l -5.652265298430914 -14.204504023316128 a36.2877741202652,36.2877741202652 0 0,0 0.5823614658675443,-0.2259472012283952 l 5.406920667563693 14.299693928435074"/><path fill="#ffa50f" stroke="none" d="M 94.28887869178378 79.79150937346287 l -4.154457477208614 -14.700320734867976 a36.276090685706336,36.276090685706336 0 0,0 0.6023594948960694,-0.16464760421684077 l 3.9008000930888223 14.769654879911112"/><path fill="#ffa40f" stroke="none" d="M 94.63758080256005 79.69619591428918 l -3.878424566742232 -14.684934106221373 a36.188464926514904,36.188464926514904 0 0,0 0.6036427426615631,-0.15388197577076007 l 3.6250729353956697 14.749519078160997"/><path fill="#dcff1b" stroke="none" d="M 96.75951476605007 79.25152402106235 l -3.8333247134420785 -24.54436295621466 a45.84190273077101,45.84190273077101 0 0,0 0.7806898291760165,-0.11505338716514153 l 3.4102659038374132 24.60671082754077"/><path fill="#ffcd13" stroke="none" d="M 97.11714578562143 79.19881850522333 l -2.4980548596010688 -18.02466883663481 a39.196949325420746,39.196949325420746 0 0,0 0.6691204295517713,-0.08687103564073535 l 2.18741970154144 18.06499819543968"/><path fill="#ff5307" stroke="none" d="M 99.63851952072746 79.00311137660856 l -0.16239722954939598 -9.432975602052164 a30.43437340627753,30.43437340627753 0 0,0 0.5238777088219294,-0.004509180833925619 l 2.310755038791738e-15 9.43437340627753"/></svg>